{"glyphs":{"0":{"ha":899,"x_min":74,"x_max":874,"o":"m 376 -14 q 149 63 224 -14 q 74 282 74 139 q 92 436 74 346 q 254 790 142 671 q 574 908 367 908 q 801 835 728 908 q 874 618 874 761 q 851 436 874 543 q 692 101 806 217 q 376 -14 578 -14 m 397 83 q 618 176 533 83 q 738 436 703 269 q 761 615 761 542 q 713 763 761 714 q 553 811 664 811 q 206 436 285 811 q 188 289 188 349 q 237 136 188 189 q 397 83 286 83 z "},"1":{"ha":422,"x_min":142,"x_max":449,"o":"m 311 797 l 164 772 l 183 868 l 449 908 l 256 0 l 142 0 l 311 797 z "},"2":{"ha":703,"x_min":0,"x_max":697,"o":"m 13 61 q 140 212 63 142 q 321 357 217 282 q 465 467 417 425 q 539 550 514 510 q 576 646 564 590 q 585 707 585 679 q 547 785 585 760 q 415 811 508 811 q 197 771 311 811 l 219 872 q 333 898 268 888 q 454 908 397 908 q 633 856 569 908 q 697 711 697 804 q 690 646 697 674 q 644 531 676 582 q 564 438 611 481 q 439 338 517 396 l 403 311 q 253 192 307 239 q 158 89 199 146 l 582 89 l 564 0 l 0 0 l 13 61 z "},"3":{"ha":714,"x_min":4,"x_max":701,"o":"m 236 -14 q 108 -3 175 -14 q 4 24 42 8 l 25 124 q 243 83 119 83 q 430 120 365 83 q 513 246 494 157 q 518 290 518 267 q 472 380 518 350 q 342 410 426 410 l 213 410 l 242 496 l 349 496 q 506 539 447 496 q 582 663 565 582 q 588 706 588 693 q 544 786 588 761 q 401 811 501 811 q 289 800 347 811 q 179 771 231 789 l 201 869 q 311 897 244 886 q 438 908 378 908 q 633 856 565 908 q 701 717 701 804 q 696 664 701 688 q 631 531 681 590 q 503 449 581 471 q 601 391 569 433 q 632 293 632 349 q 626 246 632 276 q 497 52 600 118 q 236 -14 394 -14 z "},"4":{"ha":751,"x_min":15,"x_max":735,"o":"m 475 206 l 15 206 l 33 292 l 633 894 l 735 894 l 608 299 l 703 299 l 683 206 l 589 206 l 546 0 l 432 0 l 475 206 m 510 296 l 608 758 l 149 296 l 510 296 z "},"5":{"ha":711,"x_min":8,"x_max":697,"o":"m 238 -14 q 109 -4 172 -14 q 8 24 46 6 l 31 125 q 246 83 125 83 q 430 128 365 83 q 514 267 494 172 q 522 335 522 304 q 484 418 522 392 q 353 444 446 444 l 94 444 l 111 524 l 213 894 l 697 894 l 668 806 l 290 806 l 214 535 l 382 535 q 571 483 507 535 q 635 335 635 432 q 628 267 635 306 q 238 -14 572 -14 z "},"6":{"ha":790,"x_min":54,"x_max":753,"o":"m 322 -14 q 122 41 189 -14 q 54 211 54 96 q 68 326 54 254 l 114 538 q 267 811 153 714 q 554 908 382 908 q 753 879 672 908 l 732 781 q 539 811 653 811 q 331 744 411 811 q 226 558 251 676 l 213 490 q 342 548 272 528 q 468 568 411 568 q 657 517 594 568 q 719 367 719 465 q 710 279 719 324 q 586 63 681 140 q 322 -14 492 -14 m 342 76 q 519 129 451 76 q 607 276 586 182 q 617 354 617 325 q 576 448 617 417 q 440 479 536 479 q 193 403 315 479 l 171 294 q 161 214 161 251 q 204 110 161 143 q 342 76 247 76 z "},"7":{"ha":692,"x_min":107,"x_max":756,"o":"m 618 806 l 157 806 l 175 894 l 756 894 l 739 815 l 222 0 l 107 0 l 618 806 z "},"8":{"ha":811,"x_min":43,"x_max":793,"o":"m 332 -14 q 119 35 196 -14 q 43 179 43 85 q 50 236 43 201 q 124 378 67 318 q 269 463 182 439 q 188 523 215 483 q 160 614 160 563 q 164 658 160 636 q 279 842 189 776 q 529 908 369 908 q 726 858 658 908 q 793 717 793 807 q 786 658 793 693 q 724 531 772 586 q 588 449 675 476 q 692 384 657 428 q 726 281 726 340 q 722 236 726 260 q 601 49 697 111 q 332 -14 504 -14 m 478 485 q 619 544 571 506 q 683 657 668 583 q 689 700 689 688 q 510 818 689 818 q 347 778 408 818 q 267 658 285 738 q 263 625 263 642 q 292 548 263 579 q 376 506 322 517 l 478 485 m 351 76 q 619 238 585 76 q 624 278 624 258 q 590 354 624 328 q 483 396 556 381 l 368 421 q 224 360 278 403 q 153 239 169 318 q 147 194 147 206 q 196 105 147 133 q 351 76 244 76 z "},"9":{"ha":790,"x_min":88,"x_max":783,"o":"m 286 -14 q 88 15 168 -14 l 108 114 q 301 83 188 83 q 510 150 432 83 q 614 336 589 217 l 628 404 q 499 347 568 367 q 371 326 429 326 q 185 378 249 326 q 121 531 121 431 q 131 615 121 572 q 255 831 158 753 q 518 908 351 908 q 715 849 646 908 q 783 674 783 790 q 771 568 783 626 l 726 357 q 578 82 689 178 q 286 -14 467 -14 m 400 415 q 647 492 525 415 l 669 600 q 678 672 678 640 q 499 818 678 818 q 323 765 393 818 q 233 618 253 711 q 225 546 225 579 q 265 449 225 482 q 400 415 306 415 z "},"\r":{"ha":556,"x_min":0,"x_max":0,"o":""}," ":{"ha":528,"x_min":0,"x_max":0,"o":""},"A":{"ha":951,"x_min":0,"x_max":813,"o":"m 529 894 l 663 894 l 813 0 l 701 0 l 658 246 l 269 246 l 124 0 l 0 0 l 529 894 m 657 336 l 579 796 l 308 336 l 657 336 z "},"Á":{"ha":951,"x_min":0,"x_max":813,"o":"m 688 1189 l 790 1189 l 631 956 l 539 956 l 688 1189 m 529 894 l 663 894 l 813 0 l 701 0 l 658 246 l 269 246 l 124 0 l 0 0 l 529 894 m 657 336 l 579 796 l 308 336 l 657 336 z "},"Ă":{"ha":951,"x_min":0,"x_max":821,"o":"m 606 956 q 499 990 535 956 q 463 1083 463 1024 q 468 1131 463 1097 l 544 1131 q 540 1093 540 1110 q 618 1028 540 1028 q 736 1131 714 1028 l 821 1131 q 606 956 783 956 m 529 894 l 663 894 l 813 0 l 701 0 l 658 246 l 269 246 l 124 0 l 0 0 l 529 894 m 657 336 l 579 796 l 308 336 l 657 336 z "},"Ắ":{"ha":951,"x_min":0,"x_max":854,"o":"m 708 1274 l 799 1274 l 667 1100 l 585 1100 l 708 1274 m 608 956 q 486 991 532 956 q 440 1099 440 1026 q 446 1150 440 1126 l 517 1150 q 511 1104 511 1128 q 537 1042 511 1063 q 621 1022 563 1022 q 726 1054 685 1022 q 781 1150 767 1086 l 854 1150 q 767 1002 832 1049 q 608 956 703 956 m 529 894 l 663 894 l 813 0 l 701 0 l 658 246 l 269 246 l 124 0 l 0 0 l 529 894 m 657 336 l 579 796 l 308 336 l 657 336 z "},"Ặ":{"ha":951,"x_min":0,"x_max":821,"o":"m 606 956 q 499 990 535 956 q 463 1083 463 1024 q 468 1131 463 1097 l 544 1131 q 540 1093 540 1110 q 618 1028 540 1028 q 736 1131 714 1028 l 821 1131 q 606 956 783 956 m 529 894 l 663 894 l 813 0 l 701 0 l 658 246 l 269 246 l 124 0 l 0 0 l 529 894 m 657 336 l 579 796 l 308 336 l 657 336 m 325 -121 l 436 -121 l 414 -228 l 303 -228 l 325 -121 z "},"Ằ":{"ha":951,"x_min":0,"x_max":854,"o":"m 554 1274 l 644 1274 l 693 1100 l 611 1100 l 554 1274 m 608 956 q 486 991 532 956 q 440 1099 440 1026 q 446 1150 440 1126 l 517 1150 q 511 1104 511 1128 q 537 1042 511 1063 q 621 1022 563 1022 q 726 1054 685 1022 q 781 1150 767 1086 l 854 1150 q 767 1002 832 1049 q 608 956 703 956 m 529 894 l 663 894 l 813 0 l 701 0 l 658 246 l 269 246 l 124 0 l 0 0 l 529 894 m 657 336 l 579 796 l 308 336 l 657 336 z "},"Ẳ":{"ha":951,"x_min":0,"x_max":854,"o":"m 604 1182 q 698 1199 671 1185 q 731 1244 725 1214 q 732 1260 732 1250 q 669 1299 732 1299 q 586 1281 629 1299 l 599 1338 q 704 1354 646 1354 q 787 1333 758 1354 q 815 1274 815 1311 q 813 1251 815 1268 q 772 1182 801 1206 q 681 1149 742 1158 l 671 1101 l 588 1101 l 604 1182 m 608 956 q 486 991 532 956 q 440 1099 440 1026 q 446 1150 440 1126 l 517 1150 q 511 1104 511 1128 q 537 1042 511 1063 q 621 1022 563 1022 q 726 1054 685 1022 q 781 1150 767 1086 l 854 1150 q 767 1002 832 1049 q 608 956 703 956 m 529 894 l 663 894 l 813 0 l 701 0 l 658 246 l 269 246 l 124 0 l 0 0 l 529 894 m 657 336 l 579 796 l 308 336 l 657 336 z "},"Ẵ":{"ha":951,"x_min":0,"x_max":876,"o":"m 754 1179 q 713 1185 732 1179 q 658 1206 693 1192 q 615 1222 632 1217 q 579 1228 597 1228 q 464 1183 510 1228 l 481 1261 q 532 1288 499 1278 q 594 1299 565 1299 q 640 1292 618 1299 q 688 1274 661 1286 q 768 1250 735 1250 q 876 1296 832 1250 l 860 1217 q 815 1190 844 1200 q 754 1179 786 1179 m 608 956 q 486 991 532 956 q 440 1099 440 1026 q 446 1150 440 1126 l 517 1150 q 511 1104 511 1128 q 537 1042 511 1063 q 621 1022 563 1022 q 726 1054 685 1022 q 781 1150 767 1086 l 854 1150 q 767 1002 832 1049 q 608 956 703 956 m 529 894 l 663 894 l 813 0 l 701 0 l 658 246 l 269 246 l 124 0 l 0 0 l 529 894 m 657 336 l 579 796 l 308 336 l 657 336 z "},"Ǎ":{"ha":951,"x_min":0,"x_max":857,"o":"m 447 1161 l 540 1161 l 617 1019 l 754 1161 l 857 1161 l 654 956 l 563 956 l 447 1161 m 529 894 l 663 894 l 813 0 l 701 0 l 658 246 l 269 246 l 124 0 l 0 0 l 529 894 m 657 336 l 579 796 l 308 336 l 657 336 z "},"Â":{"ha":951,"x_min":0,"x_max":814,"o":"m 606 1161 l 697 1161 l 814 956 l 719 956 l 642 1097 l 506 956 l 404 956 l 606 1161 m 529 894 l 663 894 l 813 0 l 701 0 l 658 246 l 269 246 l 124 0 l 0 0 l 529 894 m 657 336 l 579 796 l 308 336 l 657 336 z "},"Ấ":{"ha":951,"x_min":0,"x_max":957,"o":"m 867 1281 l 957 1281 l 826 1107 l 744 1107 l 867 1281 m 590 1119 l 682 1119 l 801 956 l 708 956 l 629 1071 l 501 956 l 401 956 l 590 1119 m 529 894 l 663 894 l 813 0 l 701 0 l 658 246 l 269 246 l 124 0 l 0 0 l 529 894 m 657 336 l 579 796 l 308 336 l 657 336 z "},"Ậ":{"ha":951,"x_min":0,"x_max":814,"o":"m 606 1161 l 697 1161 l 814 956 l 719 956 l 642 1097 l 506 956 l 404 956 l 606 1161 m 529 894 l 663 894 l 813 0 l 701 0 l 658 246 l 269 246 l 124 0 l 0 0 l 529 894 m 657 336 l 579 796 l 308 336 l 657 336 m 325 -121 l 436 -121 l 414 -228 l 303 -228 l 325 -121 z "},"Ầ":{"ha":951,"x_min":0,"x_max":813,"o":"m 386 1281 l 476 1281 l 525 1107 l 443 1107 l 386 1281 m 593 1119 l 685 1119 l 803 956 l 710 956 l 632 1071 l 503 956 l 404 956 l 593 1119 m 529 894 l 663 894 l 813 0 l 701 0 l 658 246 l 269 246 l 124 0 l 0 0 l 529 894 m 657 336 l 579 796 l 308 336 l 657 336 z "},"Ẩ":{"ha":951,"x_min":0,"x_max":983,"o":"m 774 1165 q 865 1181 840 1168 q 896 1224 890 1194 q 897 1238 897 1229 q 838 1274 897 1274 q 756 1257 799 1274 l 768 1317 q 869 1333 815 1333 q 953 1313 924 1333 q 983 1253 983 1292 q 981 1229 983 1246 q 939 1158 971 1183 q 849 1126 907 1133 l 839 1078 l 756 1078 l 774 1165 m 596 1119 l 688 1119 l 807 956 l 714 956 l 635 1071 l 507 956 l 407 956 l 596 1119 m 529 894 l 663 894 l 813 0 l 701 0 l 658 246 l 269 246 l 124 0 l 0 0 l 529 894 m 657 336 l 579 796 l 308 336 l 657 336 z "},"Ẫ":{"ha":951,"x_min":0,"x_max":865,"o":"m 743 1122 q 701 1128 721 1122 q 647 1149 682 1135 q 603 1165 621 1160 q 568 1171 586 1171 q 453 1126 499 1171 l 469 1204 q 522 1231 489 1221 q 583 1242 554 1242 q 628 1235 607 1242 q 676 1217 650 1229 q 719 1199 701 1206 q 758 1193 738 1193 q 865 1239 821 1193 l 847 1160 q 803 1133 832 1143 q 743 1122 775 1122 m 597 1119 l 689 1119 l 808 956 l 715 956 l 636 1071 l 508 956 l 408 956 l 597 1119 m 529 894 l 663 894 l 813 0 l 701 0 l 658 246 l 269 246 l 124 0 l 0 0 l 529 894 m 657 336 l 579 796 l 308 336 l 657 336 z "},"Ä":{"ha":951,"x_min":0,"x_max":813,"o":"m 461 1090 l 568 1090 l 546 986 l 439 986 l 461 1090 m 704 1090 l 813 1090 l 790 986 l 682 986 l 704 1090 m 529 894 l 663 894 l 813 0 l 701 0 l 658 246 l 269 246 l 124 0 l 0 0 l 529 894 m 657 336 l 579 796 l 308 336 l 657 336 z "},"Ạ":{"ha":951,"x_min":0,"x_max":813,"o":"m 529 894 l 663 894 l 813 0 l 701 0 l 658 246 l 269 246 l 124 0 l 0 0 l 529 894 m 657 336 l 579 796 l 308 336 l 657 336 m 325 -121 l 436 -121 l 414 -228 l 303 -228 l 325 -121 z "},"À":{"ha":951,"x_min":0,"x_max":813,"o":"m 485 1189 l 588 1189 l 636 956 l 544 956 l 485 1189 m 529 894 l 663 894 l 813 0 l 701 0 l 658 246 l 269 246 l 124 0 l 0 0 l 529 894 m 657 336 l 579 796 l 308 336 l 657 336 z "},"Ả":{"ha":951,"x_min":0,"x_max":821,"o":"m 586 1071 q 694 1090 665 1075 q 731 1143 722 1106 q 732 1161 732 1150 q 710 1195 732 1185 q 635 1206 688 1206 q 585 1201 613 1206 q 540 1189 558 1196 l 554 1260 q 611 1273 576 1268 q 676 1278 646 1278 q 782 1251 743 1278 q 821 1178 821 1225 q 818 1151 821 1168 q 771 1063 806 1093 q 667 1022 736 1032 l 653 956 l 561 956 l 586 1071 m 529 894 l 663 894 l 813 0 l 701 0 l 658 246 l 269 246 l 124 0 l 0 0 l 529 894 m 657 336 l 579 796 l 308 336 l 657 336 z "},"Ā":{"ha":951,"x_min":0,"x_max":832,"o":"m 433 1071 l 832 1071 l 815 989 l 417 989 l 433 1071 m 529 894 l 663 894 l 813 0 l 701 0 l 658 246 l 269 246 l 124 0 l 0 0 l 529 894 m 657 336 l 579 796 l 308 336 l 657 336 z "},"Ą":{"ha":951,"x_min":0,"x_max":813,"o":"m 693 -306 q 609 -283 640 -306 q 578 -214 578 -261 q 615 -101 578 -158 q 701 0 653 -43 l 658 246 l 269 246 l 124 0 l 0 0 l 529 894 l 663 894 l 813 0 q 722 -79 756 -36 q 678 -167 688 -122 q 675 -187 675 -181 q 690 -218 675 -210 q 735 -226 704 -226 q 773 -222 753 -226 q 806 -211 793 -218 l 789 -289 q 693 -306 754 -306 m 657 336 l 579 796 l 308 336 l 657 336 z "},"Å":{"ha":951,"x_min":0,"x_max":813,"o":"m 511 864 q 472 903 486 878 q 458 961 458 929 q 463 994 458 978 q 526 1102 476 1060 q 646 1144 575 1144 q 738 1112 704 1144 q 772 1028 772 1079 q 768 994 772 1011 q 732 917 758 951 q 667 864 706 882 l 813 0 l 701 0 l 658 246 l 269 246 l 124 0 l 0 0 l 511 864 m 596 910 q 672 942 642 910 q 703 1017 703 974 q 685 1063 703 1046 q 632 1079 668 1079 q 557 1047 588 1079 q 526 971 526 1015 q 544 926 526 943 q 596 910 561 910 m 657 336 l 579 796 l 308 336 l 657 336 z "},"Ǻ":{"ha":951,"x_min":0,"x_max":838,"o":"m 735 1417 l 838 1417 l 678 1183 l 586 1183 l 735 1417 m 511 864 q 472 903 486 878 q 458 961 458 929 q 463 994 458 978 q 526 1102 476 1060 q 646 1144 575 1144 q 738 1112 704 1144 q 772 1028 772 1079 q 768 994 772 1011 q 732 917 758 951 q 667 864 706 882 l 813 0 l 701 0 l 658 246 l 269 246 l 124 0 l 0 0 l 511 864 m 596 910 q 672 942 642 910 q 703 1017 703 974 q 685 1063 703 1046 q 632 1079 668 1079 q 557 1047 588 1079 q 526 971 526 1015 q 544 926 526 943 q 596 910 561 910 m 657 336 l 579 796 l 308 336 l 657 336 z "},"Ã":{"ha":951,"x_min":0,"x_max":851,"o":"m 717 976 q 669 983 692 976 q 613 1004 646 990 q 528 1029 557 1029 q 403 981 453 1029 l 421 1068 q 477 1098 442 1086 q 546 1110 513 1110 q 595 1103 572 1110 q 646 1082 618 1096 q 693 1063 674 1069 q 735 1057 713 1057 q 851 1107 806 1057 l 833 1018 q 783 988 815 999 q 717 976 751 976 m 529 894 l 663 894 l 813 0 l 701 0 l 658 246 l 269 246 l 124 0 l 0 0 l 529 894 m 657 336 l 579 796 l 308 336 l 657 336 z "},"Æ":{"ha":1167,"x_min":0,"x_max":1217,"o":"m 529 894 l 1217 894 l 1199 804 l 783 804 l 717 492 l 1082 492 l 1063 403 l 697 403 l 631 89 l 1046 89 l 1028 0 l 499 0 l 550 247 l 268 247 l 122 0 l 0 0 l 529 894 m 569 336 l 669 804 l 599 804 l 322 336 l 569 336 z "},"Ǽ":{"ha":1167,"x_min":0,"x_max":1217,"o":"m 882 1189 l 985 1189 l 825 956 l 733 956 l 882 1189 m 529 894 l 1217 894 l 1199 804 l 783 804 l 717 492 l 1082 492 l 1063 403 l 697 403 l 631 89 l 1046 89 l 1028 0 l 499 0 l 550 247 l 268 247 l 122 0 l 0 0 l 529 894 m 569 336 l 669 804 l 599 804 l 322 336 l 569 336 z "},"B":{"ha":871,"x_min":28,"x_max":843,"o":"m 217 894 l 622 894 q 787 849 731 894 q 843 721 843 804 q 836 658 843 696 q 682 461 804 510 q 765 405 736 443 q 793 311 793 367 q 786 256 793 288 q 679 62 756 124 q 464 0 603 0 l 28 0 l 217 894 m 540 503 q 667 542 621 503 q 728 650 714 581 q 736 711 736 683 q 702 783 736 760 q 585 807 668 807 l 313 807 l 247 503 l 540 503 m 463 86 q 603 126 553 86 q 672 260 653 167 q 679 315 679 294 q 642 392 679 367 q 514 417 604 417 l 229 417 l 160 86 l 463 86 z "},"C":{"ha":826,"x_min":76,"x_max":871,"o":"m 425 -14 q 166 70 256 -14 q 76 303 76 154 q 90 428 76 364 q 621 908 193 908 q 871 867 764 908 l 850 767 q 610 811 742 811 q 204 428 286 811 q 189 303 189 356 q 253 138 189 193 q 457 83 317 83 q 713 124 597 83 l 692 22 q 425 -14 568 -14 z "},"Ć":{"ha":826,"x_min":76,"x_max":871,"o":"m 703 1189 l 806 1189 l 646 956 l 554 956 l 703 1189 m 425 -14 q 166 70 256 -14 q 76 303 76 154 q 90 428 76 364 q 621 908 193 908 q 871 867 764 908 l 850 767 q 610 811 742 811 q 204 428 286 811 q 189 303 189 356 q 253 138 189 193 q 457 83 317 83 q 713 124 597 83 l 692 22 q 425 -14 568 -14 z "},"Č":{"ha":826,"x_min":76,"x_max":878,"o":"m 468 1161 l 561 1161 l 638 1019 l 775 1161 l 878 1161 l 675 956 l 583 956 l 468 1161 m 425 -14 q 166 70 256 -14 q 76 303 76 154 q 90 428 76 364 q 621 908 193 908 q 871 867 764 908 l 850 767 q 610 811 742 811 q 204 428 286 811 q 189 303 189 356 q 253 138 189 193 q 457 83 317 83 q 713 124 597 83 l 692 22 q 425 -14 568 -14 z "},"Ç":{"ha":826,"x_min":76,"x_max":871,"o":"m 313 -333 q 262 -330 290 -333 q 218 -322 233 -326 l 233 -253 q 318 -264 271 -264 q 417 -248 385 -264 q 457 -190 449 -232 q 460 -172 460 -176 q 435 -135 460 -144 q 354 -126 410 -126 l 303 -126 l 364 -11 q 150 85 224 3 q 76 303 76 168 q 90 428 76 364 q 621 908 193 908 q 871 867 764 908 l 850 767 q 610 811 742 811 q 204 428 286 811 q 189 303 189 356 q 253 138 189 193 q 457 83 317 83 q 713 124 597 83 l 692 22 q 442 -14 574 -12 l 414 -67 q 511 -91 478 -67 q 544 -160 544 -115 q 540 -192 544 -175 q 313 -333 510 -333 z "},"Ĉ":{"ha":826,"x_min":76,"x_max":871,"o":"m 590 1161 l 682 1161 l 799 956 l 704 956 l 626 1097 l 490 956 l 389 956 l 590 1161 m 425 -14 q 166 70 256 -14 q 76 303 76 154 q 90 428 76 364 q 621 908 193 908 q 871 867 764 908 l 850 767 q 610 811 742 811 q 204 428 286 811 q 189 303 189 356 q 253 138 189 193 q 457 83 317 83 q 713 124 597 83 l 692 22 q 425 -14 568 -14 z "},"Ċ":{"ha":826,"x_min":76,"x_max":871,"o":"m 594 1093 l 706 1093 l 683 986 l 572 986 l 594 1093 m 425 -14 q 166 70 256 -14 q 76 303 76 154 q 90 428 76 364 q 621 908 193 908 q 871 867 764 908 l 850 767 q 610 811 742 811 q 204 428 286 811 q 189 303 189 356 q 253 138 189 193 q 457 83 317 83 q 713 124 597 83 l 692 22 q 425 -14 568 -14 z "},"D":{"ha":892,"x_min":28,"x_max":867,"o":"m 217 894 l 567 894 q 792 828 717 894 q 867 617 867 761 q 846 442 867 542 q 756 190 813 286 q 611 47 700 93 q 390 0 522 0 l 28 0 l 217 894 m 375 89 q 542 118 475 89 q 656 224 610 147 q 732 442 703 301 q 757 631 757 558 q 733 736 757 699 q 660 789 710 774 q 528 804 611 804 l 313 804 l 160 89 l 375 89 z "},"Ð":{"ha":936,"x_min":56,"x_max":911,"o":"m 611 894 q 836 828 761 894 q 911 617 911 761 q 890 442 911 542 q 801 190 857 286 q 656 47 744 93 q 435 0 567 0 l 72 0 l 156 394 l 56 394 l 75 485 l 175 485 l 261 894 l 611 894 m 776 442 q 801 631 801 558 q 778 736 801 699 q 705 789 754 774 q 572 804 656 804 l 357 804 l 289 485 l 540 485 l 521 394 l 269 394 l 204 89 l 419 89 q 587 118 519 89 q 701 224 654 147 q 776 442 747 301 z "},"Ď":{"ha":892,"x_min":28,"x_max":867,"o":"m 386 1161 l 479 1161 l 556 1019 l 693 1161 l 796 1161 l 593 956 l 501 956 l 386 1161 m 217 894 l 567 894 q 792 828 717 894 q 867 617 867 761 q 846 442 867 542 q 756 190 813 286 q 611 47 700 93 q 390 0 522 0 l 28 0 l 217 894 m 375 89 q 542 118 475 89 q 656 224 610 147 q 732 442 703 301 q 757 631 757 558 q 733 736 757 699 q 660 789 710 774 q 528 804 611 804 l 313 804 l 160 89 l 375 89 z "},"Đ":{"ha":922,"x_min":42,"x_max":897,"o":"m 597 894 q 822 828 747 894 q 897 617 897 761 q 876 442 897 542 q 787 190 843 286 q 642 47 731 93 q 421 0 553 0 l 58 0 l 142 394 l 42 394 l 61 485 l 161 485 l 247 894 l 597 894 m 763 442 q 788 631 788 558 q 764 736 788 699 q 691 789 740 774 q 558 804 642 804 l 343 804 l 275 485 l 526 485 l 507 394 l 256 394 l 190 89 l 406 89 q 573 118 506 89 q 687 224 640 147 q 763 442 733 301 z "},"Ḍ":{"ha":892,"x_min":28,"x_max":867,"o":"m 217 894 l 567 894 q 792 828 717 894 q 867 617 867 761 q 846 442 867 542 q 756 190 813 286 q 611 47 700 93 q 390 0 522 0 l 28 0 l 217 894 m 375 89 q 542 118 475 89 q 656 224 610 147 q 732 442 703 301 q 757 631 757 558 q 733 736 757 699 q 660 789 710 774 q 528 804 611 804 l 313 804 l 160 89 l 375 89 m 290 -121 l 401 -121 l 379 -228 l 268 -228 l 290 -121 z "},"Ḏ":{"ha":892,"x_min":28,"x_max":867,"o":"m 217 894 l 567 894 q 792 828 717 894 q 867 617 867 761 q 846 442 867 542 q 756 190 813 286 q 611 47 700 93 q 390 0 522 0 l 28 0 l 217 894 m 375 89 q 542 118 475 89 q 656 224 610 147 q 732 442 703 301 q 757 631 757 558 q 733 736 757 699 q 660 789 710 774 q 528 804 611 804 l 313 804 l 160 89 l 375 89 m 100 -118 l 499 -118 l 482 -200 l 83 -200 l 100 -118 z "},"E":{"ha":771,"x_min":28,"x_max":821,"o":"m 217 894 l 821 894 l 803 804 l 313 804 l 246 492 l 686 492 l 667 403 l 226 403 l 160 89 l 650 89 l 632 0 l 28 0 l 217 894 z "},"É":{"ha":771,"x_min":28,"x_max":821,"o":"m 614 1189 l 717 1189 l 557 956 l 465 956 l 614 1189 m 217 894 l 821 894 l 803 804 l 313 804 l 246 492 l 686 492 l 667 403 l 226 403 l 160 89 l 650 89 l 632 0 l 28 0 l 217 894 z "},"Ĕ":{"ha":771,"x_min":28,"x_max":821,"o":"m 528 956 q 421 990 457 956 q 385 1083 385 1024 q 390 1131 385 1097 l 467 1131 q 463 1093 463 1110 q 540 1028 463 1028 q 658 1131 636 1028 l 743 1131 q 528 956 706 956 m 217 894 l 821 894 l 803 804 l 313 804 l 246 492 l 686 492 l 667 403 l 226 403 l 160 89 l 650 89 l 632 0 l 28 0 l 217 894 z "},"Ě":{"ha":771,"x_min":28,"x_max":821,"o":"m 371 1161 l 464 1161 l 540 1019 l 678 1161 l 781 1161 l 578 956 l 486 956 l 371 1161 m 217 894 l 821 894 l 803 804 l 313 804 l 246 492 l 686 492 l 667 403 l 226 403 l 160 89 l 650 89 l 632 0 l 28 0 l 217 894 z "},"Ê":{"ha":771,"x_min":28,"x_max":821,"o":"m 511 1161 l 603 1161 l 719 956 l 625 956 l 547 1097 l 411 956 l 310 956 l 511 1161 m 217 894 l 821 894 l 803 804 l 313 804 l 246 492 l 686 492 l 667 403 l 226 403 l 160 89 l 650 89 l 632 0 l 28 0 l 217 894 z "},"Ế":{"ha":771,"x_min":28,"x_max":871,"o":"m 781 1279 l 871 1279 l 740 1106 l 658 1106 l 781 1279 m 504 1118 l 596 1118 l 715 954 l 622 954 l 543 1069 l 415 954 l 315 954 l 504 1118 m 217 894 l 821 894 l 803 804 l 313 804 l 246 492 l 686 492 l 667 403 l 226 403 l 160 89 l 650 89 l 632 0 l 28 0 l 217 894 z "},"Ệ":{"ha":771,"x_min":28,"x_max":821,"o":"m 506 1161 l 597 1161 l 714 956 l 619 956 l 542 1097 l 406 956 l 304 956 l 506 1161 m 217 894 l 821 894 l 803 804 l 313 804 l 246 492 l 686 492 l 667 403 l 226 403 l 160 89 l 650 89 l 632 0 l 28 0 l 217 894 m 225 -121 l 336 -121 l 314 -228 l 203 -228 l 225 -121 z "},"Ề":{"ha":771,"x_min":28,"x_max":821,"o":"m 322 1279 l 413 1279 l 461 1106 l 379 1106 l 322 1279 m 529 1118 l 621 1118 l 739 954 l 646 954 l 568 1069 l 439 954 l 340 954 l 529 1118 m 217 894 l 821 894 l 803 804 l 313 804 l 246 492 l 686 492 l 667 403 l 226 403 l 160 89 l 650 89 l 632 0 l 28 0 l 217 894 z "},"Ể":{"ha":771,"x_min":28,"x_max":899,"o":"m 689 1164 q 781 1180 756 1167 q 811 1222 806 1193 q 813 1236 813 1228 q 753 1272 813 1272 q 671 1256 714 1272 l 683 1315 q 785 1332 731 1332 q 869 1311 839 1332 q 899 1251 899 1290 q 896 1228 899 1244 q 854 1157 886 1182 q 764 1125 822 1132 l 754 1076 l 671 1076 l 689 1164 m 511 1118 l 603 1118 l 722 954 l 629 954 l 550 1069 l 422 954 l 322 954 l 511 1118 m 217 894 l 821 894 l 803 804 l 313 804 l 246 492 l 686 492 l 667 403 l 226 403 l 160 89 l 650 89 l 632 0 l 28 0 l 217 894 z "},"Ễ":{"ha":771,"x_min":28,"x_max":821,"o":"m 658 1122 q 617 1128 636 1122 q 563 1149 597 1135 q 519 1165 536 1160 q 483 1171 501 1171 q 368 1126 414 1171 l 385 1204 q 437 1231 404 1221 q 499 1242 469 1242 q 544 1235 522 1242 q 592 1217 565 1229 q 635 1199 617 1206 q 674 1193 653 1193 q 781 1239 736 1193 l 763 1160 q 719 1133 747 1143 q 658 1122 690 1122 m 513 1119 l 604 1119 l 724 956 l 631 956 l 551 1071 l 424 956 l 324 956 l 513 1119 m 217 894 l 821 894 l 803 804 l 313 804 l 246 492 l 686 492 l 667 403 l 226 403 l 160 89 l 650 89 l 632 0 l 28 0 l 217 894 z "},"Ë":{"ha":771,"x_min":28,"x_max":821,"o":"m 375 1092 l 482 1092 l 460 988 l 353 988 l 375 1092 m 618 1092 l 726 1092 l 704 988 l 596 988 l 618 1092 m 217 894 l 821 894 l 803 804 l 313 804 l 246 492 l 686 492 l 667 403 l 226 403 l 160 89 l 650 89 l 632 0 l 28 0 l 217 894 z "},"Ė":{"ha":771,"x_min":28,"x_max":821,"o":"m 493 1093 l 604 1093 l 582 986 l 471 986 l 493 1093 m 217 894 l 821 894 l 803 804 l 313 804 l 246 492 l 686 492 l 667 403 l 226 403 l 160 89 l 650 89 l 632 0 l 28 0 l 217 894 z "},"Ẹ":{"ha":771,"x_min":28,"x_max":821,"o":"m 217 894 l 821 894 l 803 804 l 313 804 l 246 492 l 686 492 l 667 403 l 226 403 l 160 89 l 650 89 l 632 0 l 28 0 l 217 894 m 233 -121 l 344 -121 l 322 -228 l 211 -228 l 233 -121 z "},"È":{"ha":771,"x_min":28,"x_max":821,"o":"m 431 1189 l 533 1189 l 582 956 l 490 956 l 431 1189 m 217 894 l 821 894 l 803 804 l 313 804 l 246 492 l 686 492 l 667 403 l 226 403 l 160 89 l 650 89 l 632 0 l 28 0 l 217 894 z "},"Ẻ":{"ha":771,"x_min":28,"x_max":821,"o":"m 492 1071 q 599 1090 571 1075 q 636 1143 628 1106 q 638 1161 638 1150 q 615 1195 638 1185 q 540 1206 593 1206 q 491 1201 518 1206 q 446 1189 464 1196 l 460 1260 q 517 1273 482 1268 q 582 1278 551 1278 q 688 1251 649 1278 q 726 1178 726 1225 q 724 1151 726 1168 q 676 1063 711 1093 q 572 1022 642 1032 l 558 956 l 467 956 l 492 1071 m 217 894 l 821 894 l 803 804 l 313 804 l 246 492 l 686 492 l 667 403 l 226 403 l 160 89 l 650 89 l 632 0 l 28 0 l 217 894 z "},"Ē":{"ha":771,"x_min":28,"x_max":821,"o":"m 340 1082 l 739 1082 l 722 1000 l 324 1000 l 340 1082 m 217 894 l 821 894 l 803 804 l 313 804 l 246 492 l 686 492 l 667 403 l 226 403 l 160 89 l 650 89 l 632 0 l 28 0 l 217 894 z "},"Ę":{"ha":771,"x_min":28,"x_max":821,"o":"m 475 -306 q 391 -283 422 -306 q 360 -214 360 -261 q 401 -96 360 -154 q 506 0 443 -37 l 28 0 l 217 894 l 821 894 l 803 804 l 313 804 l 246 492 l 686 492 l 667 403 l 226 403 l 160 89 l 650 89 l 632 0 l 594 0 q 503 -79 538 -36 q 460 -167 469 -122 q 457 -187 457 -181 q 472 -218 457 -210 q 517 -226 486 -226 q 555 -222 535 -226 q 588 -211 575 -218 l 571 -289 q 475 -306 535 -306 z "},"Ẽ":{"ha":771,"x_min":28,"x_max":821,"o":"m 628 983 q 580 990 603 983 q 524 1011 557 997 q 439 1036 468 1036 q 314 988 364 1036 l 332 1075 q 388 1105 353 1093 q 457 1117 424 1117 q 506 1110 483 1117 q 557 1089 529 1103 q 604 1070 585 1076 q 646 1064 624 1064 q 763 1114 717 1064 l 744 1025 q 694 994 726 1006 q 628 983 663 983 m 217 894 l 821 894 l 803 804 l 313 804 l 246 492 l 686 492 l 667 403 l 226 403 l 160 89 l 650 89 l 632 0 l 28 0 l 217 894 z "},"F":{"ha":725,"x_min":28,"x_max":803,"o":"m 217 894 l 803 894 l 785 804 l 313 804 l 246 492 l 667 492 l 647 403 l 226 403 l 142 0 l 28 0 l 217 894 z "},"G":{"ha":888,"x_min":76,"x_max":871,"o":"m 425 -14 q 167 71 257 -14 q 76 306 76 156 q 90 428 76 367 q 271 782 139 656 q 621 908 403 908 q 871 867 764 908 l 850 767 q 610 811 742 811 q 204 428 289 811 q 188 297 188 356 q 251 136 188 189 q 453 83 314 83 q 675 119 574 83 l 735 404 l 496 404 l 513 482 l 850 482 l 760 57 q 622 6 706 26 q 425 -14 539 -14 z "},"Ğ":{"ha":888,"x_min":76,"x_max":871,"o":"m 617 956 q 510 990 546 956 q 474 1083 474 1024 q 479 1131 474 1097 l 556 1131 q 551 1093 551 1110 q 629 1028 551 1028 q 747 1131 725 1028 l 832 1131 q 617 956 794 956 m 425 -14 q 167 71 257 -14 q 76 306 76 156 q 90 428 76 367 q 271 782 139 656 q 621 908 403 908 q 871 867 764 908 l 850 767 q 610 811 742 811 q 204 428 289 811 q 188 297 188 356 q 251 136 188 189 q 453 83 314 83 q 675 119 574 83 l 735 404 l 496 404 l 513 482 l 850 482 l 760 57 q 622 6 706 26 q 425 -14 539 -14 z "},"Ǧ":{"ha":888,"x_min":76,"x_max":871,"o":"m 457 1160 l 550 1160 l 626 1018 l 764 1160 l 867 1160 l 664 954 l 572 954 l 457 1160 m 425 -14 q 167 71 257 -14 q 76 306 76 156 q 90 428 76 367 q 271 782 139 656 q 621 908 403 908 q 871 867 764 908 l 850 767 q 610 811 742 811 q 204 428 289 811 q 188 297 188 356 q 251 136 188 189 q 453 83 314 83 q 675 119 574 83 l 735 404 l 496 404 l 513 482 l 850 482 l 760 57 q 622 6 706 26 q 425 -14 539 -14 z "},"Ĝ":{"ha":888,"x_min":76,"x_max":871,"o":"m 625 1161 l 717 1161 l 833 956 l 739 956 l 661 1097 l 525 956 l 424 956 l 625 1161 m 425 -14 q 167 71 257 -14 q 76 306 76 156 q 90 428 76 367 q 271 782 139 656 q 621 908 403 908 q 871 867 764 908 l 850 767 q 610 811 742 811 q 204 428 289 811 q 188 297 188 356 q 251 136 188 189 q 453 83 314 83 q 675 119 574 83 l 735 404 l 496 404 l 513 482 l 850 482 l 760 57 q 622 6 706 26 q 425 -14 539 -14 z "},"Ģ":{"ha":888,"x_min":76,"x_max":871,"o":"m 425 -14 q 167 71 257 -14 q 76 306 76 156 q 90 428 76 367 q 271 782 139 656 q 621 908 403 908 q 871 867 764 908 l 850 767 q 610 811 742 811 q 204 428 289 811 q 188 297 188 356 q 251 136 188 189 q 453 83 314 83 q 675 119 574 83 l 735 404 l 496 404 l 513 482 l 850 482 l 760 57 q 622 6 706 26 q 425 -14 539 -14 m 379 -65 l 482 -65 l 371 -311 l 288 -311 l 379 -65 z "},"Ġ":{"ha":888,"x_min":76,"x_max":871,"o":"m 594 1093 l 706 1093 l 683 986 l 572 986 l 594 1093 m 425 -14 q 167 71 257 -14 q 76 306 76 156 q 90 428 76 367 q 271 782 139 656 q 621 908 403 908 q 871 867 764 908 l 850 767 q 610 811 742 811 q 204 428 289 811 q 188 297 188 356 q 251 136 188 189 q 453 83 314 83 q 675 119 574 83 l 735 404 l 496 404 l 513 482 l 850 482 l 760 57 q 622 6 706 26 q 425 -14 539 -14 z "},"Ḡ":{"ha":888,"x_min":76,"x_max":871,"o":"m 449 1078 l 847 1078 l 831 996 l 432 996 l 449 1078 m 425 -14 q 167 71 257 -14 q 76 306 76 156 q 90 428 76 367 q 271 782 139 656 q 621 908 403 908 q 871 867 764 908 l 850 767 q 610 811 742 811 q 204 428 289 811 q 188 297 188 356 q 251 136 188 189 q 453 83 314 83 q 675 119 574 83 l 735 404 l 496 404 l 513 482 l 850 482 l 760 57 q 622 6 706 26 q 425 -14 539 -14 z "},"H":{"ha":894,"x_min":28,"x_max":917,"o":"m 217 894 l 331 894 l 246 492 l 718 492 l 803 894 l 917 894 l 728 0 l 614 0 l 699 403 l 226 403 l 142 0 l 28 0 l 217 894 z "},"Ħ":{"ha":894,"x_min":28,"x_max":963,"o":"m 164 644 l 76 644 l 96 735 l 182 735 l 217 894 l 331 894 l 296 735 l 768 735 l 803 894 l 917 894 l 882 735 l 963 735 l 943 644 l 864 644 l 728 0 l 614 0 l 699 403 l 226 403 l 142 0 l 28 0 l 164 644 m 718 492 l 750 644 l 278 644 l 246 492 l 718 492 z "},"Ḫ":{"ha":894,"x_min":28,"x_max":917,"o":"m 217 894 l 331 894 l 246 492 l 718 492 l 803 894 l 917 894 l 728 0 l 614 0 l 699 403 l 226 403 l 142 0 l 28 0 l 217 894 m 319 -272 q 213 -239 249 -272 q 176 -146 176 -206 q 182 -97 176 -119 l 258 -97 q 254 -136 254 -118 q 273 -184 254 -168 q 331 -200 292 -200 q 449 -97 426 -200 l 533 -97 q 463 -226 517 -179 q 319 -272 408 -272 z "},"Ĥ":{"ha":894,"x_min":28,"x_max":917,"o":"m 578 1161 l 669 1161 l 786 956 l 692 956 l 614 1097 l 478 956 l 376 956 l 578 1161 m 217 894 l 331 894 l 246 492 l 718 492 l 803 894 l 917 894 l 728 0 l 614 0 l 699 403 l 226 403 l 142 0 l 28 0 l 217 894 z "},"Ḥ":{"ha":894,"x_min":28,"x_max":917,"o":"m 217 894 l 331 894 l 246 492 l 718 492 l 803 894 l 917 894 l 728 0 l 614 0 l 699 403 l 226 403 l 142 0 l 28 0 l 217 894 m 299 -121 l 410 -121 l 388 -228 l 276 -228 l 299 -121 z "},"I":{"ha":308,"x_min":28,"x_max":331,"o":"m 217 894 l 331 894 l 142 0 l 28 0 l 217 894 z "},"Ĳ":{"ha":872,"x_min":28,"x_max":901,"o":"m 217 894 l 331 894 l 142 0 l 28 0 l 217 894 m 435 -14 q 254 18 328 -14 l 275 115 q 351 91 306 100 q 442 82 397 82 q 585 122 538 82 q 651 254 632 163 l 788 894 l 901 894 l 764 246 q 658 52 738 118 q 435 -14 579 -14 z "},"Í":{"ha":308,"x_min":28,"x_max":482,"o":"m 379 1189 l 482 1189 l 322 956 l 231 956 l 379 1189 m 217 894 l 331 894 l 142 0 l 28 0 l 217 894 z "},"Ĭ":{"ha":308,"x_min":28,"x_max":501,"o":"m 286 965 q 179 999 215 965 q 143 1093 143 1033 q 149 1140 143 1107 l 225 1140 q 221 1103 221 1119 q 299 1038 221 1038 q 417 1140 394 1038 l 501 1140 q 286 965 464 965 m 217 894 l 331 894 l 142 0 l 28 0 l 217 894 z "},"Ǐ":{"ha":308,"x_min":28,"x_max":532,"o":"m 122 1161 l 215 1161 l 292 1019 l 429 1161 l 532 1161 l 329 956 l 238 956 l 122 1161 m 217 894 l 331 894 l 142 0 l 28 0 l 217 894 z "},"Î":{"ha":308,"x_min":28,"x_max":493,"o":"m 285 1161 l 376 1161 l 493 956 l 399 956 l 321 1097 l 185 956 l 83 956 l 285 1161 m 217 894 l 331 894 l 142 0 l 28 0 l 217 894 z "},"Ï":{"ha":308,"x_min":28,"x_max":493,"o":"m 142 1094 l 249 1094 l 226 990 l 119 990 l 142 1094 m 385 1094 l 493 1094 l 471 990 l 363 990 l 385 1094 m 217 894 l 331 894 l 142 0 l 28 0 l 217 894 z "},"İ":{"ha":308,"x_min":28,"x_max":372,"o":"m 261 1096 l 372 1096 l 350 989 l 239 989 l 261 1096 m 217 894 l 331 894 l 142 0 l 28 0 l 217 894 z "},"Ị":{"ha":308,"x_min":-18,"x_max":331,"o":"m 217 894 l 331 894 l 142 0 l 28 0 l 217 894 m 4 -121 l 115 -121 l 93 -228 l -18 -228 l 4 -121 z "},"Ì":{"ha":308,"x_min":28,"x_max":336,"o":"m 185 1189 l 288 1189 l 336 956 l 244 956 l 185 1189 m 217 894 l 331 894 l 142 0 l 28 0 l 217 894 z "},"Ỉ":{"ha":308,"x_min":28,"x_max":500,"o":"m 265 1071 q 373 1090 344 1075 q 410 1143 401 1106 q 411 1161 411 1150 q 389 1195 411 1185 q 314 1206 367 1206 q 265 1201 292 1206 q 219 1189 238 1196 l 233 1260 q 290 1273 256 1268 q 356 1278 325 1278 q 461 1251 422 1278 q 500 1178 500 1225 q 497 1151 500 1168 q 450 1063 485 1093 q 346 1022 415 1032 l 332 956 l 240 956 l 265 1071 m 217 894 l 331 894 l 142 0 l 28 0 l 217 894 z "},"Ī":{"ha":308,"x_min":28,"x_max":514,"o":"m 114 1082 l 514 1082 l 497 1000 l 97 1000 l 114 1082 m 217 894 l 331 894 l 142 0 l 28 0 l 217 894 z "},"Į":{"ha":308,"x_min":-101,"x_max":331,"o":"m 14 -306 q -70 -283 -39 -306 q -101 -214 -101 -261 q -60 -96 -101 -154 q 44 0 -18 -37 l 28 0 l 217 894 l 331 894 l 142 0 l 133 0 q 42 -79 76 -36 q -1 -167 8 -122 q -4 -187 -4 -181 q 10 -218 -4 -210 q 56 -226 25 -226 q 94 -222 74 -226 q 126 -211 114 -218 l 110 -289 q 14 -306 75 -306 z "},"Ĩ":{"ha":308,"x_min":28,"x_max":528,"o":"m 393 963 q 345 969 368 963 q 289 990 322 976 q 204 1015 233 1015 q 79 967 129 1015 l 97 1054 q 153 1084 118 1072 q 222 1096 189 1096 q 272 1089 249 1096 q 322 1068 294 1082 q 369 1049 350 1056 q 411 1043 389 1043 q 528 1093 482 1043 l 510 1004 q 460 974 492 985 q 393 963 428 963 m 217 894 l 331 894 l 142 0 l 28 0 l 217 894 z "},"J":{"ha":593,"x_min":-25,"x_max":622,"o":"m 156 -14 q -25 18 49 -14 l -4 115 q 72 91 26 100 q 163 82 118 82 q 306 122 258 82 q 372 254 353 163 l 508 894 l 622 894 l 485 246 q 379 52 458 118 q 156 -14 300 -14 z "},"Ĵ":{"ha":593,"x_min":-25,"x_max":782,"o":"m 574 1161 l 665 1161 l 782 956 l 688 956 l 610 1097 l 474 956 l 372 956 l 574 1161 m 156 -14 q -25 18 49 -14 l -4 115 q 72 91 26 100 q 163 82 118 82 q 306 122 258 82 q 372 254 353 163 l 508 894 l 622 894 l 485 246 q 379 52 458 118 q 156 -14 300 -14 z "},"K":{"ha":843,"x_min":28,"x_max":882,"o":"m 217 894 l 331 894 l 238 451 l 749 894 l 882 894 l 474 536 l 704 0 l 582 0 l 385 463 l 207 308 l 142 0 l 28 0 l 217 894 z "},"Ķ":{"ha":843,"x_min":28,"x_max":882,"o":"m 217 894 l 331 894 l 238 451 l 749 894 l 882 894 l 474 536 l 704 0 l 582 0 l 385 463 l 207 308 l 142 0 l 28 0 l 217 894 m 301 -51 l 404 -51 l 293 -297 l 210 -297 l 301 -51 z "},"L":{"ha":729,"x_min":28,"x_max":636,"o":"m 217 894 l 331 894 l 160 89 l 636 89 l 618 0 l 28 0 l 217 894 z "},"Ĺ":{"ha":729,"x_min":28,"x_max":636,"o":"m 379 1189 l 482 1189 l 322 956 l 231 956 l 379 1189 m 217 894 l 331 894 l 160 89 l 636 89 l 618 0 l 28 0 l 217 894 z "},"Ľ":{"ha":729,"x_min":28,"x_max":710,"o":"m 607 1035 l 710 1035 l 599 789 l 515 789 l 607 1035 m 217 894 l 331 894 l 160 89 l 636 89 l 618 0 l 28 0 l 217 894 z "},"Ļ":{"ha":729,"x_min":28,"x_max":636,"o":"m 217 894 l 331 894 l 160 89 l 636 89 l 618 0 l 28 0 l 217 894 m 265 -51 l 368 -51 l 257 -297 l 174 -297 l 265 -51 z "},"Ŀ":{"ha":729,"x_min":28,"x_max":636,"o":"m 217 894 l 331 894 l 160 89 l 636 89 l 618 0 l 28 0 l 217 894 m 479 467 l 590 467 l 568 360 l 457 360 l 479 467 z "},"Ḷ":{"ha":729,"x_min":28,"x_max":636,"o":"m 217 894 l 331 894 l 160 89 l 636 89 l 618 0 l 28 0 l 217 894 m 232 -121 l 343 -121 l 321 -228 l 210 -228 l 232 -121 z "},"Ḹ":{"ha":729,"x_min":28,"x_max":636,"o":"m 118 1078 l 517 1078 l 500 996 l 101 996 l 118 1078 m 217 894 l 331 894 l 160 89 l 636 89 l 618 0 l 28 0 l 217 894 m 232 -121 l 343 -121 l 321 -228 l 210 -228 l 232 -121 z "},"Ḻ":{"ha":729,"x_min":28,"x_max":636,"o":"m 217 894 l 331 894 l 160 89 l 636 89 l 618 0 l 28 0 l 217 894 m 79 -101 l 478 -101 l 461 -183 l 63 -183 l 79 -101 z "},"Ł":{"ha":729,"x_min":-43,"x_max":636,"o":"m 108 386 l -43 325 l -22 424 l 129 485 l 217 894 l 331 894 l 254 535 l 458 617 l 438 518 l 233 436 l 160 89 l 636 89 l 618 0 l 28 0 l 108 386 z "},"M":{"ha":1044,"x_min":28,"x_max":1067,"o":"m 217 894 l 333 894 l 504 274 l 939 894 l 1067 894 l 878 0 l 765 0 l 917 717 l 524 156 l 447 156 l 292 717 l 140 0 l 28 0 l 217 894 z "},"Ṃ":{"ha":1044,"x_min":28,"x_max":1067,"o":"m 217 894 l 333 894 l 504 274 l 939 894 l 1067 894 l 878 0 l 765 0 l 917 717 l 524 156 l 447 156 l 292 717 l 140 0 l 28 0 l 217 894 m 372 -121 l 483 -121 l 461 -228 l 350 -228 l 372 -121 z "},"N":{"ha":921,"x_min":28,"x_max":943,"o":"m 217 894 l 319 894 l 676 175 l 829 894 l 943 894 l 754 0 l 650 0 l 293 718 l 142 0 l 28 0 l 217 894 z "},"Ń":{"ha":921,"x_min":28,"x_max":943,"o":"m 693 1189 l 796 1189 l 636 956 l 544 956 l 693 1189 m 217 894 l 319 894 l 676 175 l 829 894 l 943 894 l 754 0 l 650 0 l 293 718 l 142 0 l 28 0 l 217 894 z "},"Ň":{"ha":921,"x_min":28,"x_max":943,"o":"m 453 1161 l 546 1161 l 622 1019 l 760 1161 l 863 1161 l 660 956 l 568 956 l 453 1161 m 217 894 l 319 894 l 676 175 l 829 894 l 943 894 l 754 0 l 650 0 l 293 718 l 142 0 l 28 0 l 217 894 z "},"Ņ":{"ha":921,"x_min":28,"x_max":943,"o":"m 217 894 l 319 894 l 676 175 l 829 894 l 943 894 l 754 0 l 650 0 l 293 718 l 142 0 l 28 0 l 217 894 m 346 -51 l 449 -51 l 338 -297 l 254 -297 l 346 -51 z "},"Ṅ":{"ha":921,"x_min":28,"x_max":943,"o":"m 585 1093 l 696 1093 l 674 986 l 563 986 l 585 1093 m 217 894 l 319 894 l 676 175 l 829 894 l 943 894 l 754 0 l 650 0 l 293 718 l 142 0 l 28 0 l 217 894 z "},"Ṇ":{"ha":921,"x_min":28,"x_max":943,"o":"m 217 894 l 319 894 l 676 175 l 829 894 l 943 894 l 754 0 l 650 0 l 293 718 l 142 0 l 28 0 l 217 894 m 310 -121 l 421 -121 l 399 -228 l 288 -228 l 310 -121 z "},"Ŋ":{"ha":921,"x_min":28,"x_max":943,"o":"m 483 -325 q 364 -306 414 -325 l 383 -215 q 464 -229 424 -229 q 569 -205 538 -229 q 614 -121 601 -181 l 643 14 l 293 718 l 142 0 l 28 0 l 217 894 l 319 894 l 676 175 l 829 894 l 943 894 l 726 -131 q 644 -274 706 -222 q 483 -325 583 -325 z "},"Ṉ":{"ha":921,"x_min":28,"x_max":943,"o":"m 217 894 l 319 894 l 676 175 l 829 894 l 943 894 l 754 0 l 650 0 l 293 718 l 142 0 l 28 0 l 217 894 m 178 -99 l 576 -99 l 560 -181 l 161 -181 l 178 -99 z "},"Ñ":{"ha":921,"x_min":28,"x_max":943,"o":"m 700 983 q 652 990 675 983 q 596 1011 629 997 q 511 1036 540 1036 q 386 988 436 1036 l 404 1075 q 460 1105 425 1093 q 529 1117 496 1117 q 578 1110 556 1117 q 629 1089 601 1103 q 676 1070 657 1076 q 718 1064 696 1064 q 835 1114 789 1064 l 817 1025 q 767 994 799 1006 q 700 983 735 983 m 217 894 l 319 894 l 676 175 l 829 894 l 943 894 l 754 0 l 650 0 l 293 718 l 142 0 l 28 0 l 217 894 z "},"O":{"ha":964,"x_min":75,"x_max":939,"o":"m 408 -14 q 159 59 243 -14 q 75 283 75 132 q 94 447 75 353 q 266 799 146 689 q 606 908 386 908 q 855 835 771 908 q 939 610 939 763 q 919 447 939 542 q 747 97 868 207 q 408 -14 625 -14 m 429 83 q 674 167 585 83 q 806 447 764 250 q 826 611 826 543 q 769 765 826 718 q 585 811 713 811 q 340 728 429 811 q 208 447 250 644 q 188 282 188 350 q 244 129 188 175 q 429 83 301 83 z "},"Ó":{"ha":964,"x_min":75,"x_max":939,"o":"m 715 1189 l 818 1189 l 658 956 l 567 956 l 715 1189 m 408 -14 q 159 59 243 -14 q 75 283 75 132 q 94 447 75 353 q 266 799 146 689 q 606 908 386 908 q 855 835 771 908 q 939 610 939 763 q 919 447 939 542 q 747 97 868 207 q 408 -14 625 -14 m 429 83 q 674 167 585 83 q 806 447 764 250 q 826 611 826 543 q 769 765 826 718 q 585 811 713 811 q 340 728 429 811 q 208 447 250 644 q 188 282 188 350 q 244 129 188 175 q 429 83 301 83 z "},"Ŏ":{"ha":964,"x_min":75,"x_max":939,"o":"m 613 956 q 506 990 542 956 q 469 1083 469 1024 q 475 1131 469 1097 l 551 1131 q 547 1093 547 1110 q 625 1028 547 1028 q 743 1131 721 1028 l 828 1131 q 613 956 790 956 m 408 -14 q 159 59 243 -14 q 75 283 75 132 q 94 447 75 353 q 266 799 146 689 q 606 908 386 908 q 855 835 771 908 q 939 610 939 763 q 919 447 939 542 q 747 97 868 207 q 408 -14 625 -14 m 429 83 q 674 167 585 83 q 806 447 764 250 q 826 611 826 543 q 769 765 826 718 q 585 811 713 811 q 340 728 429 811 q 208 447 250 644 q 188 282 188 350 q 244 129 188 175 q 429 83 301 83 z "},"Ǒ":{"ha":964,"x_min":75,"x_max":939,"o":"m 454 1161 l 547 1161 l 624 1019 l 761 1161 l 864 1161 l 661 956 l 569 956 l 454 1161 m 408 -14 q 159 59 243 -14 q 75 283 75 132 q 94 447 75 353 q 266 799 146 689 q 606 908 386 908 q 855 835 771 908 q 939 610 939 763 q 919 447 939 542 q 747 97 868 207 q 408 -14 625 -14 m 429 83 q 674 167 585 83 q 806 447 764 250 q 826 611 826 543 q 769 765 826 718 q 585 811 713 811 q 340 728 429 811 q 208 447 250 644 q 188 282 188 350 q 244 129 188 175 q 429 83 301 83 z "},"Ô":{"ha":964,"x_min":75,"x_max":939,"o":"m 613 1161 l 704 1161 l 821 956 l 726 956 l 649 1097 l 513 956 l 411 956 l 613 1161 m 408 -14 q 159 59 243 -14 q 75 283 75 132 q 94 447 75 353 q 266 799 146 689 q 606 908 386 908 q 855 835 771 908 q 939 610 939 763 q 919 447 939 542 q 747 97 868 207 q 408 -14 625 -14 m 429 83 q 674 167 585 83 q 806 447 764 250 q 826 611 826 543 q 769 765 826 718 q 585 811 713 811 q 340 728 429 811 q 208 447 250 644 q 188 282 188 350 q 244 129 188 175 q 429 83 301 83 z "},"Ố":{"ha":964,"x_min":75,"x_max":976,"o":"m 886 1281 l 976 1281 l 846 1107 l 764 1107 l 886 1281 m 610 1119 l 701 1119 l 821 956 l 728 956 l 649 1071 l 521 956 l 421 956 l 610 1119 m 408 -14 q 159 59 243 -14 q 75 283 75 132 q 94 447 75 353 q 266 799 146 689 q 606 908 386 908 q 855 835 771 908 q 939 610 939 763 q 919 447 939 542 q 747 97 868 207 q 408 -14 625 -14 m 429 83 q 674 167 585 83 q 806 447 764 250 q 826 611 826 543 q 769 765 826 718 q 585 811 713 811 q 340 728 429 811 q 208 447 250 644 q 188 282 188 350 q 244 129 188 175 q 429 83 301 83 z "},"Ộ":{"ha":964,"x_min":75,"x_max":939,"o":"m 613 1161 l 704 1161 l 821 956 l 726 956 l 649 1097 l 513 956 l 411 956 l 613 1161 m 408 -14 q 159 59 243 -14 q 75 283 75 132 q 94 447 75 353 q 266 799 146 689 q 606 908 386 908 q 855 835 771 908 q 939 610 939 763 q 919 447 939 542 q 747 97 868 207 q 408 -14 625 -14 m 429 83 q 674 167 585 83 q 806 447 764 250 q 826 611 826 543 q 769 765 826 718 q 585 811 713 811 q 340 728 429 811 q 208 447 250 644 q 188 282 188 350 q 244 129 188 175 q 429 83 301 83 m 332 -121 l 443 -121 l 421 -228 l 310 -228 l 332 -121 z "},"Ồ":{"ha":964,"x_min":75,"x_max":939,"o":"m 381 1281 l 471 1281 l 519 1107 l 438 1107 l 381 1281 m 588 1119 l 679 1119 l 797 956 l 704 956 l 626 1071 l 497 956 l 399 956 l 588 1119 m 408 -14 q 159 59 243 -14 q 75 283 75 132 q 94 447 75 353 q 266 799 146 689 q 606 908 386 908 q 855 835 771 908 q 939 610 939 763 q 919 447 939 542 q 747 97 868 207 q 408 -14 625 -14 m 429 83 q 674 167 585 83 q 806 447 764 250 q 826 611 826 543 q 769 765 826 718 q 585 811 713 811 q 340 728 429 811 q 208 447 250 644 q 188 282 188 350 q 244 129 188 175 q 429 83 301 83 z "},"Ổ":{"ha":964,"x_min":75,"x_max":990,"o":"m 781 1165 q 872 1181 847 1168 q 903 1224 897 1194 q 904 1238 904 1229 q 844 1274 904 1274 q 763 1257 806 1274 l 775 1317 q 876 1333 822 1333 q 960 1313 931 1333 q 990 1253 990 1292 q 988 1229 990 1246 q 946 1158 978 1183 q 856 1126 914 1133 l 846 1078 l 763 1078 l 781 1165 m 603 1119 l 694 1119 l 814 956 l 721 956 l 642 1071 l 514 956 l 414 956 l 603 1119 m 408 -14 q 159 59 243 -14 q 75 283 75 132 q 94 447 75 353 q 266 799 146 689 q 606 908 386 908 q 855 835 771 908 q 939 610 939 763 q 919 447 939 542 q 747 97 868 207 q 408 -14 625 -14 m 429 83 q 674 167 585 83 q 806 447 764 250 q 826 611 826 543 q 769 765 826 718 q 585 811 713 811 q 340 728 429 811 q 208 447 250 644 q 188 282 188 350 q 244 129 188 175 q 429 83 301 83 z "},"Ỗ":{"ha":964,"x_min":75,"x_max":939,"o":"m 761 1179 q 719 1185 739 1179 q 665 1206 700 1192 q 622 1222 639 1217 q 586 1228 604 1228 q 471 1183 517 1228 l 488 1261 q 539 1288 506 1278 q 601 1299 572 1299 q 647 1292 625 1299 q 694 1274 668 1286 q 775 1250 742 1250 q 883 1296 839 1250 l 867 1217 q 822 1190 851 1200 q 761 1179 793 1179 m 615 956 q 493 991 539 956 q 447 1099 447 1026 q 453 1150 447 1126 l 524 1150 q 518 1104 518 1128 q 544 1042 518 1063 q 628 1022 569 1022 q 733 1054 692 1022 q 788 1150 774 1086 l 861 1150 q 774 1002 839 1049 q 615 956 710 956 m 408 -14 q 159 59 243 -14 q 75 283 75 132 q 94 447 75 353 q 266 799 146 689 q 606 908 386 908 q 855 835 771 908 q 939 610 939 763 q 919 447 939 542 q 747 97 868 207 q 408 -14 625 -14 m 429 83 q 674 167 585 83 q 806 447 764 250 q 826 611 826 543 q 769 765 826 718 q 585 811 713 811 q 340 728 429 811 q 208 447 250 644 q 188 282 188 350 q 244 129 188 175 q 429 83 301 83 z "},"Ö":{"ha":964,"x_min":75,"x_max":939,"o":"m 468 1092 l 575 1092 l 553 988 l 446 988 l 468 1092 m 711 1092 l 819 1092 l 797 988 l 689 988 l 711 1092 m 408 -14 q 159 59 243 -14 q 75 283 75 132 q 94 447 75 353 q 266 799 146 689 q 606 908 386 908 q 855 835 771 908 q 939 610 939 763 q 919 447 939 542 q 747 97 868 207 q 408 -14 625 -14 m 429 83 q 674 167 585 83 q 806 447 764 250 q 826 611 826 543 q 769 765 826 718 q 585 811 713 811 q 340 728 429 811 q 208 447 250 644 q 188 282 188 350 q 244 129 188 175 q 429 83 301 83 z "},"Ọ":{"ha":964,"x_min":75,"x_max":939,"o":"m 408 -14 q 159 59 243 -14 q 75 283 75 132 q 94 447 75 353 q 266 799 146 689 q 606 908 386 908 q 855 835 771 908 q 939 610 939 763 q 919 447 939 542 q 747 97 868 207 q 408 -14 625 -14 m 429 83 q 674 167 585 83 q 806 447 764 250 q 826 611 826 543 q 769 765 826 718 q 585 811 713 811 q 340 728 429 811 q 208 447 250 644 q 188 282 188 350 q 244 129 188 175 q 429 83 301 83 m 332 -121 l 443 -121 l 421 -228 l 310 -228 l 332 -121 z "},"Ò":{"ha":964,"x_min":75,"x_max":939,"o":"m 518 1189 l 621 1189 l 669 956 l 578 956 l 518 1189 m 408 -14 q 159 59 243 -14 q 75 283 75 132 q 94 447 75 353 q 266 799 146 689 q 606 908 386 908 q 855 835 771 908 q 939 610 939 763 q 919 447 939 542 q 747 97 868 207 q 408 -14 625 -14 m 429 83 q 674 167 585 83 q 806 447 764 250 q 826 611 826 543 q 769 765 826 718 q 585 811 713 811 q 340 728 429 811 q 208 447 250 644 q 188 282 188 350 q 244 129 188 175 q 429 83 301 83 z "},"Ỏ":{"ha":964,"x_min":75,"x_max":939,"o":"m 597 1071 q 705 1090 676 1075 q 742 1143 733 1106 q 743 1161 743 1150 q 721 1195 743 1185 q 646 1206 699 1206 q 597 1201 624 1206 q 551 1189 569 1196 l 565 1260 q 622 1273 588 1268 q 688 1278 657 1278 q 793 1251 754 1278 q 832 1178 832 1225 q 829 1151 832 1168 q 782 1063 817 1093 q 678 1022 747 1032 l 664 956 l 572 956 l 597 1071 m 408 -14 q 159 59 243 -14 q 75 283 75 132 q 94 447 75 353 q 266 799 146 689 q 606 908 386 908 q 855 835 771 908 q 939 610 939 763 q 919 447 939 542 q 747 97 868 207 q 408 -14 625 -14 m 429 83 q 674 167 585 83 q 806 447 764 250 q 826 611 826 543 q 769 765 826 718 q 585 811 713 811 q 340 728 429 811 q 208 447 250 644 q 188 282 188 350 q 244 129 188 175 q 429 83 301 83 z "},"Ơ":{"ha":1056,"x_min":75,"x_max":1161,"o":"m 408 -14 q 159 59 243 -14 q 75 283 75 132 q 94 447 75 353 q 266 799 146 689 q 606 908 386 908 q 889 796 811 908 q 1006 831 968 797 q 1063 956 1043 864 l 1161 956 q 1077 778 1135 838 q 928 707 1019 719 q 939 610 939 660 q 919 447 939 540 q 747 97 868 207 q 408 -14 625 -14 m 429 83 q 674 167 585 83 q 806 447 764 250 q 826 611 826 543 q 769 765 826 718 q 585 811 713 811 q 340 728 429 811 q 208 447 250 644 q 188 282 188 350 q 244 129 188 175 q 429 83 301 83 z "},"Ớ":{"ha":1056,"x_min":75,"x_max":1161,"o":"m 733 1189 l 836 1189 l 676 956 l 585 956 l 733 1189 m 408 -14 q 159 59 243 -14 q 75 283 75 132 q 94 447 75 353 q 266 799 146 689 q 606 908 386 908 q 889 796 811 908 q 1006 831 968 797 q 1063 956 1043 864 l 1161 956 q 1077 778 1135 838 q 928 707 1019 719 q 939 610 939 660 q 919 447 939 540 q 747 97 868 207 q 408 -14 625 -14 m 429 83 q 674 167 585 83 q 806 447 764 250 q 826 611 826 543 q 769 765 826 718 q 585 811 713 811 q 340 728 429 811 q 208 447 250 644 q 188 282 188 350 q 244 129 188 175 q 429 83 301 83 z "},"Ợ":{"ha":1056,"x_min":75,"x_max":1161,"o":"m 408 -14 q 159 59 243 -14 q 75 283 75 132 q 94 447 75 353 q 266 799 146 689 q 606 908 386 908 q 889 796 811 908 q 1006 831 968 797 q 1063 956 1043 864 l 1161 956 q 1077 778 1135 838 q 928 707 1019 719 q 939 610 939 660 q 919 447 939 540 q 747 97 868 207 q 408 -14 625 -14 m 429 83 q 674 167 585 83 q 806 447 764 250 q 826 611 826 543 q 769 765 826 718 q 585 811 713 811 q 340 728 429 811 q 208 447 250 644 q 188 282 188 350 q 244 129 188 175 q 429 83 301 83 m 338 -121 l 449 -121 l 426 -228 l 315 -228 l 338 -121 z "},"Ờ":{"ha":1056,"x_min":75,"x_max":1161,"o":"m 533 1189 l 636 1189 l 685 956 l 593 956 l 533 1189 m 408 -14 q 159 59 243 -14 q 75 283 75 132 q 94 447 75 353 q 266 799 146 689 q 606 908 386 908 q 889 796 811 908 q 1006 831 968 797 q 1063 956 1043 864 l 1161 956 q 1077 778 1135 838 q 928 707 1019 719 q 939 610 939 660 q 919 447 939 540 q 747 97 868 207 q 408 -14 625 -14 m 429 83 q 674 167 585 83 q 806 447 764 250 q 826 611 826 543 q 769 765 826 718 q 585 811 713 811 q 340 728 429 811 q 208 447 250 644 q 188 282 188 350 q 244 129 188 175 q 429 83 301 83 z "},"Ở":{"ha":1056,"x_min":75,"x_max":1161,"o":"m 606 1071 q 713 1090 685 1075 q 750 1143 742 1106 q 751 1161 751 1150 q 729 1195 751 1185 q 654 1206 707 1206 q 605 1201 632 1206 q 560 1189 578 1196 l 574 1260 q 631 1273 596 1268 q 696 1278 665 1278 q 801 1251 763 1278 q 840 1178 840 1225 q 838 1151 840 1168 q 790 1063 825 1093 q 686 1022 756 1032 l 672 956 l 581 956 l 606 1071 m 408 -14 q 159 59 243 -14 q 75 283 75 132 q 94 447 75 353 q 266 799 146 689 q 606 908 386 908 q 889 796 811 908 q 1006 831 968 797 q 1063 956 1043 864 l 1161 956 q 1077 778 1135 838 q 928 707 1019 719 q 939 610 939 660 q 919 447 939 540 q 747 97 868 207 q 408 -14 625 -14 m 429 83 q 674 167 585 83 q 806 447 764 250 q 826 611 826 543 q 769 765 826 718 q 585 811 713 811 q 340 728 429 811 q 208 447 250 644 q 188 282 188 350 q 244 129 188 175 q 429 83 301 83 z "},"Ỡ":{"ha":1056,"x_min":75,"x_max":1161,"o":"m 747 982 q 699 989 722 982 q 643 1010 676 996 q 558 1035 588 1035 q 433 986 483 1035 l 451 1074 q 508 1103 472 1092 q 576 1115 543 1115 q 626 1108 603 1115 q 676 1088 649 1101 q 724 1069 704 1075 q 765 1063 743 1063 q 882 1113 836 1063 l 864 1024 q 814 993 846 1004 q 747 982 782 982 m 408 -14 q 159 59 243 -14 q 75 283 75 132 q 94 447 75 353 q 266 799 146 689 q 606 908 386 908 q 889 796 811 908 q 1006 831 968 797 q 1063 956 1043 864 l 1161 956 q 1077 778 1135 838 q 928 707 1019 719 q 939 610 939 660 q 919 447 939 540 q 747 97 868 207 q 408 -14 625 -14 m 429 83 q 674 167 585 83 q 806 447 764 250 q 826 611 826 543 q 769 765 826 718 q 585 811 713 811 q 340 728 429 811 q 208 447 250 644 q 188 282 188 350 q 244 129 188 175 q 429 83 301 83 z "},"Ő":{"ha":964,"x_min":75,"x_max":939,"o":"m 538 1167 l 646 1167 l 490 956 l 396 956 l 538 1167 m 824 1167 l 932 1167 l 775 956 l 681 956 l 824 1167 m 408 -14 q 159 59 243 -14 q 75 283 75 132 q 94 447 75 353 q 266 799 146 689 q 606 908 386 908 q 855 835 771 908 q 939 610 939 763 q 919 447 939 542 q 747 97 868 207 q 408 -14 625 -14 m 429 83 q 674 167 585 83 q 806 447 764 250 q 826 611 826 543 q 769 765 826 718 q 585 811 713 811 q 340 728 429 811 q 208 447 250 644 q 188 282 188 350 q 244 129 188 175 q 429 83 301 83 z "},"Ō":{"ha":964,"x_min":75,"x_max":939,"o":"m 442 1082 l 840 1082 l 824 1000 l 425 1000 l 442 1082 m 408 -14 q 159 59 243 -14 q 75 283 75 132 q 94 447 75 353 q 266 799 146 689 q 606 908 386 908 q 855 835 771 908 q 939 610 939 763 q 919 447 939 542 q 747 97 868 207 q 408 -14 625 -14 m 429 83 q 674 167 585 83 q 806 447 764 250 q 826 611 826 543 q 769 765 826 718 q 585 811 713 811 q 340 728 429 811 q 208 447 250 644 q 188 282 188 350 q 244 129 188 175 q 429 83 301 83 z "},"Ø":{"ha":964,"x_min":75,"x_max":939,"o":"m 207 26 q 75 283 75 94 q 94 447 75 353 q 266 799 146 689 q 606 908 386 908 q 713 899 657 908 l 750 963 l 850 963 l 797 872 q 939 608 939 804 q 919 447 939 540 q 747 97 868 207 q 408 -14 625 -14 q 289 -1 343 -14 l 249 -74 l 149 -74 l 207 26 m 660 806 q 585 811 613 811 q 340 728 429 811 q 208 447 250 644 q 186 281 186 343 q 260 117 186 161 l 660 806 m 429 83 q 674 167 585 83 q 806 447 764 250 q 826 610 826 543 q 806 715 826 674 q 744 781 786 757 l 343 89 q 429 83 376 83 z "},"Ǿ":{"ha":964,"x_min":75,"x_max":939,"o":"m 700 1189 l 803 1189 l 643 956 l 551 956 l 700 1189 m 207 26 q 75 283 75 94 q 94 447 75 353 q 266 799 146 689 q 606 908 386 908 q 713 899 657 908 l 750 963 l 850 963 l 797 872 q 939 608 939 804 q 919 447 939 540 q 747 97 868 207 q 408 -14 625 -14 q 289 -1 343 -14 l 249 -74 l 149 -74 l 207 26 m 660 806 q 585 811 613 811 q 340 728 429 811 q 208 447 250 644 q 186 281 186 343 q 260 117 186 161 l 660 806 m 429 83 q 674 167 585 83 q 806 447 764 250 q 826 610 826 543 q 806 715 826 674 q 744 781 786 757 l 343 89 q 429 83 376 83 z "},"Õ":{"ha":964,"x_min":75,"x_max":939,"o":"m 726 990 q 678 997 701 990 q 622 1018 656 1004 q 538 1043 567 1043 q 413 994 463 1043 l 431 1082 q 487 1112 451 1100 q 556 1124 522 1124 q 605 1117 582 1124 q 656 1096 628 1110 q 703 1077 683 1083 q 744 1071 722 1071 q 861 1121 815 1071 l 843 1032 q 793 1001 825 1013 q 726 990 761 990 m 408 -14 q 159 59 243 -14 q 75 283 75 132 q 94 447 75 353 q 266 799 146 689 q 606 908 386 908 q 855 835 771 908 q 939 610 939 763 q 919 447 939 542 q 747 97 868 207 q 408 -14 625 -14 m 429 83 q 674 167 585 83 q 806 447 764 250 q 826 611 826 543 q 769 765 826 718 q 585 811 713 811 q 340 728 429 811 q 208 447 250 644 q 188 282 188 350 q 244 129 188 175 q 429 83 301 83 z "},"Œ":{"ha":1454,"x_min":75,"x_max":1504,"o":"m 408 -14 q 159 59 243 -14 q 75 283 75 132 q 94 447 75 353 q 266 799 146 689 q 606 908 386 908 q 879 796 800 908 l 900 894 l 1504 894 l 1486 804 l 996 804 l 929 492 l 1369 492 l 1350 403 l 910 403 l 843 89 l 1333 89 l 1315 0 l 711 0 l 731 90 q 408 -14 618 -14 m 429 83 q 674 167 585 83 q 806 447 764 250 q 826 611 826 543 q 769 765 826 718 q 585 811 713 811 q 340 728 429 811 q 208 447 250 644 q 188 282 188 350 q 244 129 188 175 q 429 83 301 83 z "},"P":{"ha":808,"x_min":28,"x_max":833,"o":"m 217 894 l 582 894 q 768 836 703 894 q 833 678 833 778 q 825 606 833 643 q 709 397 797 471 q 468 324 621 324 l 210 324 l 142 0 l 28 0 l 217 894 m 469 413 q 634 462 576 413 q 711 606 692 511 q 721 679 721 654 q 683 773 721 742 q 560 804 644 804 l 313 804 l 229 413 l 469 413 z "},"Þ":{"ha":808,"x_min":28,"x_max":799,"o":"m 217 894 l 331 894 l 296 731 l 550 731 q 734 672 669 731 q 799 514 799 614 q 792 444 799 476 q 433 160 731 160 l 175 160 l 142 0 l 28 0 l 217 894 m 435 249 q 599 300 539 249 q 678 444 660 351 q 686 514 686 485 q 648 610 686 579 q 524 640 610 640 l 276 640 l 194 249 l 435 249 z "},"Q":{"ha":964,"x_min":75,"x_max":939,"o":"m 492 -239 q 342 -85 342 -239 q 349 -11 342 -57 q 144 73 213 0 q 75 283 75 146 q 94 447 75 353 q 266 799 146 689 q 606 908 386 908 q 855 835 771 908 q 939 610 939 763 q 919 447 939 542 q 760 110 871 221 q 458 -12 650 -1 q 451 -75 451 -54 q 470 -126 451 -111 q 535 -142 489 -142 q 636 -128 585 -142 l 615 -224 q 492 -239 557 -239 m 429 83 q 674 167 585 83 q 806 447 764 250 q 826 611 826 543 q 769 765 826 718 q 585 811 713 811 q 340 728 429 811 q 208 447 250 644 q 188 282 188 350 q 244 129 188 175 q 429 83 301 83 z "},"R":{"ha":836,"x_min":28,"x_max":835,"o":"m 217 894 l 599 894 q 773 836 711 894 q 835 683 835 778 q 828 617 835 654 q 744 452 807 517 q 583 365 682 388 q 617 330 607 350 q 636 269 626 310 l 696 0 l 579 0 l 519 260 q 487 321 510 304 q 401 338 464 338 l 213 338 l 142 0 l 28 0 l 217 894 m 479 426 q 714 617 672 426 q 722 685 722 654 q 687 774 722 744 q 575 804 651 804 l 313 804 l 232 426 l 479 426 z "},"Ŕ":{"ha":836,"x_min":28,"x_max":835,"o":"m 622 1189 l 725 1189 l 565 956 l 474 956 l 622 1189 m 217 894 l 599 894 q 773 836 711 894 q 835 683 835 778 q 828 617 835 654 q 744 452 807 517 q 583 365 682 388 q 617 330 607 350 q 636 269 626 310 l 696 0 l 579 0 l 519 260 q 487 321 510 304 q 401 338 464 338 l 213 338 l 142 0 l 28 0 l 217 894 m 479 426 q 714 617 672 426 q 722 685 722 654 q 687 774 722 744 q 575 804 651 804 l 313 804 l 232 426 l 479 426 z "},"Ř":{"ha":836,"x_min":28,"x_max":835,"o":"m 374 1161 l 467 1161 l 543 1019 l 681 1161 l 783 1161 l 581 956 l 489 956 l 374 1161 m 217 894 l 599 894 q 773 836 711 894 q 835 683 835 778 q 828 617 835 654 q 744 452 807 517 q 583 365 682 388 q 617 330 607 350 q 636 269 626 310 l 696 0 l 579 0 l 519 260 q 487 321 510 304 q 401 338 464 338 l 213 338 l 142 0 l 28 0 l 217 894 m 479 426 q 714 617 672 426 q 722 685 722 654 q 687 774 722 744 q 575 804 651 804 l 313 804 l 232 426 l 479 426 z "},"Ŗ":{"ha":836,"x_min":28,"x_max":835,"o":"m 217 894 l 599 894 q 773 836 711 894 q 835 683 835 778 q 828 617 835 654 q 744 452 807 517 q 583 365 682 388 q 617 330 607 350 q 636 269 626 310 l 696 0 l 579 0 l 519 260 q 487 321 510 304 q 401 338 464 338 l 213 338 l 142 0 l 28 0 l 217 894 m 479 426 q 714 617 672 426 q 722 685 722 654 q 687 774 722 744 q 575 804 651 804 l 313 804 l 232 426 l 479 426 m 290 -51 l 393 -51 l 282 -297 l 199 -297 l 290 -51 z "},"Ṛ":{"ha":836,"x_min":28,"x_max":835,"o":"m 217 894 l 599 894 q 773 836 711 894 q 835 683 835 778 q 828 617 835 654 q 744 452 807 517 q 583 365 682 388 q 617 330 607 350 q 636 269 626 310 l 696 0 l 579 0 l 519 260 q 487 321 510 304 q 401 338 464 338 l 213 338 l 142 0 l 28 0 l 217 894 m 479 426 q 714 617 672 426 q 722 685 722 654 q 687 774 722 744 q 575 804 651 804 l 313 804 l 232 426 l 479 426 m 268 -121 l 379 -121 l 357 -228 l 246 -228 l 268 -121 z "},"Ṝ":{"ha":836,"x_min":28,"x_max":835,"o":"m 367 1078 l 765 1078 l 749 996 l 350 996 l 367 1078 m 217 894 l 599 894 q 773 836 711 894 q 835 683 835 778 q 828 617 835 654 q 744 452 807 517 q 583 365 682 388 q 617 330 607 350 q 636 269 626 310 l 696 0 l 579 0 l 519 260 q 487 321 510 304 q 401 338 464 338 l 213 338 l 142 0 l 28 0 l 217 894 m 479 426 q 714 617 672 426 q 722 685 722 654 q 687 774 722 744 q 575 804 651 804 l 313 804 l 232 426 l 479 426 m 268 -121 l 379 -121 l 357 -228 l 246 -228 l 268 -121 z "},"Ṟ":{"ha":836,"x_min":28,"x_max":835,"o":"m 217 894 l 599 894 q 773 836 711 894 q 835 683 835 778 q 828 617 835 654 q 744 452 807 517 q 583 365 682 388 q 617 330 607 350 q 636 269 626 310 l 696 0 l 579 0 l 519 260 q 487 321 510 304 q 401 338 464 338 l 213 338 l 142 0 l 28 0 l 217 894 m 479 426 q 714 617 672 426 q 722 685 722 654 q 687 774 722 744 q 575 804 651 804 l 313 804 l 232 426 l 479 426 m 114 -99 l 513 -99 l 496 -181 l 97 -181 l 114 -99 z "},"S":{"ha":772,"x_min":26,"x_max":764,"o":"m 286 -14 q 26 28 129 -14 l 47 129 q 297 83 161 83 q 485 117 421 83 q 568 233 549 150 q 574 275 574 254 q 551 334 574 311 q 485 374 529 357 q 354 414 442 390 q 186 492 238 446 q 135 610 135 539 q 140 663 135 639 q 258 844 164 781 q 525 908 353 908 q 662 898 597 908 q 764 874 726 888 l 743 774 q 522 811 646 811 q 338 776 404 811 q 254 663 271 742 q 250 628 250 644 q 270 574 250 596 q 333 535 290 553 q 457 497 376 518 q 634 414 579 464 q 689 290 689 364 q 682 233 689 268 q 560 49 657 111 q 286 -14 464 -14 z "},"Ś":{"ha":772,"x_min":26,"x_max":764,"o":"m 592 1189 l 694 1189 l 535 956 l 443 956 l 592 1189 m 286 -14 q 26 28 129 -14 l 47 129 q 297 83 161 83 q 485 117 421 83 q 568 233 549 150 q 574 275 574 254 q 551 334 574 311 q 485 374 529 357 q 354 414 442 390 q 186 492 238 446 q 135 610 135 539 q 140 663 135 639 q 258 844 164 781 q 525 908 353 908 q 662 898 597 908 q 764 874 726 888 l 743 774 q 522 811 646 811 q 338 776 404 811 q 254 663 271 742 q 250 628 250 644 q 270 574 250 596 q 333 535 290 553 q 457 497 376 518 q 634 414 579 464 q 689 290 689 364 q 682 233 689 268 q 560 49 657 111 q 286 -14 464 -14 z "},"Š":{"ha":772,"x_min":26,"x_max":793,"o":"m 383 1161 l 476 1161 l 553 1019 l 690 1161 l 793 1161 l 590 956 l 499 956 l 383 1161 m 286 -14 q 26 28 129 -14 l 47 129 q 297 83 161 83 q 485 117 421 83 q 568 233 549 150 q 574 275 574 254 q 551 334 574 311 q 485 374 529 357 q 354 414 442 390 q 186 492 238 446 q 135 610 135 539 q 140 663 135 639 q 258 844 164 781 q 525 908 353 908 q 662 898 597 908 q 764 874 726 888 l 743 774 q 522 811 646 811 q 338 776 404 811 q 254 663 271 742 q 250 628 250 644 q 270 574 250 596 q 333 535 290 553 q 457 497 376 518 q 634 414 579 464 q 689 290 689 364 q 682 233 689 268 q 560 49 657 111 q 286 -14 464 -14 z "},"Ş":{"ha":772,"x_min":26,"x_max":764,"o":"m 196 -333 q 145 -330 174 -333 q 101 -322 117 -326 l 117 -253 q 201 -264 154 -264 q 300 -248 268 -264 q 340 -190 332 -232 q 343 -172 343 -176 q 318 -135 343 -144 q 238 -126 293 -126 l 186 -126 l 246 -12 q 26 28 111 -8 l 47 129 q 297 83 161 83 q 485 117 421 83 q 568 233 549 150 q 574 275 574 254 q 551 334 574 311 q 485 374 529 357 q 354 414 442 390 q 186 492 238 446 q 135 610 135 539 q 140 663 135 639 q 258 844 164 781 q 525 908 353 908 q 662 898 597 908 q 764 874 726 888 l 743 774 q 522 811 646 811 q 338 776 404 811 q 254 663 271 742 q 250 628 250 644 q 270 574 250 596 q 333 535 290 553 q 457 497 376 518 q 634 414 579 464 q 689 290 689 364 q 682 233 689 268 q 570 56 657 118 q 326 -12 483 -6 l 297 -67 q 394 -91 361 -67 q 428 -160 428 -115 q 424 -192 428 -175 q 196 -333 393 -333 z "},"Ŝ":{"ha":772,"x_min":26,"x_max":764,"o":"m 521 1161 l 613 1161 l 729 956 l 635 956 l 557 1097 l 421 956 l 319 956 l 521 1161 m 286 -14 q 26 28 129 -14 l 47 129 q 297 83 161 83 q 485 117 421 83 q 568 233 549 150 q 574 275 574 254 q 551 334 574 311 q 485 374 529 357 q 354 414 442 390 q 186 492 238 446 q 135 610 135 539 q 140 663 135 639 q 258 844 164 781 q 525 908 353 908 q 662 898 597 908 q 764 874 726 888 l 743 774 q 522 811 646 811 q 338 776 404 811 q 254 663 271 742 q 250 628 250 644 q 270 574 250 596 q 333 535 290 553 q 457 497 376 518 q 634 414 579 464 q 689 290 689 364 q 682 233 689 268 q 560 49 657 111 q 286 -14 464 -14 z "},"Ș":{"ha":772,"x_min":26,"x_max":764,"o":"m 286 -14 q 26 28 129 -14 l 47 129 q 297 83 161 83 q 485 117 421 83 q 568 233 549 150 q 574 275 574 254 q 551 334 574 311 q 485 374 529 357 q 354 414 442 390 q 186 492 238 446 q 135 610 135 539 q 140 663 135 639 q 258 844 164 781 q 525 908 353 908 q 662 898 597 908 q 764 874 726 888 l 743 774 q 522 811 646 811 q 338 776 404 811 q 254 663 271 742 q 250 628 250 644 q 270 574 250 596 q 333 535 290 553 q 457 497 376 518 q 634 414 579 464 q 689 290 689 364 q 682 233 689 268 q 560 49 657 111 q 286 -14 464 -14 m 238 -72 l 340 -72 l 238 -303 l 150 -303 l 238 -72 z "},"Ṡ":{"ha":772,"x_min":26,"x_max":764,"o":"m 494 1093 l 606 1093 l 583 986 l 472 986 l 494 1093 m 286 -14 q 26 28 129 -14 l 47 129 q 297 83 161 83 q 485 117 421 83 q 568 233 549 150 q 574 275 574 254 q 551 334 574 311 q 485 374 529 357 q 354 414 442 390 q 186 492 238 446 q 135 610 135 539 q 140 663 135 639 q 258 844 164 781 q 525 908 353 908 q 662 898 597 908 q 764 874 726 888 l 743 774 q 522 811 646 811 q 338 776 404 811 q 254 663 271 742 q 250 628 250 644 q 270 574 250 596 q 333 535 290 553 q 457 497 376 518 q 634 414 579 464 q 689 290 689 364 q 682 233 689 268 q 560 49 657 111 q 286 -14 464 -14 z "},"Ṣ":{"ha":772,"x_min":26,"x_max":764,"o":"m 286 -14 q 26 28 129 -14 l 47 129 q 297 83 161 83 q 485 117 421 83 q 568 233 549 150 q 574 275 574 254 q 551 334 574 311 q 485 374 529 357 q 354 414 442 390 q 186 492 238 446 q 135 610 135 539 q 140 663 135 639 q 258 844 164 781 q 525 908 353 908 q 662 898 597 908 q 764 874 726 888 l 743 774 q 522 811 646 811 q 338 776 404 811 q 254 663 271 742 q 250 628 250 644 q 270 574 250 596 q 333 535 290 553 q 457 497 376 518 q 634 414 579 464 q 689 290 689 364 q 682 233 689 268 q 560 49 657 111 q 286 -14 464 -14 m 217 -121 l 328 -121 l 306 -228 l 194 -228 l 217 -121 z "},"ẞ":{"ha":865,"x_min":21,"x_max":826,"o":"m 451 -14 q 258 17 333 -14 l 279 114 q 454 83 344 83 q 595 125 543 83 q 665 253 647 167 q 672 308 672 288 q 640 374 672 354 q 531 393 608 393 l 394 393 l 417 500 l 719 667 q 722 697 722 678 q 677 781 722 750 q 532 811 632 811 q 348 763 410 811 q 263 606 286 714 l 135 0 l 21 0 l 149 604 q 279 831 181 754 q 553 908 378 908 q 756 850 686 908 q 826 694 826 792 q 819 632 826 669 l 532 476 l 597 476 q 735 428 685 476 q 785 301 785 379 q 779 251 785 285 q 670 56 754 126 q 451 -14 586 -14 z "},"Ə":{"ha":931,"x_min":63,"x_max":903,"o":"m 372 -14 q 140 56 217 -14 q 63 250 63 126 q 74 351 63 293 l 106 499 l 793 499 q 804 608 804 563 q 774 727 804 682 q 675 794 744 772 q 486 817 606 817 q 351 803 422 817 q 218 765 279 789 l 238 857 q 377 894 300 881 q 526 908 454 908 q 810 831 718 908 q 903 599 903 754 q 883 438 903 531 q 717 101 838 217 q 372 -14 596 -14 m 392 78 q 645 162 551 78 q 775 417 739 246 l 189 417 l 172 333 q 161 243 161 281 q 215 118 161 158 q 392 78 269 78 z "},"T":{"ha":792,"x_min":143,"x_max":869,"o":"m 440 804 l 143 804 l 161 894 l 869 894 l 851 804 l 554 804 l 383 0 l 269 0 l 440 804 z "},"Ŧ":{"ha":792,"x_min":143,"x_max":869,"o":"m 364 444 l 172 444 l 190 531 l 382 531 l 440 804 l 143 804 l 161 894 l 869 894 l 851 804 l 554 804 l 496 531 l 693 531 l 675 444 l 478 444 l 383 0 l 269 0 l 364 444 z "},"Ť":{"ha":792,"x_min":143,"x_max":869,"o":"m 368 1161 l 461 1161 l 538 1019 l 675 1161 l 778 1161 l 575 956 l 483 956 l 368 1161 m 440 804 l 143 804 l 161 894 l 869 894 l 851 804 l 554 804 l 383 0 l 269 0 l 440 804 z "},"Ţ":{"ha":792,"x_min":133,"x_max":869,"o":"m 228 -333 q 177 -330 206 -333 q 133 -322 149 -326 l 149 -253 q 233 -264 186 -264 q 332 -248 300 -264 q 372 -190 364 -232 q 375 -172 375 -176 q 350 -135 375 -144 q 269 -126 325 -126 l 218 -126 l 285 0 l 269 0 l 440 804 l 143 804 l 161 894 l 869 894 l 851 804 l 554 804 l 383 0 l 365 0 l 329 -67 q 426 -91 393 -67 q 460 -160 460 -115 q 456 -192 460 -175 q 228 -333 425 -333 z "},"Ț":{"ha":792,"x_min":143,"x_max":869,"o":"m 440 804 l 143 804 l 161 894 l 869 894 l 851 804 l 554 804 l 383 0 l 269 0 l 440 804 m 264 -58 l 367 -58 l 256 -304 l 172 -304 l 264 -58 z "},"Ṭ":{"ha":792,"x_min":143,"x_max":869,"o":"m 440 804 l 143 804 l 161 894 l 869 894 l 851 804 l 554 804 l 383 0 l 269 0 l 440 804 m 247 -114 l 358 -114 l 336 -221 l 225 -221 l 247 -114 z "},"Ṯ":{"ha":792,"x_min":90,"x_max":869,"o":"m 440 804 l 143 804 l 161 894 l 869 894 l 851 804 l 554 804 l 383 0 l 269 0 l 440 804 m 107 -92 l 506 -92 l 489 -174 l 90 -174 l 107 -92 z "},"U":{"ha":932,"x_min":81,"x_max":961,"o":"m 393 -14 q 160 51 240 -14 q 81 238 81 117 q 90 328 81 283 l 210 894 l 324 894 l 203 326 q 193 242 193 282 q 246 120 193 157 q 414 83 299 83 q 624 140 549 83 q 726 326 699 197 l 847 894 l 961 894 l 842 328 q 697 69 804 153 q 393 -14 590 -14 z "},"Ú":{"ha":932,"x_min":81,"x_max":961,"o":"m 692 1189 l 794 1189 l 635 956 l 543 956 l 692 1189 m 393 -14 q 160 51 240 -14 q 81 238 81 117 q 90 328 81 283 l 210 894 l 324 894 l 203 326 q 193 242 193 282 q 246 120 193 157 q 414 83 299 83 q 624 140 549 83 q 726 326 699 197 l 847 894 l 961 894 l 842 328 q 697 69 804 153 q 393 -14 590 -14 z "},"Ŭ":{"ha":932,"x_min":81,"x_max":961,"o":"m 569 956 q 463 990 499 956 q 426 1083 426 1024 q 432 1131 426 1097 l 508 1131 q 504 1093 504 1110 q 582 1028 504 1028 q 700 1131 678 1028 l 785 1131 q 569 956 747 956 m 393 -14 q 160 51 240 -14 q 81 238 81 117 q 90 328 81 283 l 210 894 l 324 894 l 203 326 q 193 242 193 282 q 246 120 193 157 q 414 83 299 83 q 624 140 549 83 q 726 326 699 197 l 847 894 l 961 894 l 842 328 q 697 69 804 153 q 393 -14 590 -14 z "},"Ǔ":{"ha":932,"x_min":81,"x_max":961,"o":"m 438 1161 l 531 1161 l 607 1019 l 744 1161 l 847 1161 l 644 956 l 553 956 l 438 1161 m 393 -14 q 160 51 240 -14 q 81 238 81 117 q 90 328 81 283 l 210 894 l 324 894 l 203 326 q 193 242 193 282 q 246 120 193 157 q 414 83 299 83 q 624 140 549 83 q 726 326 699 197 l 847 894 l 961 894 l 842 328 q 697 69 804 153 q 393 -14 590 -14 z "},"Û":{"ha":932,"x_min":81,"x_max":961,"o":"m 596 1161 l 688 1161 l 804 956 l 710 956 l 632 1097 l 496 956 l 394 956 l 596 1161 m 393 -14 q 160 51 240 -14 q 81 238 81 117 q 90 328 81 283 l 210 894 l 324 894 l 203 326 q 193 242 193 282 q 246 120 193 157 q 414 83 299 83 q 624 140 549 83 q 726 326 699 197 l 847 894 l 961 894 l 842 328 q 697 69 804 153 q 393 -14 590 -14 z "},"Ü":{"ha":932,"x_min":81,"x_max":961,"o":"m 435 1092 l 542 1092 l 519 988 l 413 988 l 435 1092 m 678 1092 l 786 1092 l 764 988 l 656 988 l 678 1092 m 393 -14 q 160 51 240 -14 q 81 238 81 117 q 90 328 81 283 l 210 894 l 324 894 l 203 326 q 193 242 193 282 q 246 120 193 157 q 414 83 299 83 q 624 140 549 83 q 726 326 699 197 l 847 894 l 961 894 l 842 328 q 697 69 804 153 q 393 -14 590 -14 z "},"Ǘ":{"ha":932,"x_min":81,"x_max":961,"o":"m 701 1244 l 792 1244 l 660 1071 l 578 1071 l 701 1244 m 432 1060 l 539 1060 l 517 956 l 410 956 l 432 1060 m 703 1060 l 811 1060 l 789 956 l 681 956 l 703 1060 m 393 -14 q 160 51 240 -14 q 81 238 81 117 q 90 328 81 283 l 210 894 l 324 894 l 203 326 q 193 242 193 282 q 246 120 193 157 q 414 83 299 83 q 624 140 549 83 q 726 326 699 197 l 847 894 l 961 894 l 842 328 q 697 69 804 153 q 393 -14 590 -14 z "},"Ǚ":{"ha":932,"x_min":81,"x_max":961,"o":"m 457 1235 l 550 1235 l 629 1119 l 756 1235 l 856 1235 l 668 1071 l 576 1071 l 457 1235 m 425 1060 l 533 1060 l 511 956 l 403 956 l 425 1060 m 697 1060 l 804 1060 l 782 956 l 675 956 l 697 1060 m 393 -14 q 160 51 240 -14 q 81 238 81 117 q 90 328 81 283 l 210 894 l 324 894 l 203 326 q 193 242 193 282 q 246 120 193 157 q 414 83 299 83 q 624 140 549 83 q 726 326 699 197 l 847 894 l 961 894 l 842 328 q 697 69 804 153 q 393 -14 590 -14 z "},"Ǜ":{"ha":932,"x_min":81,"x_max":961,"o":"m 526 1244 l 617 1244 l 665 1071 l 583 1071 l 526 1244 m 431 1060 l 538 1060 l 515 956 l 408 956 l 431 1060 m 701 1060 l 810 1060 l 788 956 l 679 956 l 701 1060 m 393 -14 q 160 51 240 -14 q 81 238 81 117 q 90 328 81 283 l 210 894 l 324 894 l 203 326 q 193 242 193 282 q 246 120 193 157 q 414 83 299 83 q 624 140 549 83 q 726 326 699 197 l 847 894 l 961 894 l 842 328 q 697 69 804 153 q 393 -14 590 -14 z "},"Ǖ":{"ha":932,"x_min":81,"x_max":961,"o":"m 450 1229 l 849 1229 l 832 1147 l 433 1147 l 450 1229 m 450 1083 l 557 1083 l 535 979 l 428 979 l 450 1083 m 693 1083 l 801 1083 l 779 979 l 671 979 l 693 1083 m 393 -14 q 160 51 240 -14 q 81 238 81 117 q 90 328 81 283 l 210 894 l 324 894 l 203 326 q 193 242 193 282 q 246 120 193 157 q 414 83 299 83 q 624 140 549 83 q 726 326 699 197 l 847 894 l 961 894 l 842 328 q 697 69 804 153 q 393 -14 590 -14 z "},"Ụ":{"ha":932,"x_min":81,"x_max":961,"o":"m 393 -14 q 160 51 240 -14 q 81 238 81 117 q 90 328 81 283 l 210 894 l 324 894 l 203 326 q 193 242 193 282 q 246 120 193 157 q 414 83 299 83 q 624 140 549 83 q 726 326 699 197 l 847 894 l 961 894 l 842 328 q 697 69 804 153 q 393 -14 590 -14 m 315 -121 l 426 -121 l 404 -228 l 293 -228 l 315 -121 z "},"Ù":{"ha":932,"x_min":81,"x_max":961,"o":"m 517 1189 l 619 1189 l 668 956 l 576 956 l 517 1189 m 393 -14 q 160 51 240 -14 q 81 238 81 117 q 90 328 81 283 l 210 894 l 324 894 l 203 326 q 193 242 193 282 q 246 120 193 157 q 414 83 299 83 q 624 140 549 83 q 726 326 699 197 l 847 894 l 961 894 l 842 328 q 697 69 804 153 q 393 -14 590 -14 z "},"Ủ":{"ha":932,"x_min":81,"x_max":961,"o":"m 574 1071 q 681 1090 653 1075 q 718 1143 710 1106 q 719 1161 719 1150 q 697 1195 719 1185 q 622 1206 675 1206 q 573 1201 600 1206 q 528 1189 546 1196 l 542 1260 q 599 1273 564 1268 q 664 1278 633 1278 q 769 1251 731 1278 q 808 1178 808 1225 q 806 1151 808 1168 q 758 1063 793 1093 q 654 1022 724 1032 l 640 956 l 549 956 l 574 1071 m 393 -14 q 160 51 240 -14 q 81 238 81 117 q 90 328 81 283 l 210 894 l 324 894 l 203 326 q 193 242 193 282 q 246 120 193 157 q 414 83 299 83 q 624 140 549 83 q 726 326 699 197 l 847 894 l 961 894 l 842 328 q 697 69 804 153 q 393 -14 590 -14 z "},"Ư":{"ha":1118,"x_min":81,"x_max":1210,"o":"m 210 894 l 324 894 l 203 326 q 193 242 193 282 q 246 120 193 157 q 414 83 299 83 q 624 140 549 83 q 726 326 699 197 l 847 894 l 961 894 l 939 790 q 1026 806 994 792 q 1078 856 1058 821 q 1111 956 1097 892 l 1210 956 q 1111 761 1181 819 q 921 701 1042 703 l 842 328 q 697 69 804 153 q 393 -14 590 -14 q 160 51 240 -14 q 81 238 81 117 q 90 328 81 283 l 210 894 z "},"Ứ":{"ha":1118,"x_min":81,"x_max":1210,"o":"m 713 1189 l 815 1189 l 656 956 l 564 956 l 713 1189 m 210 894 l 324 894 l 203 326 q 193 242 193 282 q 246 120 193 157 q 414 83 299 83 q 624 140 549 83 q 726 326 699 197 l 847 894 l 961 894 l 939 790 q 1026 806 994 792 q 1078 856 1058 821 q 1111 956 1097 892 l 1210 956 q 1111 761 1181 819 q 921 701 1042 703 l 842 328 q 697 69 804 153 q 393 -14 590 -14 q 160 51 240 -14 q 81 238 81 117 q 90 328 81 283 l 210 894 z "},"Ự":{"ha":1118,"x_min":81,"x_max":1210,"o":"m 210 894 l 324 894 l 203 326 q 193 242 193 282 q 246 120 193 157 q 414 83 299 83 q 624 140 549 83 q 726 326 699 197 l 847 894 l 961 894 l 939 790 q 1026 806 994 792 q 1078 856 1058 821 q 1111 956 1097 892 l 1210 956 q 1111 761 1181 819 q 921 701 1042 703 l 842 328 q 697 69 804 153 q 393 -14 590 -14 q 160 51 240 -14 q 81 238 81 117 q 90 328 81 283 l 210 894 m 313 -121 l 424 -121 l 401 -228 l 290 -228 l 313 -121 z "},"Ừ":{"ha":1118,"x_min":81,"x_max":1210,"o":"m 507 1189 l 610 1189 l 658 956 l 567 956 l 507 1189 m 210 894 l 324 894 l 203 326 q 193 242 193 282 q 246 120 193 157 q 414 83 299 83 q 624 140 549 83 q 726 326 699 197 l 847 894 l 961 894 l 939 790 q 1026 806 994 792 q 1078 856 1058 821 q 1111 956 1097 892 l 1210 956 q 1111 761 1181 819 q 921 701 1042 703 l 842 328 q 697 69 804 153 q 393 -14 590 -14 q 160 51 240 -14 q 81 238 81 117 q 90 328 81 283 l 210 894 z "},"Ử":{"ha":1118,"x_min":81,"x_max":1210,"o":"m 586 1071 q 694 1090 665 1075 q 731 1143 722 1106 q 732 1161 732 1150 q 710 1195 732 1185 q 635 1206 688 1206 q 585 1201 613 1206 q 540 1189 558 1196 l 554 1260 q 611 1273 576 1268 q 676 1278 646 1278 q 782 1251 743 1278 q 821 1178 821 1225 q 818 1151 821 1168 q 771 1063 806 1093 q 667 1022 736 1032 l 653 956 l 561 956 l 586 1071 m 210 894 l 324 894 l 203 326 q 193 242 193 282 q 246 120 193 157 q 414 83 299 83 q 624 140 549 83 q 726 326 699 197 l 847 894 l 961 894 l 939 790 q 1026 806 994 792 q 1078 856 1058 821 q 1111 956 1097 892 l 1210 956 q 1111 761 1181 819 q 921 701 1042 703 l 842 328 q 697 69 804 153 q 393 -14 590 -14 q 160 51 240 -14 q 81 238 81 117 q 90 328 81 283 l 210 894 z "},"Ữ":{"ha":1118,"x_min":81,"x_max":1210,"o":"m 707 982 q 659 989 682 982 q 603 1010 636 996 q 518 1035 547 1035 q 393 986 443 1035 l 411 1074 q 467 1103 432 1092 q 536 1115 503 1115 q 585 1108 563 1115 q 636 1088 608 1101 q 683 1069 664 1075 q 725 1063 703 1063 q 842 1113 796 1063 l 824 1024 q 774 993 806 1004 q 707 982 742 982 m 210 894 l 324 894 l 203 326 q 193 242 193 282 q 246 120 193 157 q 414 83 299 83 q 624 140 549 83 q 726 326 699 197 l 847 894 l 961 894 l 939 790 q 1026 806 994 792 q 1078 856 1058 821 q 1111 956 1097 892 l 1210 956 q 1111 761 1181 819 q 921 701 1042 703 l 842 328 q 697 69 804 153 q 393 -14 590 -14 q 160 51 240 -14 q 81 238 81 117 q 90 328 81 283 l 210 894 z "},"Ű":{"ha":932,"x_min":81,"x_max":961,"o":"m 499 1167 l 607 1167 l 451 956 l 357 956 l 499 1167 m 785 1167 l 893 1167 l 736 956 l 642 956 l 785 1167 m 393 -14 q 160 51 240 -14 q 81 238 81 117 q 90 328 81 283 l 210 894 l 324 894 l 203 326 q 193 242 193 282 q 246 120 193 157 q 414 83 299 83 q 624 140 549 83 q 726 326 699 197 l 847 894 l 961 894 l 842 328 q 697 69 804 153 q 393 -14 590 -14 z "},"Ū":{"ha":932,"x_min":81,"x_max":961,"o":"m 410 1082 l 808 1082 l 792 1000 l 393 1000 l 410 1082 m 393 -14 q 160 51 240 -14 q 81 238 81 117 q 90 328 81 283 l 210 894 l 324 894 l 203 326 q 193 242 193 282 q 246 120 193 157 q 414 83 299 83 q 624 140 549 83 q 726 326 699 197 l 847 894 l 961 894 l 842 328 q 697 69 804 153 q 393 -14 590 -14 z "},"Ų":{"ha":932,"x_min":81,"x_max":961,"o":"m 346 -306 q 262 -283 293 -306 q 231 -214 231 -261 q 266 -106 231 -160 q 356 -12 301 -51 q 151 60 221 -4 q 81 238 81 125 q 90 328 81 283 l 210 894 l 324 894 l 203 326 q 193 242 193 282 q 246 120 193 157 q 414 83 299 83 q 624 140 549 83 q 726 326 699 197 l 847 894 l 961 894 l 842 328 q 713 81 807 164 q 447 -11 618 -1 q 331 -167 347 -81 q 328 -187 328 -181 q 342 -218 328 -210 q 388 -226 357 -226 q 426 -222 406 -226 q 458 -211 446 -218 l 442 -289 q 346 -306 406 -306 z "},"Ů":{"ha":932,"x_min":81,"x_max":961,"o":"m 581 956 q 490 988 524 956 q 457 1071 457 1019 q 461 1104 457 1088 q 524 1212 475 1169 q 644 1254 574 1254 q 737 1222 703 1254 q 771 1138 771 1189 q 767 1104 771 1121 q 703 997 753 1039 q 581 956 653 956 m 594 1019 q 671 1051 640 1019 q 701 1126 701 1083 q 684 1172 701 1156 q 631 1189 667 1189 q 556 1157 586 1189 q 525 1081 525 1125 q 542 1036 525 1053 q 594 1019 560 1019 m 393 -14 q 160 51 240 -14 q 81 238 81 117 q 90 328 81 283 l 210 894 l 324 894 l 203 326 q 193 242 193 282 q 246 120 193 157 q 414 83 299 83 q 624 140 549 83 q 726 326 699 197 l 847 894 l 961 894 l 842 328 q 697 69 804 153 q 393 -14 590 -14 z "},"Ũ":{"ha":932,"x_min":81,"x_max":961,"o":"m 693 983 q 645 990 668 983 q 589 1011 622 997 q 504 1036 533 1036 q 379 988 429 1036 l 397 1075 q 453 1105 418 1093 q 522 1117 489 1117 q 572 1110 549 1117 q 622 1089 594 1103 q 669 1070 650 1076 q 711 1064 689 1064 q 828 1114 782 1064 l 810 1025 q 760 994 792 1006 q 693 983 728 983 m 393 -14 q 160 51 240 -14 q 81 238 81 117 q 90 328 81 283 l 210 894 l 324 894 l 203 326 q 193 242 193 282 q 246 120 193 157 q 414 83 299 83 q 624 140 549 83 q 726 326 699 197 l 847 894 l 961 894 l 842 328 q 697 69 804 153 q 393 -14 590 -14 z "},"V":{"ha":951,"x_min":189,"x_max":1001,"o":"m 189 894 l 301 894 l 424 115 l 878 894 l 1001 894 l 474 0 l 340 0 l 189 894 z "},"W":{"ha":1196,"x_min":189,"x_max":1246,"o":"m 189 894 l 301 894 l 314 158 l 642 796 l 663 894 l 756 894 l 808 158 l 1135 894 l 1246 894 l 850 0 l 732 0 l 682 681 l 333 0 l 208 0 l 189 894 z "},"Ẃ":{"ha":1196,"x_min":189,"x_max":1246,"o":"m 836 1189 l 939 1189 l 779 956 l 688 956 l 836 1189 m 189 894 l 301 894 l 314 158 l 642 796 l 663 894 l 756 894 l 808 158 l 1135 894 l 1246 894 l 850 0 l 732 0 l 682 681 l 333 0 l 208 0 l 189 894 z "},"Ŵ":{"ha":1196,"x_min":189,"x_max":1246,"o":"m 735 1161 l 826 1161 l 943 956 l 849 956 l 771 1097 l 635 956 l 533 956 l 735 1161 m 189 894 l 301 894 l 314 158 l 642 796 l 663 894 l 756 894 l 808 158 l 1135 894 l 1246 894 l 850 0 l 732 0 l 682 681 l 333 0 l 208 0 l 189 894 z "},"Ẅ":{"ha":1196,"x_min":189,"x_max":1246,"o":"m 590 1088 l 697 1088 l 675 983 l 568 983 l 590 1088 m 833 1088 l 942 1088 l 919 983 l 811 983 l 833 1088 m 189 894 l 301 894 l 314 158 l 642 796 l 663 894 l 756 894 l 808 158 l 1135 894 l 1246 894 l 850 0 l 732 0 l 682 681 l 333 0 l 208 0 l 189 894 z "},"Ẁ":{"ha":1196,"x_min":189,"x_max":1246,"o":"m 621 1189 l 724 1189 l 772 956 l 681 956 l 621 1189 m 189 894 l 301 894 l 314 158 l 642 796 l 663 894 l 756 894 l 808 158 l 1135 894 l 1246 894 l 850 0 l 732 0 l 682 681 l 333 0 l 208 0 l 189 894 z "},"X":{"ha":906,"x_min":0,"x_max":951,"o":"m 410 444 l 193 894 l 324 894 l 494 529 l 821 894 l 951 894 l 546 444 l 767 0 l 635 0 l 458 357 l 132 0 l 0 0 l 410 444 z "},"Y":{"ha":892,"x_min":189,"x_max":942,"o":"m 390 333 l 189 894 l 301 894 l 461 431 l 818 894 l 942 894 l 504 333 l 433 0 l 319 0 l 390 333 z "},"Ý":{"ha":892,"x_min":189,"x_max":942,"o":"m 665 1189 l 768 1189 l 608 956 l 517 956 l 665 1189 m 390 333 l 189 894 l 301 894 l 461 431 l 818 894 l 942 894 l 504 333 l 433 0 l 319 0 l 390 333 z "},"Ŷ":{"ha":892,"x_min":189,"x_max":942,"o":"m 576 1161 l 668 1161 l 785 956 l 690 956 l 613 1097 l 476 956 l 375 956 l 576 1161 m 390 333 l 189 894 l 301 894 l 461 431 l 818 894 l 942 894 l 504 333 l 433 0 l 319 0 l 390 333 z "},"Ÿ":{"ha":892,"x_min":189,"x_max":942,"o":"m 432 1092 l 539 1092 l 517 988 l 410 988 l 432 1092 m 675 1092 l 783 1092 l 761 988 l 653 988 l 675 1092 m 390 333 l 189 894 l 301 894 l 461 431 l 818 894 l 942 894 l 504 333 l 433 0 l 319 0 l 390 333 z "},"Ẏ":{"ha":892,"x_min":189,"x_max":942,"o":"m 551 1093 l 663 1093 l 640 986 l 529 986 l 551 1093 m 390 333 l 189 894 l 301 894 l 461 431 l 818 894 l 942 894 l 504 333 l 433 0 l 319 0 l 390 333 z "},"Ỵ":{"ha":892,"x_min":189,"x_max":942,"o":"m 390 333 l 189 894 l 301 894 l 461 431 l 818 894 l 942 894 l 504 333 l 433 0 l 319 0 l 390 333 m 300 -100 l 411 -100 l 389 -207 l 278 -207 l 300 -100 z "},"Ỳ":{"ha":892,"x_min":189,"x_max":942,"o":"m 492 1189 l 594 1189 l 643 956 l 551 956 l 492 1189 m 390 333 l 189 894 l 301 894 l 461 431 l 818 894 l 942 894 l 504 333 l 433 0 l 319 0 l 390 333 z "},"Ỷ":{"ha":892,"x_min":189,"x_max":942,"o":"m 546 1071 q 653 1090 625 1075 q 690 1143 682 1106 q 692 1161 692 1150 q 669 1195 692 1185 q 594 1206 647 1206 q 545 1201 572 1206 q 500 1189 518 1196 l 514 1260 q 571 1273 536 1268 q 636 1278 606 1278 q 742 1251 703 1278 q 781 1178 781 1225 q 778 1151 781 1168 q 731 1063 765 1093 q 626 1022 696 1032 l 613 956 l 521 956 l 546 1071 m 390 333 l 189 894 l 301 894 l 461 431 l 818 894 l 942 894 l 504 333 l 433 0 l 319 0 l 390 333 z "},"Ỹ":{"ha":892,"x_min":189,"x_max":942,"o":"m 689 983 q 641 990 664 983 q 585 1011 618 997 q 500 1036 529 1036 q 375 988 425 1036 l 393 1075 q 449 1105 414 1093 q 518 1117 485 1117 q 567 1110 544 1117 q 618 1089 590 1103 q 665 1070 646 1076 q 707 1064 685 1064 q 824 1114 778 1064 l 806 1025 q 756 994 788 1006 q 689 983 724 983 m 390 333 l 189 894 l 301 894 l 461 431 l 818 894 l 942 894 l 504 333 l 433 0 l 319 0 l 390 333 z "},"Z":{"ha":794,"x_min":0,"x_max":844,"o":"m 13 64 l 682 804 l 194 804 l 213 894 l 844 894 l 831 824 l 167 89 l 681 89 l 663 0 l 0 0 l 13 64 z "},"Ź":{"ha":794,"x_min":0,"x_max":844,"o":"m 643 1189 l 746 1189 l 586 956 l 494 956 l 643 1189 m 13 64 l 682 804 l 194 804 l 213 894 l 844 894 l 831 824 l 167 89 l 681 89 l 663 0 l 0 0 l 13 64 z "},"Ž":{"ha":794,"x_min":0,"x_max":844,"o":"m 393 1161 l 486 1161 l 563 1019 l 700 1161 l 803 1161 l 600 956 l 508 956 l 393 1161 m 13 64 l 682 804 l 194 804 l 213 894 l 844 894 l 831 824 l 167 89 l 681 89 l 663 0 l 0 0 l 13 64 z "},"Ż":{"ha":794,"x_min":0,"x_max":844,"o":"m 515 1093 l 626 1093 l 604 986 l 493 986 l 515 1093 m 13 64 l 682 804 l 194 804 l 213 894 l 844 894 l 831 824 l 167 89 l 681 89 l 663 0 l 0 0 l 13 64 z "},"Ẓ":{"ha":794,"x_min":0,"x_max":844,"o":"m 13 64 l 682 804 l 194 804 l 213 894 l 844 894 l 831 824 l 167 89 l 681 89 l 663 0 l 0 0 l 13 64 m 263 -121 l 374 -121 l 351 -228 l 240 -228 l 263 -121 z "},"a":{"ha":799,"x_min":53,"x_max":771,"o":"m 293 -14 q 53 201 53 -14 q 65 310 53 250 q 146 507 89 425 q 282 631 203 589 q 451 672 361 672 q 560 658 514 672 q 647 610 606 643 l 657 658 l 771 658 l 632 0 l 535 0 l 540 69 q 426 6 485 26 q 293 -14 367 -14 m 342 78 q 551 157 460 78 l 626 515 q 558 564 597 547 q 463 581 519 581 q 179 310 236 581 q 167 208 167 251 q 207 108 167 138 q 342 78 247 78 z "},"á":{"ha":799,"x_min":53,"x_max":771,"o":"m 572 958 l 675 958 l 515 725 l 424 725 l 572 958 m 293 -14 q 53 201 53 -14 q 65 310 53 250 q 146 507 89 425 q 282 631 203 589 q 451 672 361 672 q 560 658 514 672 q 647 610 606 643 l 657 658 l 771 658 l 632 0 l 535 0 l 540 69 q 426 6 485 26 q 293 -14 367 -14 m 342 78 q 551 157 460 78 l 626 515 q 558 564 597 547 q 463 581 519 581 q 179 310 236 581 q 167 208 167 251 q 207 108 167 138 q 342 78 247 78 z "},"ă":{"ha":799,"x_min":53,"x_max":771,"o":"m 475 725 q 368 759 404 725 q 332 853 332 793 q 338 900 332 867 l 414 900 q 410 863 410 879 q 488 797 410 797 q 606 900 583 797 l 690 900 q 475 725 653 725 m 293 -14 q 53 201 53 -14 q 65 310 53 250 q 146 507 89 425 q 282 631 203 589 q 451 672 361 672 q 560 658 514 672 q 647 610 606 643 l 657 658 l 771 658 l 632 0 l 535 0 l 540 69 q 426 6 485 26 q 293 -14 367 -14 m 342 78 q 551 157 460 78 l 626 515 q 558 564 597 547 q 463 581 519 581 q 179 310 236 581 q 167 208 167 251 q 207 108 167 138 q 342 78 247 78 z "},"ắ":{"ha":799,"x_min":53,"x_max":771,"o":"m 589 1043 l 679 1043 l 547 869 l 465 869 l 589 1043 m 489 725 q 367 760 413 725 q 321 868 321 796 q 326 919 321 896 l 397 919 q 392 874 392 897 q 417 812 392 832 q 501 792 443 792 q 606 824 565 792 q 661 919 647 856 l 735 919 q 648 772 713 818 q 489 725 583 725 m 293 -14 q 53 201 53 -14 q 65 310 53 250 q 146 507 89 425 q 282 631 203 589 q 451 672 361 672 q 560 658 514 672 q 647 610 606 643 l 657 658 l 771 658 l 632 0 l 535 0 l 540 69 q 426 6 485 26 q 293 -14 367 -14 m 342 78 q 551 157 460 78 l 626 515 q 558 564 597 547 q 463 581 519 581 q 179 310 236 581 q 167 208 167 251 q 207 108 167 138 q 342 78 247 78 z "},"ặ":{"ha":799,"x_min":53,"x_max":771,"o":"m 469 725 q 363 759 399 725 q 326 853 326 793 q 332 900 326 867 l 408 900 q 404 863 404 879 q 482 797 404 797 q 600 900 578 797 l 685 900 q 469 725 647 725 m 293 -14 q 53 201 53 -14 q 65 310 53 250 q 146 507 89 425 q 282 631 203 589 q 451 672 361 672 q 560 658 514 672 q 647 610 606 643 l 657 658 l 771 658 l 632 0 l 535 0 l 540 69 q 426 6 485 26 q 293 -14 367 -14 m 342 78 q 551 157 460 78 l 626 515 q 558 564 597 547 q 463 581 519 581 q 179 310 236 581 q 167 208 167 251 q 207 108 167 138 q 342 78 247 78 m 239 -121 l 350 -121 l 328 -228 l 217 -228 l 239 -121 z "},"ằ":{"ha":799,"x_min":53,"x_max":771,"o":"m 428 1043 l 518 1043 l 567 869 l 485 869 l 428 1043 m 482 725 q 360 760 406 725 q 314 868 314 796 q 319 919 314 896 l 390 919 q 385 874 385 897 q 410 812 385 832 q 494 792 436 792 q 599 824 558 792 q 654 919 640 856 l 728 919 q 641 772 706 818 q 482 725 576 725 m 293 -14 q 53 201 53 -14 q 65 310 53 250 q 146 507 89 425 q 282 631 203 589 q 451 672 361 672 q 560 658 514 672 q 647 610 606 643 l 657 658 l 771 658 l 632 0 l 535 0 l 540 69 q 426 6 485 26 q 293 -14 367 -14 m 342 78 q 551 157 460 78 l 626 515 q 558 564 597 547 q 463 581 519 581 q 179 310 236 581 q 167 208 167 251 q 207 108 167 138 q 342 78 247 78 z "},"ẳ":{"ha":799,"x_min":53,"x_max":771,"o":"m 475 951 q 569 969 542 954 q 601 1014 596 983 q 603 1029 603 1019 q 540 1068 603 1068 q 457 1050 500 1068 l 469 1107 q 575 1124 517 1124 q 658 1102 629 1124 q 686 1043 686 1081 q 683 1021 686 1038 q 642 951 672 975 q 551 918 613 928 l 542 871 l 458 871 l 475 951 m 479 725 q 357 760 403 725 q 311 868 311 796 q 317 919 311 896 l 388 919 q 382 874 382 897 q 408 812 382 832 q 492 792 433 792 q 597 824 556 792 q 651 919 638 856 l 725 919 q 638 772 703 818 q 479 725 574 725 m 293 -14 q 53 201 53 -14 q 65 310 53 250 q 146 507 89 425 q 282 631 203 589 q 451 672 361 672 q 560 658 514 672 q 647 610 606 643 l 657 658 l 771 658 l 632 0 l 535 0 l 540 69 q 426 6 485 26 q 293 -14 367 -14 m 342 78 q 551 157 460 78 l 626 515 q 558 564 597 547 q 463 581 519 581 q 179 310 236 581 q 167 208 167 251 q 207 108 167 138 q 342 78 247 78 z "},"ẵ":{"ha":799,"x_min":53,"x_max":771,"o":"m 631 949 q 589 955 608 949 q 535 975 569 961 q 491 992 508 986 q 456 997 474 997 q 340 953 386 997 l 357 1031 q 408 1058 375 1047 q 471 1068 442 1068 q 516 1062 494 1068 q 564 1043 538 1056 q 644 1019 611 1019 q 753 1065 708 1019 l 736 986 q 692 959 721 969 q 631 949 663 949 m 485 725 q 363 760 408 725 q 317 868 317 796 q 322 919 317 896 l 393 919 q 388 874 388 897 q 413 812 388 832 q 497 792 439 792 q 602 824 561 792 q 657 919 643 856 l 731 919 q 644 772 708 818 q 485 725 579 725 m 293 -14 q 53 201 53 -14 q 65 310 53 250 q 146 507 89 425 q 282 631 203 589 q 451 672 361 672 q 560 658 514 672 q 647 610 606 643 l 657 658 l 771 658 l 632 0 l 535 0 l 540 69 q 426 6 485 26 q 293 -14 367 -14 m 342 78 q 551 157 460 78 l 626 515 q 558 564 597 547 q 463 581 519 581 q 179 310 236 581 q 167 208 167 251 q 207 108 167 138 q 342 78 247 78 z "},"ǎ":{"ha":799,"x_min":53,"x_max":771,"o":"m 311 931 l 404 931 l 481 789 l 618 931 l 721 931 l 518 725 l 426 725 l 311 931 m 293 -14 q 53 201 53 -14 q 65 310 53 250 q 146 507 89 425 q 282 631 203 589 q 451 672 361 672 q 560 658 514 672 q 647 610 606 643 l 657 658 l 771 658 l 632 0 l 535 0 l 540 69 q 426 6 485 26 q 293 -14 367 -14 m 342 78 q 551 157 460 78 l 626 515 q 558 564 597 547 q 463 581 519 581 q 179 310 236 581 q 167 208 167 251 q 207 108 167 138 q 342 78 247 78 z "},"â":{"ha":799,"x_min":53,"x_max":771,"o":"m 472 931 l 564 931 l 681 725 l 586 725 l 508 867 l 372 725 l 271 725 l 472 931 m 293 -14 q 53 201 53 -14 q 65 310 53 250 q 146 507 89 425 q 282 631 203 589 q 451 672 361 672 q 560 658 514 672 q 647 610 606 643 l 657 658 l 771 658 l 632 0 l 535 0 l 540 69 q 426 6 485 26 q 293 -14 367 -14 m 342 78 q 551 157 460 78 l 626 515 q 558 564 597 547 q 463 581 519 581 q 179 310 236 581 q 167 208 167 251 q 207 108 167 138 q 342 78 247 78 z "},"ấ":{"ha":799,"x_min":53,"x_max":828,"o":"m 738 1050 l 828 1050 l 697 876 l 615 876 l 738 1050 m 461 889 l 553 889 l 672 725 l 579 725 l 500 840 l 372 725 l 272 725 l 461 889 m 293 -14 q 53 201 53 -14 q 65 310 53 250 q 146 507 89 425 q 282 631 203 589 q 451 672 361 672 q 560 658 514 672 q 647 610 606 643 l 657 658 l 771 658 l 632 0 l 535 0 l 540 69 q 426 6 485 26 q 293 -14 367 -14 m 342 78 q 551 157 460 78 l 626 515 q 558 564 597 547 q 463 581 519 581 q 179 310 236 581 q 167 208 167 251 q 207 108 167 138 q 342 78 247 78 z "},"ậ":{"ha":799,"x_min":53,"x_max":771,"o":"m 463 931 l 554 931 l 671 725 l 576 725 l 499 867 l 363 725 l 261 725 l 463 931 m 293 -14 q 53 201 53 -14 q 65 310 53 250 q 146 507 89 425 q 282 631 203 589 q 451 672 361 672 q 560 658 514 672 q 647 610 606 643 l 657 658 l 771 658 l 632 0 l 535 0 l 540 69 q 426 6 485 26 q 293 -14 367 -14 m 342 78 q 551 157 460 78 l 626 515 q 558 564 597 547 q 463 581 519 581 q 179 310 236 581 q 167 208 167 251 q 207 108 167 138 q 342 78 247 78 m 232 -121 l 343 -121 l 321 -228 l 210 -228 l 232 -121 z "},"ầ":{"ha":799,"x_min":53,"x_max":771,"o":"m 263 1050 l 353 1050 l 401 876 l 319 876 l 263 1050 m 469 889 l 561 889 l 679 725 l 586 725 l 508 840 l 379 725 l 281 725 l 469 889 m 293 -14 q 53 201 53 -14 q 65 310 53 250 q 146 507 89 425 q 282 631 203 589 q 451 672 361 672 q 560 658 514 672 q 647 610 606 643 l 657 658 l 771 658 l 632 0 l 535 0 l 540 69 q 426 6 485 26 q 293 -14 367 -14 m 342 78 q 551 157 460 78 l 626 515 q 558 564 597 547 q 463 581 519 581 q 179 310 236 581 q 167 208 167 251 q 207 108 167 138 q 342 78 247 78 z "},"ẩ":{"ha":799,"x_min":53,"x_max":853,"o":"m 643 933 q 735 949 710 936 q 765 992 760 963 q 767 1006 767 997 q 707 1042 767 1042 q 625 1025 668 1042 l 638 1085 q 739 1101 685 1101 q 823 1081 793 1101 q 853 1021 853 1060 q 850 997 853 1014 q 808 926 840 951 q 718 894 776 901 l 708 846 l 625 846 l 643 933 m 465 888 l 557 888 l 676 724 l 583 724 l 504 839 l 376 724 l 276 724 l 465 888 m 293 -14 q 53 201 53 -14 q 65 310 53 250 q 146 507 89 425 q 282 631 203 589 q 451 672 361 672 q 560 658 514 672 q 647 610 606 643 l 657 658 l 771 658 l 632 0 l 535 0 l 540 69 q 426 6 485 26 q 293 -14 367 -14 m 342 78 q 551 157 460 78 l 626 515 q 558 564 597 547 q 463 581 519 581 q 179 310 236 581 q 167 208 167 251 q 207 108 167 138 q 342 78 247 78 z "},"ẫ":{"ha":799,"x_min":53,"x_max":771,"o":"m 611 892 q 569 898 589 892 q 515 918 550 904 q 472 935 489 929 q 436 940 454 940 q 321 896 367 940 l 338 974 q 390 1001 357 990 q 451 1011 422 1011 q 497 1005 475 1011 q 544 986 518 999 q 588 969 569 975 q 626 963 606 963 q 733 1008 689 963 l 715 929 q 672 902 700 913 q 611 892 643 892 m 465 889 l 557 889 l 676 725 l 583 725 l 504 840 l 376 725 l 276 725 l 465 889 m 293 -14 q 53 201 53 -14 q 65 310 53 250 q 146 507 89 425 q 282 631 203 589 q 451 672 361 672 q 560 658 514 672 q 647 610 606 643 l 657 658 l 771 658 l 632 0 l 535 0 l 540 69 q 426 6 485 26 q 293 -14 367 -14 m 342 78 q 551 157 460 78 l 626 515 q 558 564 597 547 q 463 581 519 581 q 179 310 236 581 q 167 208 167 251 q 207 108 167 138 q 342 78 247 78 z "},"ä":{"ha":799,"x_min":53,"x_max":771,"o":"m 336 861 l 443 861 l 421 757 l 314 757 l 336 861 m 579 861 l 688 861 l 665 757 l 557 757 l 579 861 m 293 -14 q 53 201 53 -14 q 65 310 53 250 q 146 507 89 425 q 282 631 203 589 q 451 672 361 672 q 560 658 514 672 q 647 610 606 643 l 657 658 l 771 658 l 632 0 l 535 0 l 540 69 q 426 6 485 26 q 293 -14 367 -14 m 342 78 q 551 157 460 78 l 626 515 q 558 564 597 547 q 463 581 519 581 q 179 310 236 581 q 167 208 167 251 q 207 108 167 138 q 342 78 247 78 z "},"ạ":{"ha":799,"x_min":53,"x_max":771,"o":"m 293 -14 q 53 201 53 -14 q 65 310 53 250 q 146 507 89 425 q 282 631 203 589 q 451 672 361 672 q 560 658 514 672 q 647 610 606 643 l 657 658 l 771 658 l 632 0 l 535 0 l 540 69 q 426 6 485 26 q 293 -14 367 -14 m 342 78 q 551 157 460 78 l 626 515 q 558 564 597 547 q 463 581 519 581 q 179 310 236 581 q 167 208 167 251 q 207 108 167 138 q 342 78 247 78 m 238 -121 l 349 -121 l 326 -228 l 215 -228 l 238 -121 z "},"à":{"ha":799,"x_min":53,"x_max":771,"o":"m 388 958 l 490 958 l 539 725 l 447 725 l 388 958 m 293 -14 q 53 201 53 -14 q 65 310 53 250 q 146 507 89 425 q 282 631 203 589 q 451 672 361 672 q 560 658 514 672 q 647 610 606 643 l 657 658 l 771 658 l 632 0 l 535 0 l 540 69 q 426 6 485 26 q 293 -14 367 -14 m 342 78 q 551 157 460 78 l 626 515 q 558 564 597 547 q 463 581 519 581 q 179 310 236 581 q 167 208 167 251 q 207 108 167 138 q 342 78 247 78 z "},"ả":{"ha":799,"x_min":53,"x_max":771,"o":"m 443 840 q 551 860 522 844 q 588 913 579 875 q 589 931 589 919 q 567 965 589 954 q 492 975 544 975 q 442 970 469 975 q 397 958 415 965 l 411 1029 q 468 1042 433 1038 q 533 1047 503 1047 q 639 1021 600 1047 q 678 947 678 994 q 675 921 678 938 q 628 832 663 863 q 524 792 593 801 l 510 725 l 418 725 l 443 840 m 293 -14 q 53 201 53 -14 q 65 310 53 250 q 146 507 89 425 q 282 631 203 589 q 451 672 361 672 q 560 658 514 672 q 647 610 606 643 l 657 658 l 771 658 l 632 0 l 535 0 l 540 69 q 426 6 485 26 q 293 -14 367 -14 m 342 78 q 551 157 460 78 l 626 515 q 558 564 597 547 q 463 581 519 581 q 179 310 236 581 q 167 208 167 251 q 207 108 167 138 q 342 78 247 78 z "},"ɑ":{"ha":799,"x_min":53,"x_max":771,"o":"m 293 -14 q 53 201 53 -14 q 65 310 53 250 q 146 507 89 425 q 282 631 203 589 q 451 672 361 672 q 560 658 514 672 q 647 610 606 643 l 657 658 l 771 658 l 632 0 l 535 0 l 540 69 q 426 6 485 26 q 293 -14 367 -14 m 342 78 q 551 157 460 78 l 626 515 q 558 564 597 547 q 463 581 519 581 q 179 310 236 581 q 167 208 167 251 q 207 108 167 138 q 342 78 247 78 z "},"ā":{"ha":799,"x_min":53,"x_max":771,"o":"m 293 840 l 692 840 l 675 758 l 276 758 l 293 840 m 293 -14 q 53 201 53 -14 q 65 310 53 250 q 146 507 89 425 q 282 631 203 589 q 451 672 361 672 q 560 658 514 672 q 647 610 606 643 l 657 658 l 771 658 l 632 0 l 535 0 l 540 69 q 426 6 485 26 q 293 -14 367 -14 m 342 78 q 551 157 460 78 l 626 515 q 558 564 597 547 q 463 581 519 581 q 179 310 236 581 q 167 208 167 251 q 207 108 167 138 q 342 78 247 78 z "},"ą":{"ha":799,"x_min":53,"x_max":771,"o":"m 513 -306 q 428 -283 460 -306 q 397 -214 397 -261 q 438 -97 397 -156 q 535 0 478 -39 l 540 69 q 426 6 485 26 q 293 -14 367 -14 q 53 201 53 -14 q 65 310 53 250 q 146 507 89 425 q 282 631 203 589 q 451 672 361 672 q 560 658 514 672 q 647 610 606 643 l 657 658 l 771 658 l 632 0 q 541 -79 575 -36 q 497 -167 507 -122 q 494 -187 494 -181 q 509 -218 494 -210 q 554 -226 524 -226 q 592 -222 572 -226 q 625 -211 613 -218 l 608 -289 q 513 -306 574 -306 m 342 78 q 551 157 460 78 l 626 515 q 558 564 597 547 q 463 581 519 581 q 179 310 236 581 q 167 208 167 251 q 207 108 167 138 q 342 78 247 78 z "},"å":{"ha":799,"x_min":53,"x_max":771,"o":"m 476 725 q 386 757 419 725 q 353 840 353 789 q 357 874 353 857 q 420 981 371 939 q 540 1024 469 1024 q 633 991 599 1024 q 667 907 667 958 q 663 874 667 890 q 599 767 649 808 q 476 725 549 725 m 490 789 q 567 821 536 789 q 597 896 597 853 q 580 942 597 925 q 526 958 563 958 q 451 926 482 958 q 421 850 421 894 q 438 806 421 822 q 490 789 456 789 m 293 -14 q 53 201 53 -14 q 65 310 53 250 q 146 507 89 425 q 282 631 203 589 q 451 672 361 672 q 560 658 514 672 q 647 610 606 643 l 657 658 l 771 658 l 632 0 l 535 0 l 540 69 q 426 6 485 26 q 293 -14 367 -14 m 342 78 q 551 157 460 78 l 626 515 q 558 564 597 547 q 463 581 519 581 q 179 310 236 581 q 167 208 167 251 q 207 108 167 138 q 342 78 247 78 z "},"ǻ":{"ha":799,"x_min":53,"x_max":775,"o":"m 672 1274 l 775 1274 l 615 1088 l 524 1088 l 672 1274 m 464 721 q 374 753 407 721 q 340 836 340 785 q 344 869 340 853 q 408 977 358 935 q 528 1019 457 1019 q 620 987 586 1019 q 654 903 654 954 q 650 869 654 886 q 586 763 636 804 q 464 721 536 721 m 478 785 q 554 817 524 785 q 585 892 585 849 q 567 938 585 921 q 514 954 550 954 q 439 922 469 954 q 408 846 408 890 q 426 801 408 818 q 478 785 443 785 m 293 -14 q 53 201 53 -14 q 65 310 53 250 q 146 507 89 425 q 282 631 203 589 q 451 672 361 672 q 560 658 514 672 q 647 610 606 643 l 657 658 l 771 658 l 632 0 l 535 0 l 540 69 q 426 6 485 26 q 293 -14 367 -14 m 342 78 q 551 157 460 78 l 626 515 q 558 564 597 547 q 463 581 519 581 q 179 310 236 581 q 167 208 167 251 q 207 108 167 138 q 342 78 247 78 z "},"ã":{"ha":799,"x_min":53,"x_max":771,"o":"m 583 753 q 535 760 558 753 q 479 781 513 767 q 394 806 424 806 q 269 757 319 806 l 288 844 q 344 874 308 863 q 413 886 379 886 q 462 879 439 886 q 513 858 485 872 q 560 840 540 846 q 601 833 579 833 q 718 883 672 833 l 700 794 q 650 764 682 775 q 583 753 618 753 m 293 -14 q 53 201 53 -14 q 65 310 53 250 q 146 507 89 425 q 282 631 203 589 q 451 672 361 672 q 560 658 514 672 q 647 610 606 643 l 657 658 l 771 658 l 632 0 l 535 0 l 540 69 q 426 6 485 26 q 293 -14 367 -14 m 342 78 q 551 157 460 78 l 626 515 q 558 564 597 547 q 463 581 519 581 q 179 310 236 581 q 167 208 167 251 q 207 108 167 138 q 342 78 247 78 z "},"æ":{"ha":1224,"x_min":33,"x_max":1176,"o":"m 228 -14 q 88 26 143 -14 q 33 139 33 65 q 39 185 33 163 q 133 335 58 281 q 336 390 207 390 l 565 390 l 574 431 q 581 485 581 465 q 544 555 581 533 q 418 576 508 576 q 190 540 303 576 l 211 635 q 453 672 317 672 q 672 571 628 672 q 940 672 769 672 q 1115 616 1054 672 q 1176 467 1176 560 q 1169 400 1176 429 l 1143 276 l 656 276 q 651 219 651 246 q 701 109 651 140 q 872 78 750 78 q 1067 113 974 78 l 1047 24 q 831 -14 954 -14 q 667 17 726 -14 q 576 111 608 47 q 435 20 518 54 q 228 -14 351 -14 m 1058 358 l 1071 413 q 1078 472 1078 440 q 1042 553 1078 526 q 924 581 1006 581 q 753 528 810 581 q 672 358 697 475 l 1058 358 m 278 79 q 411 103 354 79 q 519 175 468 128 l 547 303 l 321 303 q 204 274 244 303 q 151 185 164 246 q 147 153 147 168 q 179 96 147 113 q 278 79 211 79 z "},"ǽ":{"ha":1224,"x_min":33,"x_max":1176,"o":"m 792 958 l 894 958 l 735 725 l 643 725 l 792 958 m 228 -14 q 88 26 143 -14 q 33 139 33 65 q 39 185 33 163 q 133 335 58 281 q 336 390 207 390 l 565 390 l 574 431 q 581 485 581 465 q 544 555 581 533 q 418 576 508 576 q 190 540 303 576 l 211 635 q 453 672 317 672 q 672 571 628 672 q 940 672 769 672 q 1115 616 1054 672 q 1176 467 1176 560 q 1169 400 1176 429 l 1143 276 l 656 276 q 651 219 651 246 q 701 109 651 140 q 872 78 750 78 q 1067 113 974 78 l 1047 24 q 831 -14 954 -14 q 667 17 726 -14 q 576 111 608 47 q 435 20 518 54 q 228 -14 351 -14 m 1058 358 l 1071 413 q 1078 472 1078 440 q 1042 553 1078 526 q 924 581 1006 581 q 753 528 810 581 q 672 358 697 475 l 1058 358 m 278 79 q 411 103 354 79 q 519 175 468 128 l 547 303 l 321 303 q 204 274 244 303 q 151 185 164 246 q 147 153 147 168 q 179 96 147 113 q 278 79 211 79 z "},"b":{"ha":799,"x_min":28,"x_max":743,"o":"m 358 -14 q 234 6 285 -14 q 147 69 183 26 l 125 0 l 28 0 l 226 936 l 340 936 l 271 610 q 503 672 374 672 q 678 615 614 672 q 743 443 743 558 q 731 335 743 396 q 601 71 692 156 q 358 -14 511 -14 m 349 78 q 524 141 458 78 q 617 335 589 204 q 629 438 629 393 q 588 547 629 514 q 453 581 546 581 q 250 515 340 581 l 175 157 q 349 78 229 78 z "},"c":{"ha":681,"x_min":58,"x_max":675,"o":"m 335 -14 q 129 49 200 -14 q 58 228 58 111 q 69 329 58 281 q 212 587 106 501 q 490 672 318 672 q 594 663 553 672 q 675 635 636 654 l 656 544 q 492 581 588 581 q 288 521 365 581 q 183 329 211 461 q 171 231 171 274 q 219 114 171 150 q 381 78 268 78 q 565 114 476 78 l 546 22 q 335 -14 450 -14 z "},"ć":{"ha":681,"x_min":58,"x_max":675,"o":"m 553 958 l 656 958 l 496 725 l 404 725 l 553 958 m 335 -14 q 129 49 200 -14 q 58 228 58 111 q 69 329 58 281 q 212 587 106 501 q 490 672 318 672 q 594 663 553 672 q 675 635 636 654 l 656 544 q 492 581 588 581 q 288 521 365 581 q 183 329 211 461 q 171 231 171 274 q 219 114 171 150 q 381 78 268 78 q 565 114 476 78 l 546 22 q 335 -14 450 -14 z "},"č":{"ha":681,"x_min":58,"x_max":707,"o":"m 297 931 l 390 931 l 467 789 l 604 931 l 707 931 l 504 725 l 413 725 l 297 931 m 335 -14 q 129 49 200 -14 q 58 228 58 111 q 69 329 58 281 q 212 587 106 501 q 490 672 318 672 q 594 663 553 672 q 675 635 636 654 l 656 544 q 492 581 588 581 q 288 521 365 581 q 183 329 211 461 q 171 231 171 274 q 219 114 171 150 q 381 78 268 78 q 565 114 476 78 l 546 22 q 335 -14 450 -14 z "},"ç":{"ha":681,"x_min":58,"x_max":675,"o":"m 231 -333 q 180 -330 208 -333 q 136 -322 151 -326 l 151 -253 q 236 -264 189 -264 q 335 -248 303 -264 q 375 -190 367 -232 q 378 -172 378 -176 q 353 -135 378 -144 q 272 -126 328 -126 l 221 -126 l 282 -11 q 115 61 172 0 q 58 228 58 122 q 69 329 58 281 q 212 587 106 501 q 490 672 318 672 q 594 663 553 672 q 675 635 636 654 l 656 544 q 492 581 588 581 q 288 521 365 581 q 183 329 211 461 q 171 231 171 274 q 219 114 171 150 q 381 78 268 78 q 565 114 476 78 l 546 22 q 360 -14 460 -10 l 332 -67 q 429 -91 396 -67 q 463 -160 463 -115 q 458 -192 463 -175 q 231 -333 428 -333 z "},"ĉ":{"ha":681,"x_min":58,"x_max":675,"o":"m 456 931 l 547 931 l 664 725 l 569 725 l 492 867 l 356 725 l 254 725 l 456 931 m 335 -14 q 129 49 200 -14 q 58 228 58 111 q 69 329 58 281 q 212 587 106 501 q 490 672 318 672 q 594 663 553 672 q 675 635 636 654 l 656 544 q 492 581 588 581 q 288 521 365 581 q 183 329 211 461 q 171 231 171 274 q 219 114 171 150 q 381 78 268 78 q 565 114 476 78 l 546 22 q 335 -14 450 -14 z "},"ċ":{"ha":681,"x_min":58,"x_max":675,"o":"m 449 863 l 560 863 l 538 756 l 426 756 l 449 863 m 335 -14 q 129 49 200 -14 q 58 228 58 111 q 69 329 58 281 q 212 587 106 501 q 490 672 318 672 q 594 663 553 672 q 675 635 636 654 l 656 544 q 492 581 588 581 q 288 521 365 581 q 183 329 211 461 q 171 231 171 274 q 219 114 171 150 q 381 78 268 78 q 565 114 476 78 l 546 22 q 335 -14 450 -14 z "},"d":{"ha":799,"x_min":56,"x_max":831,"o":"m 293 -14 q 118 42 181 -14 q 56 213 56 99 q 69 328 56 267 q 201 587 106 501 q 440 672 297 672 q 647 610 568 672 l 717 936 l 831 936 l 632 0 l 535 0 l 540 69 q 426 6 485 26 q 293 -14 367 -14 m 342 78 q 551 157 460 78 l 626 515 q 554 563 599 546 q 451 581 510 581 q 277 520 343 581 q 183 328 211 460 q 169 221 169 261 q 210 113 169 147 q 342 78 251 78 z "},"ð":{"ha":796,"x_min":49,"x_max":878,"o":"m 321 -14 q 118 42 188 -14 q 49 199 49 99 q 57 272 49 233 q 425 561 119 561 q 542 541 482 561 q 644 483 601 521 l 658 547 q 678 690 678 647 q 674 733 678 715 l 461 649 l 476 721 l 643 788 q 504 824 606 824 q 290 792 386 824 l 308 878 q 526 908 410 908 q 740 826 679 908 l 878 882 l 863 808 l 768 771 q 781 675 781 729 q 765 542 781 618 l 719 326 q 586 67 682 149 q 321 -14 490 -14 m 340 72 q 515 126 450 72 q 604 290 581 179 l 628 401 q 535 457 588 436 q 428 478 483 478 q 246 425 310 478 q 160 272 182 372 q 153 213 153 235 q 198 108 153 143 q 340 72 243 72 z "},"ď":{"ha":971,"x_min":56,"x_max":1081,"o":"m 981 975 l 1081 975 l 917 735 l 828 735 l 981 975 m 293 -14 q 118 42 181 -14 q 56 213 56 99 q 69 328 56 267 q 201 587 106 501 q 440 672 297 672 q 647 610 568 672 l 717 936 l 831 936 l 632 0 l 535 0 l 540 69 q 426 6 485 26 q 293 -14 367 -14 m 342 78 q 551 157 460 78 l 626 515 q 554 563 599 546 q 451 581 510 581 q 277 520 343 581 q 183 328 211 460 q 169 221 169 261 q 210 113 169 147 q 342 78 251 78 z "},"đ":{"ha":796,"x_min":56,"x_max":878,"o":"m 858 756 l 792 756 l 632 0 l 535 0 l 540 69 q 426 6 485 26 q 293 -14 367 -14 q 118 42 181 -14 q 56 213 56 99 q 69 328 56 267 q 201 587 106 501 q 440 672 297 672 q 647 610 568 672 l 678 756 l 421 756 l 440 846 l 697 846 l 717 936 l 831 936 l 811 846 l 878 846 l 858 756 m 626 515 q 554 563 599 546 q 451 581 510 581 q 277 520 343 581 q 183 328 211 460 q 169 221 169 261 q 210 113 169 147 q 342 78 251 78 q 551 157 460 78 l 626 515 z "},"ḍ":{"ha":799,"x_min":56,"x_max":831,"o":"m 293 -14 q 118 42 181 -14 q 56 213 56 99 q 69 328 56 267 q 201 587 106 501 q 440 672 297 672 q 647 610 568 672 l 717 936 l 831 936 l 632 0 l 535 0 l 540 69 q 426 6 485 26 q 293 -14 367 -14 m 342 78 q 551 157 460 78 l 626 515 q 554 563 599 546 q 451 581 510 581 q 277 520 343 581 q 183 328 211 460 q 169 221 169 261 q 210 113 169 147 q 342 78 251 78 m 267 -121 l 378 -121 l 356 -228 l 244 -228 l 267 -121 z "},"ḏ":{"ha":799,"x_min":56,"x_max":831,"o":"m 293 -14 q 118 42 181 -14 q 56 213 56 99 q 69 328 56 267 q 201 587 106 501 q 440 672 297 672 q 647 610 568 672 l 717 936 l 831 936 l 632 0 l 535 0 l 540 69 q 426 6 485 26 q 293 -14 367 -14 m 342 78 q 551 157 460 78 l 626 515 q 554 563 599 546 q 451 581 510 581 q 277 520 343 581 q 183 328 211 460 q 169 221 169 261 q 210 113 169 147 q 342 78 251 78 m 117 -118 l 515 -118 l 499 -200 l 100 -200 l 117 -118 z "},"e":{"ha":740,"x_min":57,"x_max":694,"o":"m 347 -14 q 57 224 57 -14 q 69 332 57 272 q 457 672 143 672 q 635 618 575 672 q 694 472 694 564 q 686 400 694 438 l 660 276 l 172 276 q 168 217 168 243 q 189 134 168 164 q 258 91 210 104 q 389 78 306 78 q 583 113 490 78 l 564 24 q 347 -14 471 -14 m 575 358 l 588 413 q 594 469 594 447 q 558 553 594 525 q 440 581 522 581 q 272 526 331 581 q 189 358 214 472 l 575 358 z "},"é":{"ha":740,"x_min":57,"x_max":694,"o":"m 549 958 l 651 958 l 492 725 l 400 725 l 549 958 m 347 -14 q 57 224 57 -14 q 69 332 57 272 q 457 672 143 672 q 635 618 575 672 q 694 472 694 564 q 686 400 694 438 l 660 276 l 172 276 q 168 217 168 243 q 189 134 168 164 q 258 91 210 104 q 389 78 306 78 q 583 113 490 78 l 564 24 q 347 -14 471 -14 m 575 358 l 588 413 q 594 469 594 447 q 558 553 594 525 q 440 581 522 581 q 272 526 331 581 q 189 358 214 472 l 575 358 z "},"ĕ":{"ha":740,"x_min":57,"x_max":694,"o":"m 456 725 q 349 759 385 725 q 313 853 313 793 q 318 900 313 867 l 394 900 q 390 863 390 879 q 468 797 390 797 q 586 900 564 797 l 671 900 q 456 725 633 725 m 347 -14 q 57 224 57 -14 q 69 332 57 272 q 457 672 143 672 q 635 618 575 672 q 694 472 694 564 q 686 400 694 438 l 660 276 l 172 276 q 168 217 168 243 q 189 134 168 164 q 258 91 210 104 q 389 78 306 78 q 583 113 490 78 l 564 24 q 347 -14 471 -14 m 575 358 l 588 413 q 594 469 594 447 q 558 553 594 525 q 440 581 522 581 q 272 526 331 581 q 189 358 214 472 l 575 358 z "},"ě":{"ha":740,"x_min":57,"x_max":714,"o":"m 304 931 l 397 931 l 474 789 l 611 931 l 714 931 l 511 725 l 419 725 l 304 931 m 347 -14 q 57 224 57 -14 q 69 332 57 272 q 457 672 143 672 q 635 618 575 672 q 694 472 694 564 q 686 400 694 438 l 660 276 l 172 276 q 168 217 168 243 q 189 134 168 164 q 258 91 210 104 q 389 78 306 78 q 583 113 490 78 l 564 24 q 347 -14 471 -14 m 575 358 l 588 413 q 594 469 594 447 q 558 553 594 525 q 440 581 522 581 q 272 526 331 581 q 189 358 214 472 l 575 358 z "},"ê":{"ha":740,"x_min":57,"x_max":694,"o":"m 450 931 l 542 931 l 658 725 l 564 725 l 486 867 l 350 725 l 249 725 l 450 931 m 347 -14 q 57 224 57 -14 q 69 332 57 272 q 457 672 143 672 q 635 618 575 672 q 694 472 694 564 q 686 400 694 438 l 660 276 l 172 276 q 168 217 168 243 q 189 134 168 164 q 258 91 210 104 q 389 78 306 78 q 583 113 490 78 l 564 24 q 347 -14 471 -14 m 575 358 l 588 413 q 594 469 594 447 q 558 553 594 525 q 440 581 522 581 q 272 526 331 581 q 189 358 214 472 l 575 358 z "},"ế":{"ha":740,"x_min":57,"x_max":814,"o":"m 724 1049 l 814 1049 l 683 875 l 601 875 l 724 1049 m 447 888 l 539 888 l 658 724 l 565 724 l 486 839 l 358 724 l 258 724 l 447 888 m 347 -14 q 57 224 57 -14 q 69 332 57 272 q 457 672 143 672 q 635 618 575 672 q 694 472 694 564 q 686 400 694 438 l 660 276 l 172 276 q 168 217 168 243 q 189 134 168 164 q 258 91 210 104 q 389 78 306 78 q 583 113 490 78 l 564 24 q 347 -14 471 -14 m 575 358 l 588 413 q 594 469 594 447 q 558 553 594 525 q 440 581 522 581 q 272 526 331 581 q 189 358 214 472 l 575 358 z "},"ệ":{"ha":740,"x_min":57,"x_max":694,"o":"m 456 931 l 547 931 l 664 725 l 569 725 l 492 867 l 356 725 l 254 725 l 456 931 m 347 -14 q 57 224 57 -14 q 69 332 57 272 q 457 672 143 672 q 635 618 575 672 q 694 472 694 564 q 686 400 694 438 l 660 276 l 172 276 q 168 217 168 243 q 189 134 168 164 q 258 91 210 104 q 389 78 306 78 q 583 113 490 78 l 564 24 q 347 -14 471 -14 m 575 358 l 588 413 q 594 469 594 447 q 558 553 594 525 q 440 581 522 581 q 272 526 331 581 q 189 358 214 472 l 575 358 m 225 -121 l 336 -121 l 314 -228 l 203 -228 l 225 -121 z "},"ề":{"ha":740,"x_min":57,"x_max":694,"o":"m 264 1069 l 354 1069 l 403 896 l 321 896 l 264 1069 m 471 908 l 563 908 l 681 744 l 588 744 l 510 860 l 381 744 l 282 744 l 471 908 m 347 -14 q 57 224 57 -14 q 69 332 57 272 q 457 672 143 672 q 635 618 575 672 q 694 472 694 564 q 686 400 694 438 l 660 276 l 172 276 q 168 217 168 243 q 189 134 168 164 q 258 91 210 104 q 389 78 306 78 q 583 113 490 78 l 564 24 q 347 -14 471 -14 m 575 358 l 588 413 q 594 469 594 447 q 558 553 594 525 q 440 581 522 581 q 272 526 331 581 q 189 358 214 472 l 575 358 z "},"ể":{"ha":740,"x_min":57,"x_max":831,"o":"m 621 933 q 713 949 688 936 q 743 992 738 963 q 744 1006 744 997 q 685 1042 744 1042 q 603 1025 646 1042 l 615 1085 q 717 1101 663 1101 q 801 1081 771 1101 q 831 1021 831 1060 q 828 997 831 1014 q 786 926 818 951 q 696 894 754 901 l 686 846 l 603 846 l 621 933 m 443 888 l 535 888 l 654 724 l 561 724 l 482 839 l 354 724 l 254 724 l 443 888 m 347 -14 q 57 224 57 -14 q 69 332 57 272 q 457 672 143 672 q 635 618 575 672 q 694 472 694 564 q 686 400 694 438 l 660 276 l 172 276 q 168 217 168 243 q 189 134 168 164 q 258 91 210 104 q 389 78 306 78 q 583 113 490 78 l 564 24 q 347 -14 471 -14 m 575 358 l 588 413 q 594 469 594 447 q 558 553 594 525 q 440 581 522 581 q 272 526 331 581 q 189 358 214 472 l 575 358 z "},"ễ":{"ha":740,"x_min":57,"x_max":718,"o":"m 596 892 q 554 898 574 892 q 500 918 535 904 q 456 935 474 929 q 421 940 439 940 q 306 896 351 940 l 322 974 q 374 1001 342 990 q 436 1011 407 1011 q 481 1005 460 1011 q 529 986 503 999 q 572 969 554 975 q 611 963 590 963 q 718 1008 674 963 l 700 929 q 656 902 685 913 q 596 892 628 892 m 450 889 l 542 889 l 661 725 l 568 725 l 489 840 l 361 725 l 261 725 l 450 889 m 347 -14 q 57 224 57 -14 q 69 332 57 272 q 457 672 143 672 q 635 618 575 672 q 694 472 694 564 q 686 400 694 438 l 660 276 l 172 276 q 168 217 168 243 q 189 134 168 164 q 258 91 210 104 q 389 78 306 78 q 583 113 490 78 l 564 24 q 347 -14 471 -14 m 575 358 l 588 413 q 594 469 594 447 q 558 553 594 525 q 440 581 522 581 q 272 526 331 581 q 189 358 214 472 l 575 358 z "},"ë":{"ha":740,"x_min":57,"x_max":694,"o":"m 304 861 l 411 861 l 389 757 l 282 757 l 304 861 m 547 861 l 656 861 l 633 757 l 525 757 l 547 861 m 347 -14 q 57 224 57 -14 q 69 332 57 272 q 457 672 143 672 q 635 618 575 672 q 694 472 694 564 q 686 400 694 438 l 660 276 l 172 276 q 168 217 168 243 q 189 134 168 164 q 258 91 210 104 q 389 78 306 78 q 583 113 490 78 l 564 24 q 347 -14 471 -14 m 575 358 l 588 413 q 594 469 594 447 q 558 553 594 525 q 440 581 522 581 q 272 526 331 581 q 189 358 214 472 l 575 358 z "},"ė":{"ha":740,"x_min":57,"x_max":694,"o":"m 429 863 l 540 863 l 518 756 l 407 756 l 429 863 m 347 -14 q 57 224 57 -14 q 69 332 57 272 q 457 672 143 672 q 635 618 575 672 q 694 472 694 564 q 686 400 694 438 l 660 276 l 172 276 q 168 217 168 243 q 189 134 168 164 q 258 91 210 104 q 389 78 306 78 q 583 113 490 78 l 564 24 q 347 -14 471 -14 m 575 358 l 588 413 q 594 469 594 447 q 558 553 594 525 q 440 581 522 581 q 272 526 331 581 q 189 358 214 472 l 575 358 z "},"ẹ":{"ha":740,"x_min":57,"x_max":694,"o":"m 347 -14 q 57 224 57 -14 q 69 332 57 272 q 457 672 143 672 q 635 618 575 672 q 694 472 694 564 q 686 400 694 438 l 660 276 l 172 276 q 168 217 168 243 q 189 134 168 164 q 258 91 210 104 q 389 78 306 78 q 583 113 490 78 l 564 24 q 347 -14 471 -14 m 575 358 l 588 413 q 594 469 594 447 q 558 553 594 525 q 440 581 522 581 q 272 526 331 581 q 189 358 214 472 l 575 358 m 249 -121 l 360 -121 l 338 -228 l 226 -228 l 249 -121 z "},"è":{"ha":740,"x_min":57,"x_max":694,"o":"m 350 958 l 453 958 l 501 725 l 410 725 l 350 958 m 347 -14 q 57 224 57 -14 q 69 332 57 272 q 457 672 143 672 q 635 618 575 672 q 694 472 694 564 q 686 400 694 438 l 660 276 l 172 276 q 168 217 168 243 q 189 134 168 164 q 258 91 210 104 q 389 78 306 78 q 583 113 490 78 l 564 24 q 347 -14 471 -14 m 575 358 l 588 413 q 594 469 594 447 q 558 553 594 525 q 440 581 522 581 q 272 526 331 581 q 189 358 214 472 l 575 358 z "},"ẻ":{"ha":740,"x_min":57,"x_max":694,"o":"m 438 840 q 545 860 517 844 q 582 913 574 875 q 583 931 583 919 q 561 965 583 954 q 486 975 539 975 q 437 970 464 975 q 392 958 410 965 l 406 1029 q 463 1042 428 1038 q 528 1047 497 1047 q 633 1021 594 1047 q 672 947 672 994 q 669 921 672 938 q 622 832 657 863 q 518 792 588 801 l 504 725 l 413 725 l 438 840 m 347 -14 q 57 224 57 -14 q 69 332 57 272 q 457 672 143 672 q 635 618 575 672 q 694 472 694 564 q 686 400 694 438 l 660 276 l 172 276 q 168 217 168 243 q 189 134 168 164 q 258 91 210 104 q 389 78 306 78 q 583 113 490 78 l 564 24 q 347 -14 471 -14 m 575 358 l 588 413 q 594 469 594 447 q 558 553 594 525 q 440 581 522 581 q 272 526 331 581 q 189 358 214 472 l 575 358 z "},"ē":{"ha":740,"x_min":57,"x_max":699,"o":"m 300 851 l 699 851 l 682 769 l 283 769 l 300 851 m 347 -14 q 57 224 57 -14 q 69 332 57 272 q 457 672 143 672 q 635 618 575 672 q 694 472 694 564 q 686 400 694 438 l 660 276 l 172 276 q 168 217 168 243 q 189 134 168 164 q 258 91 210 104 q 389 78 306 78 q 583 113 490 78 l 564 24 q 347 -14 471 -14 m 575 358 l 588 413 q 594 469 594 447 q 558 553 594 525 q 440 581 522 581 q 272 526 331 581 q 189 358 214 472 l 575 358 z "},"ę":{"ha":740,"x_min":57,"x_max":694,"o":"m 365 -306 q 281 -283 313 -306 q 250 -214 250 -261 q 253 -183 250 -194 q 295 -90 263 -135 q 375 -12 328 -46 q 347 -14 365 -14 q 57 224 57 -14 q 69 332 57 272 q 457 672 143 672 q 635 618 575 672 q 694 472 694 564 q 686 400 694 438 l 660 276 l 172 276 q 168 217 168 243 q 189 134 168 164 q 258 91 210 104 q 389 78 306 78 q 583 113 490 78 l 564 24 q 483 0 522 7 q 394 -79 428 -36 q 350 -167 360 -122 q 347 -187 347 -181 q 362 -218 347 -210 q 407 -226 376 -226 q 445 -222 425 -226 q 478 -211 465 -218 l 461 -289 q 365 -306 426 -306 m 575 358 l 588 413 q 594 469 594 447 q 558 553 594 525 q 440 581 522 581 q 272 526 331 581 q 189 358 214 472 l 575 358 z "},"ẽ":{"ha":740,"x_min":57,"x_max":701,"o":"m 567 753 q 519 760 542 753 q 463 781 496 767 q 378 806 407 806 q 253 757 303 806 l 271 844 q 327 874 292 863 q 396 886 363 886 q 445 879 422 886 q 496 858 468 872 q 543 840 524 846 q 585 833 563 833 q 701 883 656 833 l 683 794 q 633 764 665 775 q 567 753 601 753 m 347 -14 q 57 224 57 -14 q 69 332 57 272 q 457 672 143 672 q 635 618 575 672 q 694 472 694 564 q 686 400 694 438 l 660 276 l 172 276 q 168 217 168 243 q 189 134 168 164 q 258 91 210 104 q 389 78 306 78 q 583 113 490 78 l 564 24 q 347 -14 471 -14 m 575 358 l 588 413 q 594 469 594 447 q 558 553 594 525 q 440 581 522 581 q 272 526 331 581 q 189 358 214 472 l 575 358 z "},"f":{"ha":481,"x_min":71,"x_max":596,"o":"m 190 568 l 92 568 l 111 658 l 210 658 l 231 754 q 313 905 251 851 q 479 958 374 958 q 596 938 544 958 l 578 851 q 489 867 536 867 q 388 842 419 867 q 344 754 357 817 l 324 658 l 501 658 l 476 568 l 304 568 l 185 0 l 71 0 l 190 568 z "},"g":{"ha":799,"x_min":58,"x_max":771,"o":"m 257 -244 q 169 -240 219 -244 q 94 -231 119 -236 l 115 -133 q 182 -146 140 -142 q 258 -150 224 -150 q 433 -115 365 -150 q 517 -3 500 -79 l 531 63 q 299 0 426 0 q 122 56 186 0 q 58 225 58 111 q 71 335 58 275 q 199 592 108 511 q 439 672 289 672 q 563 652 513 672 q 651 589 614 632 l 674 658 l 771 658 l 633 13 q 511 -178 607 -111 q 257 -244 415 -244 m 349 92 q 551 157 461 92 l 624 501 q 449 581 569 581 q 273 523 333 581 q 185 335 213 465 q 172 233 172 276 q 215 124 172 157 q 349 92 257 92 z "},"ğ":{"ha":799,"x_min":58,"x_max":771,"o":"m 450 725 q 343 759 379 725 q 307 853 307 793 q 313 900 307 867 l 389 900 q 385 863 385 879 q 463 797 385 797 q 581 900 558 797 l 665 900 q 450 725 628 725 m 257 -244 q 169 -240 219 -244 q 94 -231 119 -236 l 115 -133 q 182 -146 140 -142 q 258 -150 224 -150 q 433 -115 365 -150 q 517 -3 500 -79 l 531 63 q 299 0 426 0 q 122 56 186 0 q 58 225 58 111 q 71 335 58 275 q 199 592 108 511 q 439 672 289 672 q 563 652 513 672 q 651 589 614 632 l 674 658 l 771 658 l 633 13 q 511 -178 607 -111 q 257 -244 415 -244 m 349 92 q 551 157 461 92 l 624 501 q 449 581 569 581 q 273 523 333 581 q 185 335 213 465 q 172 233 172 276 q 215 124 172 157 q 349 92 257 92 z "},"ǧ":{"ha":799,"x_min":58,"x_max":771,"o":"m 313 931 l 406 931 l 482 789 l 619 931 l 722 931 l 519 725 l 428 725 l 313 931 m 257 -244 q 169 -240 219 -244 q 94 -231 119 -236 l 115 -133 q 182 -146 140 -142 q 258 -150 224 -150 q 433 -115 365 -150 q 517 -3 500 -79 l 531 63 q 299 0 426 0 q 122 56 186 0 q 58 225 58 111 q 71 335 58 275 q 199 592 108 511 q 439 672 289 672 q 563 652 513 672 q 651 589 614 632 l 674 658 l 771 658 l 633 13 q 511 -178 607 -111 q 257 -244 415 -244 m 349 92 q 551 157 461 92 l 624 501 q 449 581 569 581 q 273 523 333 581 q 185 335 213 465 q 172 233 172 276 q 215 124 172 157 q 349 92 257 92 z "},"ĝ":{"ha":799,"x_min":58,"x_max":771,"o":"m 447 931 l 539 931 l 656 725 l 561 725 l 483 867 l 347 725 l 246 725 l 447 931 m 257 -244 q 169 -240 219 -244 q 94 -231 119 -236 l 115 -133 q 182 -146 140 -142 q 258 -150 224 -150 q 433 -115 365 -150 q 517 -3 500 -79 l 531 63 q 299 0 426 0 q 122 56 186 0 q 58 225 58 111 q 71 335 58 275 q 199 592 108 511 q 439 672 289 672 q 563 652 513 672 q 651 589 614 632 l 674 658 l 771 658 l 633 13 q 511 -178 607 -111 q 257 -244 415 -244 m 349 92 q 551 157 461 92 l 624 501 q 449 581 569 581 q 273 523 333 581 q 185 335 213 465 q 172 233 172 276 q 215 124 172 157 q 349 92 257 92 z "},"ģ":{"ha":799,"x_min":58,"x_max":771,"o":"m 497 971 l 581 971 l 489 725 l 386 725 l 497 971 m 257 -244 q 169 -240 219 -244 q 94 -231 119 -236 l 115 -133 q 182 -146 140 -142 q 258 -150 224 -150 q 433 -115 365 -150 q 517 -3 500 -79 l 531 63 q 299 0 426 0 q 122 56 186 0 q 58 225 58 111 q 71 335 58 275 q 199 592 108 511 q 439 672 289 672 q 563 652 513 672 q 651 589 614 632 l 674 658 l 771 658 l 633 13 q 511 -178 607 -111 q 257 -244 415 -244 m 349 92 q 551 157 461 92 l 624 501 q 449 581 569 581 q 273 523 333 581 q 185 335 213 465 q 172 233 172 276 q 215 124 172 157 q 349 92 257 92 z "},"ġ":{"ha":799,"x_min":58,"x_max":771,"o":"m 417 856 l 528 856 l 506 749 l 394 749 l 417 856 m 257 -244 q 169 -240 219 -244 q 94 -231 119 -236 l 115 -133 q 182 -146 140 -142 q 258 -150 224 -150 q 433 -115 365 -150 q 517 -3 500 -79 l 531 63 q 299 0 426 0 q 122 56 186 0 q 58 225 58 111 q 71 335 58 275 q 199 592 108 511 q 439 672 289 672 q 563 652 513 672 q 651 589 614 632 l 674 658 l 771 658 l 633 13 q 511 -178 607 -111 q 257 -244 415 -244 m 349 92 q 551 157 461 92 l 624 501 q 449 581 569 581 q 273 523 333 581 q 185 335 213 465 q 172 233 172 276 q 215 124 172 157 q 349 92 257 92 z "},"ḡ":{"ha":799,"x_min":58,"x_max":771,"o":"m 294 847 l 693 847 l 676 765 l 278 765 l 294 847 m 257 -244 q 169 -240 219 -244 q 94 -231 119 -236 l 115 -133 q 182 -146 140 -142 q 258 -150 224 -150 q 433 -115 365 -150 q 517 -3 500 -79 l 531 63 q 299 0 426 0 q 122 56 186 0 q 58 225 58 111 q 71 335 58 275 q 199 592 108 511 q 439 672 289 672 q 563 652 513 672 q 651 589 614 632 l 674 658 l 771 658 l 633 13 q 511 -178 607 -111 q 257 -244 415 -244 m 349 92 q 551 157 461 92 l 624 501 q 449 581 569 581 q 273 523 333 581 q 185 335 213 465 q 172 233 172 276 q 215 124 172 157 q 349 92 257 92 z "},"h":{"ha":792,"x_min":28,"x_max":731,"o":"m 226 936 l 340 936 l 265 588 q 535 672 388 672 q 681 629 631 672 q 731 503 731 586 q 722 431 731 471 l 632 0 l 518 0 l 608 426 q 615 488 615 465 q 583 560 615 539 q 476 581 551 581 q 357 556 421 581 q 246 493 293 532 l 142 0 l 28 0 l 226 936 z "},"ħ":{"ha":815,"x_min":51,"x_max":754,"o":"m 211 756 l 132 756 l 151 846 l 231 846 l 250 936 l 364 936 l 344 846 l 575 846 l 556 756 l 325 756 l 289 588 q 558 672 411 672 q 704 629 654 672 q 754 503 754 586 q 746 431 754 471 l 656 0 l 542 0 l 632 426 q 639 488 639 465 q 607 560 639 539 q 500 581 575 581 q 381 556 444 581 q 269 493 317 532 l 165 0 l 51 0 l 211 756 z "},"ḫ":{"ha":792,"x_min":28,"x_max":731,"o":"m 226 936 l 340 936 l 265 588 q 535 672 388 672 q 681 629 631 672 q 731 503 731 586 q 722 431 731 471 l 632 0 l 518 0 l 608 426 q 615 488 615 465 q 583 560 615 539 q 476 581 551 581 q 357 556 421 581 q 246 493 293 532 l 142 0 l 28 0 l 226 936 m 279 -272 q 172 -239 208 -272 q 136 -146 136 -206 q 142 -97 136 -119 l 218 -97 q 214 -136 214 -118 q 233 -184 214 -168 q 290 -200 251 -200 q 408 -97 386 -200 l 493 -97 q 422 -226 476 -179 q 279 -272 368 -272 z "},"ĥ":{"ha":792,"x_min":28,"x_max":731,"o":"m 444 1179 l 536 1179 l 653 974 l 558 974 l 481 1115 l 344 974 l 243 974 l 444 1179 m 226 936 l 340 936 l 265 588 q 535 672 388 672 q 681 629 631 672 q 731 503 731 586 q 722 431 731 471 l 632 0 l 518 0 l 608 426 q 615 488 615 465 q 583 560 615 539 q 476 581 551 581 q 357 556 421 581 q 246 493 293 532 l 142 0 l 28 0 l 226 936 z "},"ḥ":{"ha":792,"x_min":28,"x_max":731,"o":"m 226 936 l 340 936 l 265 588 q 535 672 388 672 q 681 629 631 672 q 731 503 731 586 q 722 431 731 471 l 632 0 l 518 0 l 608 426 q 615 488 615 465 q 583 560 615 539 q 476 581 551 581 q 357 556 421 581 q 246 493 293 532 l 142 0 l 28 0 l 226 936 m 253 -121 l 364 -121 l 342 -228 l 231 -228 l 253 -121 z "},"i":{"ha":411,"x_min":129,"x_max":439,"o":"m 313 917 l 439 917 l 417 813 l 290 813 l 313 917 m 249 568 l 147 568 l 178 658 l 382 658 l 243 0 l 129 0 l 249 568 z "},"ı":{"ha":410,"x_min":129,"x_max":382,"o":"m 249 568 l 147 568 l 178 658 l 382 658 l 243 0 l 129 0 l 249 568 z "},"í":{"ha":410,"x_min":129,"x_max":531,"o":"m 428 958 l 531 958 l 371 725 l 279 725 l 428 958 m 249 568 l 147 568 l 178 658 l 382 658 l 243 0 l 129 0 l 249 568 z "},"ĭ":{"ha":410,"x_min":129,"x_max":518,"o":"m 303 724 q 196 757 232 724 q 160 850 160 790 q 165 899 160 876 l 242 899 q 236 858 236 868 q 255 811 236 826 q 314 796 274 796 q 433 899 411 796 l 518 899 q 447 770 500 817 q 303 724 393 724 m 249 568 l 147 568 l 178 658 l 382 658 l 243 0 l 129 0 l 249 568 z "},"ǐ":{"ha":410,"x_min":129,"x_max":544,"o":"m 135 931 l 228 931 l 304 789 l 442 931 l 544 931 l 342 725 l 250 725 l 135 931 m 249 568 l 147 568 l 178 658 l 382 658 l 243 0 l 129 0 l 249 568 z "},"î":{"ha":410,"x_min":110,"x_max":519,"o":"m 311 931 l 403 931 l 519 725 l 425 725 l 347 867 l 211 725 l 110 725 l 311 931 m 249 568 l 147 568 l 178 658 l 382 658 l 243 0 l 129 0 l 249 568 z "},"ï":{"ha":410,"x_min":129,"x_max":503,"o":"m 151 861 l 258 861 l 236 757 l 129 757 l 151 861 m 394 861 l 503 861 l 481 757 l 372 757 l 394 861 m 249 568 l 147 568 l 178 658 l 382 658 l 243 0 l 129 0 l 249 568 z "},"ị":{"ha":410,"x_min":83,"x_max":439,"o":"m 313 917 l 439 917 l 417 813 l 290 813 l 313 917 m 249 568 l 147 568 l 178 658 l 382 658 l 243 0 l 129 0 l 249 568 m 106 -121 l 217 -121 l 194 -228 l 83 -228 l 106 -121 z "},"ì":{"ha":410,"x_min":129,"x_max":392,"o":"m 240 958 l 343 958 l 392 725 l 300 725 l 240 958 m 249 568 l 147 568 l 178 658 l 382 658 l 243 0 l 129 0 l 249 568 z "},"ỉ":{"ha":410,"x_min":129,"x_max":507,"o":"m 272 840 q 380 860 351 844 q 417 913 408 875 q 418 931 418 919 q 396 965 418 954 q 321 975 374 975 q 272 970 299 975 q 226 958 244 965 l 240 1029 q 297 1042 263 1038 q 363 1047 332 1047 q 468 1021 429 1047 q 507 947 507 994 q 504 921 507 938 q 457 832 492 863 q 353 792 422 801 l 339 725 l 247 725 l 272 840 m 249 568 l 147 568 l 178 658 l 382 658 l 243 0 l 129 0 l 249 568 z "},"ĳ":{"ha":703,"x_min":129,"x_max":731,"o":"m 313 917 l 439 917 l 417 813 l 290 813 l 313 917 m 604 917 l 731 917 l 708 813 l 582 813 l 604 917 m 249 568 l 147 568 l 178 658 l 382 658 l 243 0 l 129 0 l 249 568 m 267 -325 q 147 -306 197 -325 l 167 -215 q 247 -229 207 -229 q 353 -206 322 -229 q 396 -121 383 -182 l 542 568 l 440 568 l 471 658 l 675 658 l 508 -131 q 428 -274 488 -224 q 267 -325 368 -325 z "},"ī":{"ha":410,"x_min":103,"x_max":519,"o":"m 119 861 l 519 861 l 503 779 l 103 779 l 119 861 m 249 568 l 147 568 l 178 658 l 382 658 l 243 0 l 129 0 l 249 568 z "},"į":{"ha":410,"x_min":-14,"x_max":439,"o":"m 313 917 l 439 917 l 417 813 l 290 813 l 313 917 m 101 -306 q 17 -283 49 -306 q -14 -214 -14 -261 q 27 -97 -14 -156 q 129 0 68 -37 l 249 568 l 147 568 l 178 658 l 382 658 l 243 0 l 221 0 q 130 -79 164 -36 q 86 -167 96 -122 q 83 -187 83 -181 q 98 -218 83 -210 q 143 -226 113 -226 q 181 -222 161 -226 q 214 -211 201 -218 l 197 -289 q 101 -306 161 -306 z "},"ĩ":{"ha":410,"x_min":83,"x_max":532,"o":"m 397 732 q 349 739 372 732 q 293 760 326 746 q 208 785 238 785 q 83 736 133 785 l 101 824 q 158 853 122 842 q 226 865 193 865 q 276 858 253 865 q 326 838 299 851 q 374 819 354 825 q 415 813 393 813 q 532 863 486 813 l 514 774 q 464 743 496 754 q 397 732 432 732 m 249 568 l 147 568 l 178 658 l 382 658 l 243 0 l 129 0 l 249 568 z "},"j":{"ha":411,"x_min":-144,"x_max":439,"o":"m 313 917 l 439 917 l 417 813 l 290 813 l 313 917 m -25 -325 q -144 -306 -94 -325 l -125 -215 q -44 -229 -85 -229 q 61 -206 31 -229 q 104 -121 92 -182 l 250 568 l 149 568 l 179 658 l 383 658 l 217 -131 q 136 -274 196 -224 q -25 -325 76 -325 z "},"ȷ":{"ha":411,"x_min":-144,"x_max":383,"o":"m -25 -325 q -144 -306 -94 -325 l -125 -215 q -44 -229 -85 -229 q 60 -205 28 -229 q 104 -121 92 -181 l 250 568 l 149 568 l 179 658 l 383 658 l 217 -131 q 134 -273 197 -221 q -25 -325 71 -325 z "},"ĵ":{"ha":411,"x_min":-144,"x_max":531,"o":"m 322 931 l 414 931 l 531 725 l 436 725 l 358 867 l 222 725 l 121 725 l 322 931 m -25 -325 q -144 -306 -94 -325 l -125 -215 q -44 -229 -85 -229 q 60 -205 28 -229 q 104 -121 92 -181 l 250 568 l 149 568 l 179 658 l 383 658 l 217 -131 q 134 -273 197 -221 q -25 -325 71 -325 z "},"k":{"ha":736,"x_min":28,"x_max":721,"o":"m 226 936 l 340 936 l 219 368 l 589 658 l 721 658 l 396 397 l 597 0 l 478 0 l 311 336 l 193 243 l 142 0 l 28 0 l 226 936 z "},"ķ":{"ha":736,"x_min":28,"x_max":721,"o":"m 226 936 l 340 936 l 219 368 l 589 658 l 721 658 l 396 397 l 597 0 l 478 0 l 311 336 l 193 243 l 142 0 l 28 0 l 226 936 m 242 -51 l 344 -51 l 233 -297 l 150 -297 l 242 -51 z "},"ĸ":{"ha":736,"x_min":28,"x_max":721,"o":"m 167 658 l 281 658 l 214 342 l 589 658 l 721 658 l 392 378 l 597 0 l 478 0 l 308 315 l 186 213 l 142 0 l 28 0 l 167 658 z "},"l":{"ha":365,"x_min":51,"x_max":340,"o":"m 167 -14 q 82 14 113 -14 q 51 93 51 42 q 57 142 51 118 l 226 936 l 340 936 l 174 154 q 169 118 169 132 q 180 90 169 97 q 215 82 190 82 q 279 90 246 82 l 261 0 q 167 -14 221 -14 z "},"ĺ":{"ha":365,"x_min":51,"x_max":493,"o":"m 390 1244 l 493 1244 l 333 1011 l 242 1011 l 390 1244 m 167 -14 q 82 14 113 -14 q 51 93 51 42 q 57 142 51 118 l 226 936 l 340 936 l 174 154 q 169 118 169 132 q 180 90 169 97 q 215 82 190 82 q 279 90 246 82 l 261 0 q 167 -14 221 -14 z "},"ľ":{"ha":451,"x_min":51,"x_max":604,"o":"m 501 1133 l 604 1133 l 493 888 l 410 888 l 501 1133 m 167 -14 q 82 14 113 -14 q 51 93 51 42 q 57 142 51 118 l 226 936 l 340 936 l 174 154 q 169 118 169 132 q 180 90 169 97 q 215 82 190 82 q 279 90 246 82 l 261 0 q 167 -14 221 -14 z "},"ļ":{"ha":365,"x_min":14,"x_max":340,"o":"m 167 -14 q 82 14 113 -14 q 51 93 51 42 q 57 142 51 118 l 226 936 l 340 936 l 174 154 q 169 118 169 132 q 180 90 169 97 q 215 82 190 82 q 279 90 246 82 l 261 0 q 167 -14 221 -14 m 106 -51 l 208 -51 l 97 -297 l 14 -297 l 106 -51 z "},"ŀ":{"ha":433,"x_min":51,"x_max":460,"o":"m 167 -14 q 82 14 113 -14 q 51 93 51 42 q 57 142 51 118 l 226 936 l 340 936 l 174 154 q 169 118 169 132 q 180 90 169 97 q 215 82 190 82 q 279 90 246 82 l 261 0 q 167 -14 221 -14 m 349 476 l 460 476 l 438 369 l 326 369 l 349 476 z "},"ḷ":{"ha":365,"x_min":43,"x_max":340,"o":"m 167 -14 q 82 14 113 -14 q 51 93 51 42 q 57 142 51 118 l 226 936 l 340 936 l 174 154 q 169 118 169 132 q 180 90 169 97 q 215 82 190 82 q 279 90 246 82 l 261 0 q 167 -14 221 -14 m 65 -121 l 176 -121 l 154 -228 l 43 -228 l 65 -121 z "},"ḹ":{"ha":365,"x_min":43,"x_max":517,"o":"m 118 1083 l 517 1083 l 500 1001 l 101 1001 l 118 1083 m 167 -14 q 82 14 113 -14 q 51 93 51 42 q 57 142 51 118 l 226 936 l 340 936 l 174 154 q 169 118 169 132 q 180 90 169 97 q 215 82 190 82 q 279 90 246 82 l 261 0 q 167 -14 221 -14 m 65 -121 l 176 -121 l 154 -228 l 43 -228 l 65 -121 z "},"ḻ":{"ha":365,"x_min":-86,"x_max":340,"o":"m 167 -14 q 82 14 113 -14 q 51 93 51 42 q 57 142 51 118 l 226 936 l 340 936 l 174 154 q 169 118 169 132 q 180 90 169 97 q 215 82 190 82 q 279 90 246 82 l 261 0 q 167 -14 221 -14 m -69 -101 l 329 -101 l 313 -183 l -86 -183 l -69 -101 z "},"ł":{"ha":365,"x_min":-54,"x_max":447,"o":"m 167 -14 q 82 14 113 -14 q 51 93 51 42 q 57 142 51 118 l 110 390 l -54 325 l -33 424 l 131 489 l 226 936 l 340 936 l 256 539 l 447 617 l 426 518 l 235 440 l 174 154 q 169 118 169 132 q 180 90 169 97 q 215 82 190 82 q 279 90 246 82 l 261 0 q 167 -14 221 -14 z "},"m":{"ha":1188,"x_min":28,"x_max":1129,"o":"m 167 658 l 269 658 l 261 583 q 518 672 390 672 q 675 582 651 672 q 947 672 801 672 q 1129 515 1129 672 q 1119 438 1129 489 l 1028 0 l 915 0 l 1006 426 q 1014 492 1014 464 q 983 560 1014 540 q 882 581 953 581 q 774 562 826 581 q 679 507 721 543 q 671 426 679 468 l 581 0 l 474 0 l 563 424 q 572 499 572 475 q 547 563 572 544 q 458 581 521 581 q 350 558 406 581 q 244 496 294 535 l 140 0 l 28 0 l 167 658 z "},"ṃ":{"ha":1188,"x_min":28,"x_max":1129,"o":"m 167 658 l 269 658 l 261 583 q 518 672 390 672 q 675 582 651 672 q 947 672 801 672 q 1129 515 1129 672 q 1119 438 1129 489 l 1028 0 l 915 0 l 1006 426 q 1014 492 1014 464 q 983 560 1014 540 q 882 581 953 581 q 774 562 826 581 q 679 507 721 543 q 671 426 679 468 l 581 0 l 474 0 l 563 424 q 572 499 572 475 q 547 563 572 544 q 458 581 521 581 q 350 558 406 581 q 244 496 294 535 l 140 0 l 28 0 l 167 658 m 444 -121 l 556 -121 l 533 -228 l 422 -228 l 444 -121 z "},"n":{"ha":792,"x_min":28,"x_max":731,"o":"m 167 658 l 269 658 l 261 583 q 535 672 389 672 q 731 507 731 672 q 722 431 731 472 l 632 0 l 518 0 l 608 426 q 617 490 617 464 q 585 560 617 540 q 476 581 554 581 q 356 558 418 581 q 247 497 293 535 l 142 0 l 28 0 l 167 658 z "},"ń":{"ha":792,"x_min":28,"x_max":731,"o":"m 563 958 l 665 958 l 506 725 l 414 725 l 563 958 m 167 658 l 269 658 l 261 583 q 535 672 389 672 q 731 507 731 672 q 722 431 731 472 l 632 0 l 518 0 l 608 426 q 617 490 617 464 q 585 560 617 540 q 476 581 554 581 q 356 558 418 581 q 247 497 293 535 l 142 0 l 28 0 l 167 658 z "},"ŉ":{"ha":913,"x_min":114,"x_max":851,"o":"m 206 901 l 308 901 l 197 656 l 114 656 l 206 901 m 288 658 l 390 658 l 382 583 q 656 672 510 672 q 851 507 851 672 q 843 431 851 472 l 753 0 l 639 0 l 729 426 q 738 490 738 464 q 706 560 738 540 q 597 581 675 581 q 476 558 539 581 q 368 497 414 535 l 263 0 l 149 0 l 288 658 z "},"ň":{"ha":792,"x_min":28,"x_max":731,"o":"m 303 931 l 396 931 l 472 789 l 610 931 l 713 931 l 510 725 l 418 725 l 303 931 m 167 658 l 269 658 l 261 583 q 535 672 389 672 q 731 507 731 672 q 722 431 731 472 l 632 0 l 518 0 l 608 426 q 617 490 617 464 q 585 560 617 540 q 476 581 554 581 q 356 558 418 581 q 247 497 293 535 l 142 0 l 28 0 l 167 658 z "},"ņ":{"ha":792,"x_min":28,"x_max":731,"o":"m 167 658 l 269 658 l 261 583 q 535 672 389 672 q 731 507 731 672 q 722 431 731 472 l 632 0 l 518 0 l 608 426 q 617 490 617 464 q 585 560 617 540 q 476 581 554 581 q 356 558 418 581 q 247 497 293 535 l 142 0 l 28 0 l 167 658 m 282 -51 l 385 -51 l 274 -297 l 190 -297 l 282 -51 z "},"ṅ":{"ha":792,"x_min":28,"x_max":731,"o":"m 449 863 l 560 863 l 538 756 l 426 756 l 449 863 m 167 658 l 269 658 l 261 583 q 535 672 389 672 q 731 507 731 672 q 722 431 731 472 l 632 0 l 518 0 l 608 426 q 617 490 617 464 q 585 560 617 540 q 476 581 554 581 q 356 558 418 581 q 247 497 293 535 l 142 0 l 28 0 l 167 658 z "},"ṇ":{"ha":792,"x_min":28,"x_max":731,"o":"m 167 658 l 269 658 l 261 583 q 535 672 389 672 q 731 507 731 672 q 722 431 731 472 l 632 0 l 518 0 l 608 426 q 617 490 617 464 q 585 560 617 540 q 476 581 554 581 q 356 558 418 581 q 247 497 293 535 l 142 0 l 28 0 l 167 658 m 249 -121 l 360 -121 l 338 -228 l 226 -228 l 249 -121 z "},"ŋ":{"ha":792,"x_min":28,"x_max":731,"o":"m 361 -325 q 242 -306 292 -325 l 261 -215 q 342 -229 301 -229 q 447 -205 415 -229 q 492 -121 479 -181 l 608 426 q 617 492 617 464 q 585 560 617 540 q 472 581 553 581 q 352 558 411 581 q 247 497 293 536 l 142 0 l 28 0 l 167 658 l 269 658 l 261 583 q 535 672 389 672 q 681 630 631 672 q 731 504 731 588 q 722 431 731 471 l 604 -131 q 523 -274 583 -224 q 361 -325 463 -325 z "},"ṉ":{"ha":792,"x_min":28,"x_max":731,"o":"m 167 658 l 269 658 l 261 583 q 535 672 389 672 q 731 507 731 672 q 722 431 731 472 l 632 0 l 518 0 l 608 426 q 617 490 617 464 q 585 560 617 540 q 476 581 554 581 q 356 558 418 581 q 247 497 293 535 l 142 0 l 28 0 l 167 658 m 104 -99 l 503 -99 l 486 -181 l 88 -181 l 104 -99 z "},"ñ":{"ha":792,"x_min":28,"x_max":731,"o":"m 590 753 q 542 760 565 753 q 486 781 519 767 q 401 806 431 806 q 276 757 326 806 l 294 844 q 351 874 315 863 q 419 886 386 886 q 469 879 446 886 q 519 858 492 872 q 567 840 547 846 q 608 833 586 833 q 725 883 679 833 l 707 794 q 657 764 689 775 q 590 753 625 753 m 167 658 l 269 658 l 261 583 q 535 672 389 672 q 731 507 731 672 q 722 431 731 472 l 632 0 l 518 0 l 608 426 q 617 490 617 464 q 585 560 617 540 q 476 581 554 581 q 356 558 418 581 q 247 497 293 535 l 142 0 l 28 0 l 167 658 z "},"o":{"ha":797,"x_min":57,"x_max":740,"o":"m 325 -14 q 124 46 192 -14 q 57 221 57 106 q 69 329 57 271 q 201 587 106 501 q 471 672 296 672 q 672 612 604 672 q 740 438 740 551 q 728 329 740 388 q 597 72 692 157 q 325 -14 501 -14 m 346 83 q 524 142 463 83 q 614 329 586 200 q 628 438 628 399 q 587 543 628 511 q 450 575 546 575 q 273 517 335 575 q 183 329 211 458 q 169 221 169 260 q 210 115 169 147 q 346 83 251 83 z "},"ó":{"ha":797,"x_min":57,"x_max":740,"o":"m 585 958 l 688 958 l 528 725 l 436 725 l 585 958 m 325 -14 q 124 46 192 -14 q 57 221 57 106 q 69 329 57 271 q 201 587 106 501 q 471 672 296 672 q 672 612 604 672 q 740 438 740 551 q 728 329 740 388 q 597 72 692 157 q 325 -14 501 -14 m 346 83 q 524 142 463 83 q 614 329 586 200 q 628 438 628 399 q 587 543 628 511 q 450 575 546 575 q 273 517 335 575 q 183 329 211 458 q 169 221 169 260 q 210 115 169 147 q 346 83 251 83 z "},"ŏ":{"ha":797,"x_min":57,"x_max":740,"o":"m 479 725 q 372 759 408 725 q 336 853 336 793 q 342 900 336 867 l 418 900 q 414 863 414 879 q 492 797 414 797 q 610 900 588 797 l 694 900 q 479 725 657 725 m 325 -14 q 124 46 192 -14 q 57 221 57 106 q 69 329 57 271 q 201 587 106 501 q 471 672 296 672 q 672 612 604 672 q 740 438 740 551 q 728 329 740 388 q 597 72 692 157 q 325 -14 501 -14 m 346 83 q 524 142 463 83 q 614 329 586 200 q 628 438 628 399 q 587 543 628 511 q 450 575 546 575 q 273 517 335 575 q 183 329 211 458 q 169 221 169 260 q 210 115 169 147 q 346 83 251 83 z "},"ǒ":{"ha":797,"x_min":57,"x_max":740,"o":"m 321 931 l 414 931 l 490 789 l 628 931 l 731 931 l 528 725 l 436 725 l 321 931 m 325 -14 q 124 46 192 -14 q 57 221 57 106 q 69 329 57 271 q 201 587 106 501 q 471 672 296 672 q 672 612 604 672 q 740 438 740 551 q 728 329 740 388 q 597 72 692 157 q 325 -14 501 -14 m 346 83 q 524 142 463 83 q 614 329 586 200 q 628 438 628 399 q 587 543 628 511 q 450 575 546 575 q 273 517 335 575 q 183 329 211 458 q 169 221 169 260 q 210 115 169 147 q 346 83 251 83 z "},"ô":{"ha":797,"x_min":57,"x_max":740,"o":"m 479 931 l 571 931 l 688 725 l 593 725 l 515 867 l 379 725 l 278 725 l 479 931 m 325 -14 q 124 46 192 -14 q 57 221 57 106 q 69 329 57 271 q 201 587 106 501 q 471 672 296 672 q 672 612 604 672 q 740 438 740 551 q 728 329 740 388 q 597 72 692 157 q 325 -14 501 -14 m 346 83 q 524 142 463 83 q 614 329 586 200 q 628 438 628 399 q 587 543 628 511 q 450 575 546 575 q 273 517 335 575 q 183 329 211 458 q 169 221 169 260 q 210 115 169 147 q 346 83 251 83 z "},"ố":{"ha":797,"x_min":57,"x_max":836,"o":"m 746 1050 l 836 1050 l 706 876 l 624 876 l 746 1050 m 469 889 l 561 889 l 681 725 l 588 725 l 508 840 l 381 725 l 281 725 l 469 889 m 325 -14 q 124 46 192 -14 q 57 221 57 106 q 69 329 57 271 q 201 587 106 501 q 471 672 296 672 q 672 612 604 672 q 740 438 740 551 q 728 329 740 388 q 597 72 692 157 q 325 -14 501 -14 m 346 83 q 524 142 463 83 q 614 329 586 200 q 628 438 628 399 q 587 543 628 511 q 450 575 546 575 q 273 517 335 575 q 183 329 211 458 q 169 221 169 260 q 210 115 169 147 q 346 83 251 83 z "},"ộ":{"ha":797,"x_min":57,"x_max":740,"o":"m 479 931 l 571 931 l 688 725 l 593 725 l 515 867 l 379 725 l 278 725 l 479 931 m 325 -14 q 124 46 192 -14 q 57 221 57 106 q 69 329 57 271 q 201 587 106 501 q 471 672 296 672 q 672 612 604 672 q 740 438 740 551 q 728 329 740 388 q 597 72 692 157 q 325 -14 501 -14 m 346 83 q 524 142 463 83 q 614 329 586 200 q 628 438 628 399 q 587 543 628 511 q 450 575 546 575 q 273 517 335 575 q 183 329 211 458 q 169 221 169 260 q 210 115 169 147 q 346 83 251 83 m 249 -121 l 360 -121 l 338 -228 l 226 -228 l 249 -121 z "},"ồ":{"ha":797,"x_min":57,"x_max":740,"o":"m 253 1050 l 343 1050 l 392 876 l 310 876 l 253 1050 m 460 889 l 551 889 l 669 725 l 576 725 l 499 840 l 369 725 l 271 725 l 460 889 m 325 -14 q 124 46 192 -14 q 57 221 57 106 q 69 329 57 271 q 201 587 106 501 q 471 672 296 672 q 672 612 604 672 q 740 438 740 551 q 728 329 740 388 q 597 72 692 157 q 325 -14 501 -14 m 346 83 q 524 142 463 83 q 614 329 586 200 q 628 438 628 399 q 587 543 628 511 q 450 575 546 575 q 273 517 335 575 q 183 329 211 458 q 169 221 169 260 q 210 115 169 147 q 346 83 251 83 z "},"ổ":{"ha":797,"x_min":57,"x_max":846,"o":"m 636 935 q 728 951 703 938 q 758 993 753 964 q 760 1007 760 999 q 700 1043 760 1043 q 618 1026 661 1043 l 631 1086 q 732 1103 678 1103 q 816 1082 786 1103 q 846 1022 846 1061 q 843 999 846 1015 q 801 928 833 953 q 711 896 769 903 l 701 847 l 618 847 l 636 935 m 458 889 l 550 889 l 669 725 l 576 725 l 497 840 l 369 725 l 269 725 l 458 889 m 325 -14 q 124 46 192 -14 q 57 221 57 106 q 69 329 57 271 q 201 587 106 501 q 471 672 296 672 q 672 612 604 672 q 740 438 740 551 q 728 329 740 388 q 597 72 692 157 q 325 -14 501 -14 m 346 83 q 524 142 463 83 q 614 329 586 200 q 628 438 628 399 q 587 543 628 511 q 450 575 546 575 q 273 517 335 575 q 183 329 211 458 q 169 221 169 260 q 210 115 169 147 q 346 83 251 83 z "},"ỗ":{"ha":797,"x_min":57,"x_max":751,"o":"m 629 949 q 588 955 607 949 q 533 975 568 961 q 490 992 507 986 q 454 997 472 997 q 339 953 385 997 l 356 1031 q 407 1058 374 1047 q 469 1068 440 1068 q 515 1062 493 1068 q 563 1043 536 1056 q 643 1019 610 1019 q 751 1065 707 1019 l 735 986 q 690 959 719 969 q 629 949 661 949 m 483 725 q 361 760 407 725 q 315 868 315 796 q 321 919 315 896 l 392 919 q 386 874 386 897 q 412 812 386 832 q 496 792 438 792 q 601 824 560 792 q 656 919 642 856 l 729 919 q 642 772 707 818 q 483 725 578 725 m 325 -14 q 124 46 192 -14 q 57 221 57 106 q 69 329 57 271 q 201 587 106 501 q 471 672 296 672 q 672 612 604 672 q 740 438 740 551 q 728 329 740 388 q 597 72 692 157 q 325 -14 501 -14 m 346 83 q 524 142 463 83 q 614 329 586 200 q 628 438 628 399 q 587 543 628 511 q 450 575 546 575 q 273 517 335 575 q 183 329 211 458 q 169 221 169 260 q 210 115 169 147 q 346 83 251 83 z "},"ö":{"ha":797,"x_min":57,"x_max":740,"o":"m 336 861 l 443 861 l 421 757 l 314 757 l 336 861 m 579 861 l 688 861 l 665 757 l 557 757 l 579 861 m 325 -14 q 124 46 192 -14 q 57 221 57 106 q 69 329 57 271 q 201 587 106 501 q 471 672 296 672 q 672 612 604 672 q 740 438 740 551 q 728 329 740 388 q 597 72 692 157 q 325 -14 501 -14 m 346 83 q 524 142 463 83 q 614 329 586 200 q 628 438 628 399 q 587 543 628 511 q 450 575 546 575 q 273 517 335 575 q 183 329 211 458 q 169 221 169 260 q 210 115 169 147 q 346 83 251 83 z "},"ọ":{"ha":797,"x_min":57,"x_max":740,"o":"m 325 -14 q 124 46 192 -14 q 57 221 57 106 q 69 329 57 271 q 201 587 106 501 q 471 672 296 672 q 672 612 604 672 q 740 438 740 551 q 728 329 740 388 q 597 72 692 157 q 325 -14 501 -14 m 346 83 q 524 142 463 83 q 614 329 586 200 q 628 438 628 399 q 587 543 628 511 q 450 575 546 575 q 273 517 335 575 q 183 329 211 458 q 169 221 169 260 q 210 115 169 147 q 346 83 251 83 m 249 -121 l 360 -121 l 338 -228 l 226 -228 l 249 -121 z "},"ò":{"ha":797,"x_min":57,"x_max":740,"o":"m 386 958 l 489 958 l 538 725 l 446 725 l 386 958 m 325 -14 q 124 46 192 -14 q 57 221 57 106 q 69 329 57 271 q 201 587 106 501 q 471 672 296 672 q 672 612 604 672 q 740 438 740 551 q 728 329 740 388 q 597 72 692 157 q 325 -14 501 -14 m 346 83 q 524 142 463 83 q 614 329 586 200 q 628 438 628 399 q 587 543 628 511 q 450 575 546 575 q 273 517 335 575 q 183 329 211 458 q 169 221 169 260 q 210 115 169 147 q 346 83 251 83 z "},"ỏ":{"ha":797,"x_min":57,"x_max":740,"o":"m 464 840 q 572 860 543 844 q 608 913 600 875 q 610 931 610 919 q 588 965 610 954 q 513 975 565 975 q 463 970 490 975 q 418 958 436 965 l 432 1029 q 489 1042 454 1038 q 554 1047 524 1047 q 660 1021 621 1047 q 699 947 699 994 q 696 921 699 938 q 649 832 683 863 q 544 792 614 801 l 531 725 l 439 725 l 464 840 m 325 -14 q 124 46 192 -14 q 57 221 57 106 q 69 329 57 271 q 201 587 106 501 q 471 672 296 672 q 672 612 604 672 q 740 438 740 551 q 728 329 740 388 q 597 72 692 157 q 325 -14 501 -14 m 346 83 q 524 142 463 83 q 614 329 586 200 q 628 438 628 399 q 587 543 628 511 q 450 575 546 575 q 273 517 335 575 q 183 329 211 458 q 169 221 169 260 q 210 115 169 147 q 346 83 251 83 z "},"ơ":{"ha":914,"x_min":57,"x_max":974,"o":"m 325 -14 q 124 46 192 -14 q 57 221 57 106 q 69 329 57 271 q 201 587 106 501 q 471 672 296 672 q 703 576 639 672 q 819 615 782 578 q 875 744 856 651 l 974 744 q 890 564 949 622 q 736 493 832 506 l 735 494 q 740 433 740 456 q 728 329 740 386 q 597 72 692 157 q 325 -14 501 -14 m 346 83 q 524 142 463 83 q 614 329 586 200 q 628 438 628 399 q 587 543 628 511 q 450 575 546 575 q 273 517 335 575 q 183 329 211 458 q 169 221 169 260 q 210 115 169 147 q 346 83 251 83 z "},"ớ":{"ha":914,"x_min":57,"x_max":974,"o":"m 597 958 l 700 958 l 540 725 l 449 725 l 597 958 m 325 -14 q 124 46 192 -14 q 57 221 57 106 q 69 329 57 271 q 201 587 106 501 q 471 672 296 672 q 703 576 639 672 q 819 615 782 578 q 875 744 856 651 l 974 744 q 890 564 949 622 q 736 493 832 506 l 735 494 q 740 433 740 456 q 728 329 740 386 q 597 72 692 157 q 325 -14 501 -14 m 346 83 q 524 142 463 83 q 614 329 586 200 q 628 438 628 399 q 587 543 628 511 q 450 575 546 575 q 273 517 335 575 q 183 329 211 458 q 169 221 169 260 q 210 115 169 147 q 346 83 251 83 z "},"ợ":{"ha":914,"x_min":57,"x_max":974,"o":"m 325 -14 q 124 46 192 -14 q 57 221 57 106 q 69 329 57 271 q 201 587 106 501 q 471 672 296 672 q 703 576 639 672 q 819 615 782 578 q 875 744 856 651 l 974 744 q 890 564 949 622 q 736 493 832 506 l 735 494 q 740 433 740 456 q 728 329 740 386 q 597 72 692 157 q 325 -14 501 -14 m 346 83 q 524 142 463 83 q 614 329 586 200 q 628 438 628 399 q 587 543 628 511 q 450 575 546 575 q 273 517 335 575 q 183 329 211 458 q 169 221 169 260 q 210 115 169 147 q 346 83 251 83 m 250 -121 l 361 -121 l 339 -228 l 228 -228 l 250 -121 z "},"ờ":{"ha":914,"x_min":57,"x_max":974,"o":"m 393 958 l 496 958 l 544 725 l 453 725 l 393 958 m 325 -14 q 124 46 192 -14 q 57 221 57 106 q 69 329 57 271 q 201 587 106 501 q 471 672 296 672 q 703 576 639 672 q 819 615 782 578 q 875 744 856 651 l 974 744 q 890 564 949 622 q 736 493 832 506 l 735 494 q 740 433 740 456 q 728 329 740 386 q 597 72 692 157 q 325 -14 501 -14 m 346 83 q 524 142 463 83 q 614 329 586 200 q 628 438 628 399 q 587 543 628 511 q 450 575 546 575 q 273 517 335 575 q 183 329 211 458 q 169 221 169 260 q 210 115 169 147 q 346 83 251 83 z "},"ở":{"ha":914,"x_min":57,"x_max":974,"o":"m 460 840 q 567 860 539 844 q 604 913 596 875 q 606 931 606 919 q 583 965 606 954 q 508 975 561 975 q 459 970 486 975 q 414 958 432 965 l 428 1029 q 485 1042 450 1038 q 550 1047 519 1047 q 656 1021 617 1047 q 694 947 694 994 q 692 921 694 938 q 644 832 679 863 q 540 792 610 801 l 526 725 l 435 725 l 460 840 m 325 -14 q 124 46 192 -14 q 57 221 57 106 q 69 329 57 271 q 201 587 106 501 q 471 672 296 672 q 703 576 639 672 q 819 615 782 578 q 875 744 856 651 l 974 744 q 890 564 949 622 q 736 493 832 506 l 735 494 q 740 433 740 456 q 728 329 740 386 q 597 72 692 157 q 325 -14 501 -14 m 346 83 q 524 142 463 83 q 614 329 586 200 q 628 438 628 399 q 587 543 628 511 q 450 575 546 575 q 273 517 335 575 q 183 329 211 458 q 169 221 169 260 q 210 115 169 147 q 346 83 251 83 z "},"ỡ":{"ha":914,"x_min":57,"x_max":974,"o":"m 601 751 q 553 758 576 751 q 497 779 531 765 q 413 804 442 804 q 288 756 338 804 l 306 843 q 362 873 326 861 q 431 885 397 885 q 480 878 457 885 q 531 857 503 871 q 578 838 558 844 q 619 832 597 832 q 736 882 690 832 l 718 793 q 668 763 700 774 q 601 751 636 751 m 325 -14 q 124 46 192 -14 q 57 221 57 106 q 69 329 57 271 q 201 587 106 501 q 471 672 296 672 q 703 576 639 672 q 819 615 782 578 q 875 744 856 651 l 974 744 q 890 564 949 622 q 736 493 832 506 l 735 494 q 740 433 740 456 q 728 329 740 386 q 597 72 692 157 q 325 -14 501 -14 m 346 83 q 524 142 463 83 q 614 329 586 200 q 628 438 628 399 q 587 543 628 511 q 450 575 546 575 q 273 517 335 575 q 183 329 211 458 q 169 221 169 260 q 210 115 169 147 q 346 83 251 83 z "},"ő":{"ha":797,"x_min":57,"x_max":832,"o":"m 438 936 l 546 936 l 390 725 l 296 725 l 438 936 m 724 936 l 832 936 l 675 725 l 581 725 l 724 936 m 325 -14 q 124 46 192 -14 q 57 221 57 106 q 69 329 57 271 q 201 587 106 501 q 471 672 296 672 q 672 612 604 672 q 740 438 740 551 q 728 329 740 388 q 597 72 692 157 q 325 -14 501 -14 m 346 83 q 524 142 463 83 q 614 329 586 200 q 628 438 628 399 q 587 543 628 511 q 450 575 546 575 q 273 517 335 575 q 183 329 211 458 q 169 221 169 260 q 210 115 169 147 q 346 83 251 83 z "},"ō":{"ha":797,"x_min":57,"x_max":740,"o":"m 310 851 l 708 851 l 692 769 l 293 769 l 310 851 m 325 -14 q 124 46 192 -14 q 57 221 57 106 q 69 329 57 271 q 201 587 106 501 q 471 672 296 672 q 672 612 604 672 q 740 438 740 551 q 728 329 740 388 q 597 72 692 157 q 325 -14 501 -14 m 346 83 q 524 142 463 83 q 614 329 586 200 q 628 438 628 399 q 587 543 628 511 q 450 575 546 575 q 273 517 335 575 q 183 329 211 458 q 169 221 169 260 q 210 115 169 147 q 346 83 251 83 z "},"ø":{"ha":797,"x_min":57,"x_max":740,"o":"m 169 15 q 57 221 57 69 q 69 329 57 271 q 201 587 106 501 q 471 672 296 672 q 546 667 499 672 l 585 733 l 685 733 l 631 639 q 740 436 740 582 q 728 329 740 388 q 597 72 692 157 q 325 -14 501 -14 q 254 -8 283 -14 l 217 -75 l 117 -75 l 169 15 m 492 572 q 450 575 464 575 q 273 517 335 575 q 183 329 211 458 q 169 219 169 257 q 222 107 169 138 l 492 572 m 346 83 q 524 142 463 83 q 614 329 586 200 q 628 436 628 399 q 578 549 628 517 l 308 85 q 346 83 321 83 z "},"ǿ":{"ha":797,"x_min":57,"x_max":740,"o":"m 567 958 l 669 958 l 510 725 l 418 725 l 567 958 m 169 15 q 57 221 57 69 q 69 329 57 271 q 201 587 106 501 q 471 672 296 672 q 546 667 499 672 l 585 733 l 685 733 l 631 639 q 740 436 740 582 q 728 329 740 388 q 597 72 692 157 q 325 -14 501 -14 q 254 -8 283 -14 l 217 -75 l 117 -75 l 169 15 m 492 572 q 450 575 464 575 q 273 517 335 575 q 183 329 211 458 q 169 219 169 257 q 222 107 169 138 l 492 572 m 346 83 q 524 142 463 83 q 614 329 586 200 q 628 436 628 399 q 578 549 628 517 l 308 85 q 346 83 321 83 z "},"õ":{"ha":797,"x_min":57,"x_max":740,"o":"m 594 760 q 547 767 569 760 q 490 788 524 774 q 406 813 435 813 q 281 764 331 813 l 299 851 q 355 881 319 869 q 424 893 390 893 q 473 886 450 893 q 524 865 496 879 q 571 847 551 853 q 613 840 590 840 q 729 890 683 840 l 711 801 q 661 771 693 782 q 594 760 629 760 m 325 -14 q 124 46 192 -14 q 57 221 57 106 q 69 329 57 271 q 201 587 106 501 q 471 672 296 672 q 672 612 604 672 q 740 438 740 551 q 728 329 740 388 q 597 72 692 157 q 325 -14 501 -14 m 346 83 q 524 142 463 83 q 614 329 586 200 q 628 438 628 399 q 587 543 628 511 q 450 575 546 575 q 273 517 335 575 q 183 329 211 458 q 169 221 169 260 q 210 115 169 147 q 346 83 251 83 z "},"œ":{"ha":1285,"x_min":57,"x_max":1239,"o":"m 325 -14 q 124 46 192 -14 q 57 221 57 106 q 69 329 57 271 q 201 587 106 501 q 471 672 296 672 q 711 556 654 672 q 1001 672 813 672 q 1179 618 1119 672 q 1239 472 1239 564 q 1231 400 1239 438 l 1204 276 l 717 276 q 713 217 713 243 q 733 134 713 164 q 802 91 754 104 q 933 78 850 78 q 1128 113 1035 78 l 1108 24 q 892 -14 1014 -14 q 626 103 688 -14 q 325 -14 526 -14 m 1119 358 l 1132 413 q 1139 469 1139 447 q 1103 553 1139 525 q 985 581 1067 581 q 817 526 875 581 q 733 358 758 472 l 1119 358 m 346 83 q 480 108 428 83 q 563 185 532 132 q 614 332 594 239 q 628 442 628 404 q 587 544 628 514 q 450 575 546 575 q 273 517 335 575 q 183 329 211 458 q 169 221 169 260 q 210 115 169 147 q 346 83 251 83 z "},"p":{"ha":799,"x_min":-36,"x_max":742,"o":"m 167 658 l 264 658 l 258 589 q 372 652 313 632 q 504 672 431 672 q 679 615 617 672 q 742 442 742 558 q 729 328 742 390 q 599 69 692 151 q 357 -14 507 -14 q 151 49 228 -14 l 78 -300 l -36 -300 l 167 658 m 346 78 q 522 136 457 78 q 615 328 586 194 q 628 435 628 389 q 588 545 628 510 q 456 581 547 581 q 247 501 339 581 l 171 143 q 346 78 232 78 z "},"þ":{"ha":799,"x_min":-36,"x_max":742,"o":"m 233 972 l 349 972 l 272 610 q 504 672 375 672 q 679 615 617 672 q 742 440 742 557 q 729 328 742 390 q 599 69 692 151 q 357 -14 507 -14 q 151 49 228 -14 l 78 -300 l -36 -300 l 233 972 m 346 78 q 524 135 461 78 q 615 328 586 193 q 628 435 628 389 q 588 545 628 510 q 456 581 547 581 q 247 501 339 581 l 171 143 q 346 78 232 78 z "},"q":{"ha":849,"x_min":57,"x_max":771,"o":"m 606 -336 q 510 -306 544 -336 q 476 -218 476 -276 q 482 -164 476 -190 l 528 49 q 294 -14 424 -14 q 120 44 183 -14 q 57 217 57 101 q 69 328 57 268 q 199 588 107 504 q 439 672 290 672 q 563 652 513 672 q 651 589 614 632 l 674 658 l 771 658 l 597 -158 q 592 -200 592 -181 q 606 -232 592 -224 q 654 -240 619 -240 q 715 -232 682 -240 l 696 -322 q 606 -336 656 -336 m 344 78 q 547 143 460 78 l 624 501 q 449 581 569 581 q 273 520 335 581 q 183 328 211 460 q 169 219 169 268 q 210 111 169 144 q 344 78 251 78 z "},"r":{"ha":494,"x_min":28,"x_max":525,"o":"m 167 658 l 269 658 l 260 575 q 388 633 317 607 q 525 672 458 660 l 507 583 q 367 544 442 571 q 246 490 292 518 l 142 0 l 28 0 l 167 658 z "},"ŕ":{"ha":494,"x_min":28,"x_max":525,"o":"m 342 958 l 444 958 l 285 725 l 193 725 l 342 958 m 167 658 l 269 658 l 260 575 q 388 633 317 607 q 525 672 458 660 l 507 583 q 367 544 442 571 q 246 490 292 518 l 142 0 l 28 0 l 167 658 z "},"ř":{"ha":494,"x_min":28,"x_max":525,"o":"m 83 931 l 176 931 l 253 789 l 390 931 l 493 931 l 290 725 l 199 725 l 83 931 m 167 658 l 269 658 l 260 575 q 388 633 317 607 q 525 672 458 660 l 507 583 q 367 544 442 571 q 246 490 292 518 l 142 0 l 28 0 l 167 658 z "},"ŗ":{"ha":494,"x_min":-74,"x_max":525,"o":"m 167 658 l 269 658 l 260 575 q 388 633 317 607 q 525 672 458 660 l 507 583 q 367 544 442 571 q 246 490 292 518 l 142 0 l 28 0 l 167 658 m 18 -51 l 121 -51 l 10 -297 l -74 -297 l 18 -51 z "},"ṛ":{"ha":494,"x_min":-18,"x_max":525,"o":"m 167 658 l 269 658 l 260 575 q 388 633 317 607 q 525 672 458 660 l 507 583 q 367 544 442 571 q 246 490 292 518 l 142 0 l 28 0 l 167 658 m 4 -121 l 115 -121 l 93 -228 l -18 -228 l 4 -121 z "},"ṝ":{"ha":494,"x_min":-18,"x_max":525,"o":"m 113 847 l 511 847 l 494 765 l 96 765 l 113 847 m 167 658 l 269 658 l 260 575 q 388 633 317 607 q 525 672 458 660 l 507 583 q 367 544 442 571 q 246 490 292 518 l 142 0 l 28 0 l 167 658 m 4 -121 l 115 -121 l 93 -228 l -18 -228 l 4 -121 z "},"ṟ":{"ha":494,"x_min":-135,"x_max":525,"o":"m 167 658 l 269 658 l 260 575 q 388 633 317 607 q 525 672 458 660 l 507 583 q 367 544 442 571 q 246 490 292 518 l 142 0 l 28 0 l 167 658 m -118 -99 l 281 -99 l 264 -181 l -135 -181 l -118 -99 z "},"s":{"ha":635,"x_min":19,"x_max":581,"o":"m 231 -14 q 117 -5 175 -14 q 19 17 58 4 l 40 117 q 236 83 132 83 q 367 102 326 83 q 418 172 407 121 q 421 194 421 189 q 394 243 421 226 q 296 286 368 260 l 258 300 q 138 361 178 329 q 99 450 99 393 q 104 492 99 461 q 191 628 124 583 q 400 672 258 672 q 581 646 504 672 l 560 546 q 478 567 522 560 q 397 575 435 575 q 270 557 313 575 q 218 493 228 539 q 215 472 215 479 q 231 435 215 450 q 272 410 246 421 q 360 378 297 400 q 497 312 456 346 q 538 219 538 278 q 532 174 538 196 q 442 31 511 75 q 231 -14 372 -14 z "},"ś":{"ha":635,"x_min":19,"x_max":589,"o":"m 486 958 l 589 958 l 429 725 l 338 725 l 486 958 m 231 -14 q 117 -5 175 -14 q 19 17 58 4 l 40 117 q 236 83 132 83 q 367 102 326 83 q 418 172 407 121 q 421 194 421 189 q 394 243 421 226 q 296 286 368 260 l 258 300 q 138 361 178 329 q 99 450 99 393 q 104 492 99 461 q 191 628 124 583 q 400 672 258 672 q 581 646 504 672 l 560 546 q 478 567 522 560 q 397 575 435 575 q 270 557 313 575 q 218 493 228 539 q 215 472 215 479 q 231 435 215 450 q 272 410 246 421 q 360 378 297 400 q 497 312 456 346 q 538 219 538 278 q 532 174 538 196 q 442 31 511 75 q 231 -14 372 -14 z "},"š":{"ha":635,"x_min":19,"x_max":661,"o":"m 251 931 l 344 931 l 421 789 l 558 931 l 661 931 l 458 725 l 367 725 l 251 931 m 231 -14 q 117 -5 175 -14 q 19 17 58 4 l 40 117 q 236 83 132 83 q 367 102 326 83 q 418 172 407 121 q 421 194 421 189 q 394 243 421 226 q 296 286 368 260 l 258 300 q 138 361 178 329 q 99 450 99 393 q 104 492 99 461 q 191 628 124 583 q 400 672 258 672 q 581 646 504 672 l 560 546 q 478 567 522 560 q 397 575 435 575 q 270 557 313 575 q 218 493 228 539 q 215 472 215 479 q 231 435 215 450 q 272 410 246 421 q 360 378 297 400 q 497 312 456 346 q 538 219 538 278 q 532 174 538 196 q 442 31 511 75 q 231 -14 372 -14 z "},"ş":{"ha":635,"x_min":19,"x_max":581,"o":"m 143 -333 q 92 -330 121 -333 q 49 -322 64 -326 l 64 -253 q 149 -264 101 -264 q 247 -248 215 -264 q 288 -190 279 -232 q 290 -172 290 -176 q 265 -135 290 -144 q 185 -126 240 -126 l 133 -126 l 193 -12 q 19 17 94 -8 l 40 117 q 236 83 132 83 q 367 102 326 83 q 418 172 407 121 q 421 194 421 189 q 394 243 421 226 q 296 286 368 260 l 258 300 q 138 361 178 329 q 99 450 99 393 q 104 492 99 461 q 191 628 124 583 q 400 672 258 672 q 581 646 504 672 l 560 546 q 478 567 522 560 q 397 575 435 575 q 270 557 313 575 q 218 493 228 539 q 215 472 215 479 q 231 435 215 450 q 272 410 246 421 q 360 378 297 400 q 497 312 456 346 q 538 219 538 278 q 532 174 538 196 q 453 38 513 82 q 274 -12 393 -7 l 244 -67 q 342 -91 308 -67 q 375 -160 375 -115 q 371 -192 375 -175 q 143 -333 340 -333 z "},"ŝ":{"ha":635,"x_min":19,"x_max":615,"o":"m 407 931 l 499 931 l 615 725 l 521 725 l 443 867 l 307 725 l 206 725 l 407 931 m 231 -14 q 117 -5 175 -14 q 19 17 58 4 l 40 117 q 236 83 132 83 q 367 102 326 83 q 418 172 407 121 q 421 194 421 189 q 394 243 421 226 q 296 286 368 260 l 258 300 q 138 361 178 329 q 99 450 99 393 q 104 492 99 461 q 191 628 124 583 q 400 672 258 672 q 581 646 504 672 l 560 546 q 478 567 522 560 q 397 575 435 575 q 270 557 313 575 q 218 493 228 539 q 215 472 215 479 q 231 435 215 450 q 272 410 246 421 q 360 378 297 400 q 497 312 456 346 q 538 219 538 278 q 532 174 538 196 q 442 31 511 75 q 231 -14 372 -14 z "},"ș":{"ha":635,"x_min":19,"x_max":581,"o":"m 231 -14 q 117 -5 175 -14 q 19 17 58 4 l 40 117 q 236 83 132 83 q 367 102 326 83 q 418 172 407 121 q 421 194 421 189 q 394 243 421 226 q 296 286 368 260 l 258 300 q 138 361 178 329 q 99 450 99 393 q 104 492 99 461 q 191 628 124 583 q 400 672 258 672 q 581 646 504 672 l 560 546 q 478 567 522 560 q 397 575 435 575 q 270 557 313 575 q 218 493 228 539 q 215 472 215 479 q 231 435 215 450 q 272 410 246 421 q 360 378 297 400 q 497 312 456 346 q 538 219 538 278 q 532 174 538 196 q 442 31 511 75 q 231 -14 372 -14 m 176 -72 l 279 -72 l 176 -303 l 89 -303 l 176 -72 z "},"ṡ":{"ha":635,"x_min":19,"x_max":581,"o":"m 390 863 l 501 863 l 479 756 l 368 756 l 390 863 m 231 -14 q 117 -5 175 -14 q 19 17 58 4 l 40 117 q 236 83 132 83 q 367 102 326 83 q 418 172 407 121 q 421 194 421 189 q 394 243 421 226 q 296 286 368 260 l 258 300 q 138 361 178 329 q 99 450 99 393 q 104 492 99 461 q 191 628 124 583 q 400 672 258 672 q 581 646 504 672 l 560 546 q 478 567 522 560 q 397 575 435 575 q 270 557 313 575 q 218 493 228 539 q 215 472 215 479 q 231 435 215 450 q 272 410 246 421 q 360 378 297 400 q 497 312 456 346 q 538 219 538 278 q 532 174 538 196 q 442 31 511 75 q 231 -14 372 -14 z "},"ṣ":{"ha":635,"x_min":19,"x_max":581,"o":"m 231 -14 q 117 -5 175 -14 q 19 17 58 4 l 40 117 q 236 83 132 83 q 367 102 326 83 q 418 172 407 121 q 421 194 421 189 q 394 243 421 226 q 296 286 368 260 l 258 300 q 138 361 178 329 q 99 450 99 393 q 104 492 99 461 q 191 628 124 583 q 400 672 258 672 q 581 646 504 672 l 560 546 q 478 567 522 560 q 397 575 435 575 q 270 557 313 575 q 218 493 228 539 q 215 472 215 479 q 231 435 215 450 q 272 410 246 421 q 360 378 297 400 q 497 312 456 346 q 538 219 538 278 q 532 174 538 196 q 442 31 511 75 q 231 -14 372 -14 m 174 -121 l 285 -121 l 263 -228 l 151 -228 l 174 -121 z "},"ß":{"ha":871,"x_min":21,"x_max":850,"o":"m 449 -14 q 256 17 331 -14 l 276 114 q 451 83 342 83 q 602 129 550 83 q 674 267 654 175 q 681 325 681 301 q 642 415 681 385 q 519 446 603 446 l 406 446 l 424 532 l 540 532 q 675 577 629 532 q 738 701 721 622 q 744 754 744 732 q 699 844 744 813 q 546 875 653 875 q 363 819 431 875 q 271 646 296 763 l 135 0 l 21 0 l 158 650 q 294 886 190 800 q 567 972 397 972 q 776 913 703 972 q 850 757 850 853 q 844 701 850 728 q 686 482 808 533 q 765 424 738 465 q 793 324 793 383 q 786 261 793 299 q 674 57 758 128 q 449 -14 590 -14 z "},"ə":{"ha":740,"x_min":46,"x_max":682,"o":"m 282 -14 q 105 40 164 -14 q 46 186 46 94 q 54 258 46 221 l 81 382 l 568 382 q 574 443 574 426 q 553 525 574 496 q 483 567 532 554 q 350 581 435 581 q 157 546 249 581 l 176 635 q 392 672 268 672 q 682 438 682 672 q 669 326 682 388 q 543 73 635 160 q 282 -14 451 -14 m 299 78 q 469 131 413 78 q 550 300 526 185 l 164 300 l 153 246 q 146 185 146 208 q 181 104 146 131 q 299 78 215 78 z "},"t":{"ha":497,"x_min":92,"x_max":507,"o":"m 264 -14 q 146 23 188 -14 q 104 128 104 60 q 111 183 104 151 l 192 568 l 92 568 l 111 658 l 211 658 l 246 821 l 367 856 l 325 658 l 507 658 l 481 568 l 306 568 l 225 189 q 219 144 219 167 q 241 93 219 108 q 311 78 263 78 q 406 92 358 78 l 386 6 q 264 -14 331 -14 z "},"ŧ":{"ha":514,"x_min":50,"x_max":524,"o":"m 281 -14 q 163 23 204 -14 q 121 128 121 60 q 128 183 121 151 l 153 306 l 50 306 l 68 386 l 169 386 l 208 568 l 108 568 l 128 658 l 228 658 l 263 821 l 383 856 l 342 658 l 524 658 l 497 568 l 322 568 l 283 386 l 463 386 l 444 306 l 267 306 l 242 189 q 236 144 236 167 q 258 93 236 108 q 328 78 279 78 q 422 92 375 78 l 403 6 q 281 -14 347 -14 z "},"ť":{"ha":497,"x_min":92,"x_max":699,"o":"m 596 1024 l 699 1024 l 588 778 l 504 778 l 596 1024 m 264 -14 q 146 23 188 -14 q 104 128 104 60 q 111 183 104 151 l 192 568 l 92 568 l 111 658 l 211 658 l 246 821 l 367 856 l 325 658 l 507 658 l 481 568 l 306 568 l 225 189 q 219 144 219 167 q 241 93 219 108 q 311 78 263 78 q 406 92 358 78 l 386 6 q 264 -14 331 -14 z "},"ţ":{"ha":497,"x_min":47,"x_max":507,"o":"m 142 -333 q 91 -330 119 -333 q 47 -322 63 -326 l 63 -253 q 147 -264 100 -264 q 246 -248 214 -264 q 286 -190 278 -232 q 289 -172 289 -176 q 264 -135 289 -144 q 183 -126 239 -126 l 132 -126 l 196 -4 q 128 43 151 10 q 104 126 104 76 q 111 183 104 149 l 192 568 l 92 568 l 111 658 l 211 658 l 246 821 l 367 856 l 325 658 l 507 658 l 481 568 l 306 568 l 225 189 q 219 144 219 167 q 241 93 219 108 q 311 78 263 78 q 406 92 358 78 l 386 6 q 271 -14 332 -12 l 243 -67 q 340 -91 307 -67 q 374 -160 374 -115 q 369 -192 374 -175 q 142 -333 339 -333 z "},"ț":{"ha":497,"x_min":92,"x_max":507,"o":"m 264 -14 q 146 23 188 -14 q 104 128 104 60 q 111 183 104 151 l 192 568 l 92 568 l 111 658 l 211 658 l 246 821 l 367 856 l 325 658 l 507 658 l 481 568 l 306 568 l 225 189 q 219 144 219 167 q 241 93 219 108 q 311 78 263 78 q 406 92 358 78 l 386 6 q 264 -14 331 -14 m 192 -58 l 294 -58 l 183 -304 l 100 -304 l 192 -58 z "},"ẗ":{"ha":497,"x_min":92,"x_max":536,"o":"m 185 999 l 292 999 l 269 894 l 163 894 l 185 999 m 428 999 l 536 999 l 514 894 l 406 894 l 428 999 m 264 -14 q 146 23 188 -14 q 104 128 104 60 q 111 183 104 151 l 192 568 l 92 568 l 111 658 l 211 658 l 246 821 l 367 856 l 325 658 l 507 658 l 481 568 l 306 568 l 225 189 q 219 144 219 167 q 241 93 219 108 q 311 78 263 78 q 406 92 358 78 l 386 6 q 264 -14 331 -14 z "},"ṭ":{"ha":497,"x_min":92,"x_max":507,"o":"m 264 -14 q 146 23 188 -14 q 104 128 104 60 q 111 183 104 151 l 192 568 l 92 568 l 111 658 l 211 658 l 246 821 l 367 856 l 325 658 l 507 658 l 481 568 l 306 568 l 225 189 q 219 144 219 167 q 241 93 219 108 q 311 78 263 78 q 406 92 358 78 l 386 6 q 264 -14 331 -14 m 161 -114 l 272 -114 l 250 -221 l 139 -221 l 161 -114 z "},"ṯ":{"ha":497,"x_min":-32,"x_max":507,"o":"m 264 -14 q 146 23 188 -14 q 104 128 104 60 q 111 183 104 151 l 192 568 l 92 568 l 111 658 l 211 658 l 246 821 l 367 856 l 325 658 l 507 658 l 481 568 l 306 568 l 225 189 q 219 144 219 167 q 241 93 219 108 q 311 78 263 78 q 406 92 358 78 l 386 6 q 264 -14 331 -14 m -15 -92 l 383 -92 l 367 -174 l -32 -174 l -15 -92 z "},"u":{"ha":792,"x_min":63,"x_max":764,"o":"m 256 -14 q 113 32 163 -14 q 63 165 63 78 q 71 242 63 200 l 160 658 l 274 658 l 185 238 q 178 175 178 208 q 210 100 178 122 q 318 78 243 78 q 435 100 378 78 q 544 161 493 122 l 650 658 l 764 658 l 625 0 l 522 0 l 531 75 q 256 -14 400 -14 z "},"ú":{"ha":792,"x_min":63,"x_max":764,"o":"m 560 958 l 663 958 l 503 725 l 411 725 l 560 958 m 256 -14 q 113 32 163 -14 q 63 165 63 78 q 71 242 63 200 l 160 658 l 274 658 l 185 238 q 178 175 178 208 q 210 100 178 122 q 318 78 243 78 q 435 100 378 78 q 544 161 493 122 l 650 658 l 764 658 l 625 0 l 522 0 l 531 75 q 256 -14 400 -14 z "},"ŭ":{"ha":792,"x_min":63,"x_max":764,"o":"m 469 725 q 363 759 399 725 q 326 853 326 793 q 332 900 326 867 l 408 900 q 404 863 404 879 q 482 797 404 797 q 600 900 578 797 l 685 900 q 469 725 647 725 m 256 -14 q 113 32 163 -14 q 63 165 63 78 q 71 242 63 200 l 160 658 l 274 658 l 185 238 q 178 175 178 208 q 210 100 178 122 q 318 78 243 78 q 435 100 378 78 q 544 161 493 122 l 650 658 l 764 658 l 625 0 l 522 0 l 531 75 q 256 -14 400 -14 z "},"ǔ":{"ha":792,"x_min":63,"x_max":764,"o":"m 314 931 l 407 931 l 483 789 l 621 931 l 724 931 l 521 725 l 429 725 l 314 931 m 256 -14 q 113 32 163 -14 q 63 165 63 78 q 71 242 63 200 l 160 658 l 274 658 l 185 238 q 178 175 178 208 q 210 100 178 122 q 318 78 243 78 q 435 100 378 78 q 544 161 493 122 l 650 658 l 764 658 l 625 0 l 522 0 l 531 75 q 256 -14 400 -14 z "},"û":{"ha":792,"x_min":63,"x_max":764,"o":"m 471 931 l 563 931 l 679 725 l 585 725 l 507 867 l 371 725 l 269 725 l 471 931 m 256 -14 q 113 32 163 -14 q 63 165 63 78 q 71 242 63 200 l 160 658 l 274 658 l 185 238 q 178 175 178 208 q 210 100 178 122 q 318 78 243 78 q 435 100 378 78 q 544 161 493 122 l 650 658 l 764 658 l 625 0 l 522 0 l 531 75 q 256 -14 400 -14 z "},"ü":{"ha":792,"x_min":63,"x_max":764,"o":"m 324 857 l 431 857 l 408 753 l 301 753 l 324 857 m 567 857 l 675 857 l 653 753 l 544 753 l 567 857 m 256 -14 q 113 32 163 -14 q 63 165 63 78 q 71 242 63 200 l 160 658 l 274 658 l 185 238 q 178 175 178 208 q 210 100 178 122 q 318 78 243 78 q 435 100 378 78 q 544 161 493 122 l 650 658 l 764 658 l 625 0 l 522 0 l 531 75 q 256 -14 400 -14 z "},"ǘ":{"ha":792,"x_min":63,"x_max":764,"o":"m 579 1014 l 669 1014 l 538 840 l 456 840 l 579 1014 m 310 829 l 417 829 l 394 725 l 288 725 l 310 829 m 581 829 l 689 829 l 667 725 l 558 725 l 581 829 m 256 -14 q 113 32 163 -14 q 63 165 63 78 q 71 242 63 200 l 160 658 l 274 658 l 185 238 q 178 175 178 208 q 210 100 178 122 q 318 78 243 78 q 435 100 378 78 q 544 161 493 122 l 650 658 l 764 658 l 625 0 l 522 0 l 531 75 q 256 -14 400 -14 z "},"ǚ":{"ha":792,"x_min":63,"x_max":764,"o":"m 338 1004 l 431 1004 l 510 889 l 636 1004 l 736 1004 l 549 840 l 457 840 l 338 1004 m 306 829 l 414 829 l 392 725 l 283 725 l 306 829 m 578 829 l 685 829 l 663 725 l 556 725 l 578 829 m 256 -14 q 113 32 163 -14 q 63 165 63 78 q 71 242 63 200 l 160 658 l 274 658 l 185 238 q 178 175 178 208 q 210 100 178 122 q 318 78 243 78 q 435 100 378 78 q 544 161 493 122 l 650 658 l 764 658 l 625 0 l 522 0 l 531 75 q 256 -14 400 -14 z "},"ǜ":{"ha":792,"x_min":63,"x_max":764,"o":"m 406 1014 l 496 1014 l 544 840 l 463 840 l 406 1014 m 310 829 l 417 829 l 394 725 l 288 725 l 310 829 m 581 829 l 689 829 l 667 725 l 558 725 l 581 829 m 256 -14 q 113 32 163 -14 q 63 165 63 78 q 71 242 63 200 l 160 658 l 274 658 l 185 238 q 178 175 178 208 q 210 100 178 122 q 318 78 243 78 q 435 100 378 78 q 544 161 493 122 l 650 658 l 764 658 l 625 0 l 522 0 l 531 75 q 256 -14 400 -14 z "},"ǖ":{"ha":792,"x_min":63,"x_max":764,"o":"m 353 1053 l 751 1053 l 735 971 l 336 971 l 353 1053 m 333 854 l 440 854 l 418 750 l 311 750 l 333 854 m 576 854 l 685 854 l 663 750 l 554 750 l 576 854 m 256 -14 q 113 32 163 -14 q 63 165 63 78 q 71 242 63 200 l 160 658 l 274 658 l 185 238 q 178 175 178 208 q 210 100 178 122 q 318 78 243 78 q 435 100 378 78 q 544 161 493 122 l 650 658 l 764 658 l 625 0 l 522 0 l 531 75 q 256 -14 400 -14 z "},"ụ":{"ha":792,"x_min":63,"x_max":764,"o":"m 256 -14 q 113 32 163 -14 q 63 165 63 78 q 71 242 63 200 l 160 658 l 274 658 l 185 238 q 178 175 178 208 q 210 100 178 122 q 318 78 243 78 q 435 100 378 78 q 544 161 493 122 l 650 658 l 764 658 l 625 0 l 522 0 l 531 75 q 256 -14 400 -14 m 232 -121 l 343 -121 l 321 -228 l 210 -228 l 232 -121 z "},"ù":{"ha":792,"x_min":63,"x_max":764,"o":"m 383 958 l 486 958 l 535 725 l 443 725 l 383 958 m 256 -14 q 113 32 163 -14 q 63 165 63 78 q 71 242 63 200 l 160 658 l 274 658 l 185 238 q 178 175 178 208 q 210 100 178 122 q 318 78 243 78 q 435 100 378 78 q 544 161 493 122 l 650 658 l 764 658 l 625 0 l 522 0 l 531 75 q 256 -14 400 -14 z "},"ủ":{"ha":792,"x_min":63,"x_max":764,"o":"m 453 840 q 560 860 532 844 q 597 913 589 875 q 599 931 599 919 q 576 965 599 954 q 501 975 554 975 q 452 970 479 975 q 407 958 425 965 l 421 1029 q 478 1042 443 1038 q 543 1047 513 1047 q 649 1021 610 1047 q 688 947 688 994 q 685 921 688 938 q 638 832 672 863 q 533 792 603 801 l 519 725 l 428 725 l 453 840 m 256 -14 q 113 32 163 -14 q 63 165 63 78 q 71 242 63 200 l 160 658 l 274 658 l 185 238 q 178 175 178 208 q 210 100 178 122 q 318 78 243 78 q 435 100 378 78 q 544 161 493 122 l 650 658 l 764 658 l 625 0 l 522 0 l 531 75 q 256 -14 400 -14 z "},"ư":{"ha":949,"x_min":63,"x_max":994,"o":"m 256 -14 q 113 32 163 -14 q 63 165 63 78 q 71 242 63 200 l 160 658 l 274 658 l 185 238 q 178 175 178 208 q 210 100 178 122 q 318 78 243 78 q 435 100 378 78 q 544 161 493 122 l 650 658 l 764 658 l 746 576 q 846 619 814 582 q 896 744 878 656 l 994 744 q 901 558 969 621 q 729 493 832 494 l 625 0 l 522 0 l 531 75 q 256 -14 400 -14 z "},"ứ":{"ha":949,"x_min":63,"x_max":994,"o":"m 589 958 l 692 958 l 532 725 l 440 725 l 589 958 m 256 -14 q 113 32 163 -14 q 63 165 63 78 q 71 242 63 200 l 160 658 l 274 658 l 185 238 q 178 175 178 208 q 210 100 178 122 q 318 78 243 78 q 435 100 378 78 q 544 161 493 122 l 650 658 l 764 658 l 746 576 q 846 619 814 582 q 896 744 878 656 l 994 744 q 901 558 969 621 q 729 493 832 494 l 625 0 l 522 0 l 531 75 q 256 -14 400 -14 z "},"ự":{"ha":949,"x_min":63,"x_max":994,"o":"m 256 -14 q 113 32 163 -14 q 63 165 63 78 q 71 242 63 200 l 160 658 l 274 658 l 185 238 q 178 175 178 208 q 210 100 178 122 q 318 78 243 78 q 435 100 378 78 q 544 161 493 122 l 650 658 l 764 658 l 746 576 q 846 619 814 582 q 896 744 878 656 l 994 744 q 901 558 969 621 q 729 493 832 494 l 625 0 l 522 0 l 531 75 q 256 -14 400 -14 m 240 -121 l 351 -121 l 329 -228 l 218 -228 l 240 -121 z "},"ừ":{"ha":949,"x_min":63,"x_max":994,"o":"m 390 958 l 493 958 l 542 725 l 450 725 l 390 958 m 256 -14 q 113 32 163 -14 q 63 165 63 78 q 71 242 63 200 l 160 658 l 274 658 l 185 238 q 178 175 178 208 q 210 100 178 122 q 318 78 243 78 q 435 100 378 78 q 544 161 493 122 l 650 658 l 764 658 l 746 576 q 846 619 814 582 q 896 744 878 656 l 994 744 q 901 558 969 621 q 729 493 832 494 l 625 0 l 522 0 l 531 75 q 256 -14 400 -14 z "},"ử":{"ha":949,"x_min":63,"x_max":994,"o":"m 463 840 q 570 860 542 844 q 607 913 599 875 q 608 931 608 919 q 586 965 608 954 q 511 975 564 975 q 462 970 489 975 q 417 958 435 965 l 431 1029 q 488 1042 453 1038 q 553 1047 522 1047 q 658 1021 619 1047 q 697 947 697 994 q 694 921 697 938 q 647 832 682 863 q 543 792 613 801 l 529 725 l 438 725 l 463 840 m 256 -14 q 113 32 163 -14 q 63 165 63 78 q 71 242 63 200 l 160 658 l 274 658 l 185 238 q 178 175 178 208 q 210 100 178 122 q 318 78 243 78 q 435 100 378 78 q 544 161 493 122 l 650 658 l 764 658 l 746 576 q 846 619 814 582 q 896 744 878 656 l 994 744 q 901 558 969 621 q 729 493 832 494 l 625 0 l 522 0 l 531 75 q 256 -14 400 -14 z "},"ữ":{"ha":949,"x_min":63,"x_max":994,"o":"m 600 751 q 552 758 575 751 q 496 779 529 765 q 411 804 440 804 q 286 756 336 804 l 304 843 q 360 873 325 861 q 429 885 396 885 q 478 878 456 885 q 529 857 501 871 q 576 838 557 844 q 618 832 596 832 q 735 882 689 832 l 717 793 q 667 763 699 774 q 600 751 635 751 m 256 -14 q 113 32 163 -14 q 63 165 63 78 q 71 242 63 200 l 160 658 l 274 658 l 185 238 q 178 175 178 208 q 210 100 178 122 q 318 78 243 78 q 435 100 378 78 q 544 161 493 122 l 650 658 l 764 658 l 746 576 q 846 619 814 582 q 896 744 878 656 l 994 744 q 901 558 969 621 q 729 493 832 494 l 625 0 l 522 0 l 531 75 q 256 -14 400 -14 z "},"ű":{"ha":792,"x_min":63,"x_max":778,"o":"m 383 936 l 492 936 l 336 725 l 242 725 l 383 936 m 669 936 l 778 936 l 621 725 l 526 725 l 669 936 m 256 -14 q 113 32 163 -14 q 63 165 63 78 q 71 242 63 200 l 160 658 l 274 658 l 185 238 q 178 175 178 208 q 210 100 178 122 q 318 78 243 78 q 435 100 378 78 q 544 161 493 122 l 650 658 l 764 658 l 625 0 l 522 0 l 531 75 q 256 -14 400 -14 z "},"ū":{"ha":792,"x_min":63,"x_max":764,"o":"m 296 851 l 694 851 l 678 769 l 279 769 l 296 851 m 256 -14 q 113 32 163 -14 q 63 165 63 78 q 71 242 63 200 l 160 658 l 274 658 l 185 238 q 178 175 178 208 q 210 100 178 122 q 318 78 243 78 q 435 100 378 78 q 544 161 493 122 l 650 658 l 764 658 l 625 0 l 522 0 l 531 75 q 256 -14 400 -14 z "},"ų":{"ha":788,"x_min":63,"x_max":764,"o":"m 504 -306 q 420 -283 451 -306 q 389 -214 389 -261 q 428 -98 389 -157 q 522 0 468 -39 l 531 75 q 256 -14 400 -14 q 113 32 163 -14 q 63 165 63 78 q 71 242 63 200 l 160 658 l 274 658 l 185 238 q 178 175 178 208 q 210 100 178 122 q 318 78 243 78 q 435 100 378 78 q 544 161 493 122 l 650 658 l 764 658 l 625 0 l 624 0 q 533 -79 567 -36 q 489 -167 499 -122 q 486 -187 486 -181 q 501 -218 486 -210 q 546 -226 515 -226 q 584 -222 564 -226 q 617 -211 604 -218 l 600 -289 q 504 -306 564 -306 z "},"ů":{"ha":792,"x_min":63,"x_max":764,"o":"m 461 725 q 371 757 404 725 q 338 840 338 789 q 342 874 338 857 q 405 981 356 939 q 525 1024 454 1024 q 617 991 583 1024 q 651 907 651 958 q 647 874 651 890 q 583 767 633 808 q 461 725 533 725 m 475 789 q 551 821 521 789 q 582 896 582 853 q 565 942 582 925 q 511 958 547 958 q 436 926 467 958 q 406 850 406 894 q 423 806 406 822 q 475 789 440 789 m 256 -14 q 113 32 163 -14 q 63 165 63 78 q 71 242 63 200 l 160 658 l 274 658 l 185 238 q 178 175 178 208 q 210 100 178 122 q 318 78 243 78 q 435 100 378 78 q 544 161 493 122 l 650 658 l 764 658 l 625 0 l 522 0 l 531 75 q 256 -14 400 -14 z "},"ũ":{"ha":792,"x_min":63,"x_max":764,"o":"m 582 753 q 534 760 557 753 q 478 781 511 767 q 393 806 422 806 q 268 757 318 806 l 286 844 q 342 874 307 863 q 411 886 378 886 q 460 879 438 886 q 511 858 483 872 q 558 840 539 846 q 600 833 578 833 q 717 883 671 833 l 699 794 q 649 764 681 775 q 582 753 617 753 m 256 -14 q 113 32 163 -14 q 63 165 63 78 q 71 242 63 200 l 160 658 l 274 658 l 185 238 q 178 175 178 208 q 210 100 178 122 q 318 78 243 78 q 435 100 378 78 q 544 161 493 122 l 650 658 l 764 658 l 625 0 l 522 0 l 531 75 q 256 -14 400 -14 z "},"v":{"ha":783,"x_min":139,"x_max":783,"o":"m 139 658 l 253 658 l 340 106 l 661 658 l 783 658 l 386 0 l 258 0 l 139 658 z "},"w":{"ha":1022,"x_min":139,"x_max":1022,"o":"m 139 658 l 253 658 l 269 129 l 514 582 l 529 658 l 617 658 l 667 129 l 908 658 l 1022 658 l 711 0 l 601 0 l 549 478 l 290 0 l 172 0 l 139 658 z "},"ẃ":{"ha":1022,"x_min":139,"x_max":1022,"o":"m 690 958 l 793 958 l 633 725 l 542 725 l 690 958 m 139 658 l 253 658 l 269 129 l 514 582 l 529 658 l 617 658 l 667 129 l 908 658 l 1022 658 l 711 0 l 601 0 l 549 478 l 290 0 l 172 0 l 139 658 z "},"ŵ":{"ha":1022,"x_min":139,"x_max":1022,"o":"m 593 931 l 685 931 l 801 725 l 707 725 l 629 867 l 493 725 l 392 725 l 593 931 m 139 658 l 253 658 l 269 129 l 514 582 l 529 658 l 617 658 l 667 129 l 908 658 l 1022 658 l 711 0 l 601 0 l 549 478 l 290 0 l 172 0 l 139 658 z "},"ẅ":{"ha":1022,"x_min":139,"x_max":1022,"o":"m 449 857 l 556 857 l 533 753 l 426 753 l 449 857 m 692 857 l 800 857 l 778 753 l 669 753 l 692 857 m 139 658 l 253 658 l 269 129 l 514 582 l 529 658 l 617 658 l 667 129 l 908 658 l 1022 658 l 711 0 l 601 0 l 549 478 l 290 0 l 172 0 l 139 658 z "},"ẁ":{"ha":1022,"x_min":139,"x_max":1022,"o":"m 479 958 l 582 958 l 631 725 l 539 725 l 479 958 m 139 658 l 253 658 l 269 129 l 514 582 l 529 658 l 617 658 l 667 129 l 908 658 l 1022 658 l 711 0 l 601 0 l 549 478 l 290 0 l 172 0 l 139 658 z "},"x":{"ha":763,"x_min":0,"x_max":753,"o":"m 321 335 l 147 658 l 271 658 l 399 413 l 631 658 l 753 658 l 446 335 l 624 0 l 500 0 l 365 257 l 124 0 l 0 0 l 321 335 z "},"y":{"ha":811,"x_min":60,"x_max":764,"o":"m 222 -244 q 135 -240 185 -244 q 60 -231 85 -236 l 81 -133 q 147 -146 106 -142 q 224 -150 189 -150 q 422 -116 347 -150 q 514 -3 497 -82 l 531 75 q 401 10 472 35 q 256 -14 329 -14 q 113 33 164 -14 q 63 167 63 81 q 71 242 63 203 l 160 658 l 274 658 l 185 238 q 178 176 178 208 q 210 100 178 122 q 318 78 243 78 q 438 100 379 78 q 544 161 497 122 l 650 658 l 764 658 l 626 13 q 499 -183 599 -121 q 222 -244 399 -244 z "},"ý":{"ha":811,"x_min":60,"x_max":764,"o":"m 564 958 l 667 958 l 507 725 l 415 725 l 564 958 m 222 -244 q 135 -240 185 -244 q 60 -231 85 -236 l 81 -133 q 147 -146 106 -142 q 224 -150 189 -150 q 422 -116 347 -150 q 514 -3 497 -82 l 531 75 q 401 10 472 35 q 256 -14 329 -14 q 113 33 164 -14 q 63 167 63 81 q 71 242 63 203 l 160 658 l 274 658 l 185 238 q 178 176 178 208 q 210 100 178 122 q 318 78 243 78 q 438 100 379 78 q 544 161 497 122 l 650 658 l 764 658 l 626 13 q 499 -183 599 -121 q 222 -244 399 -244 z "},"ŷ":{"ha":811,"x_min":60,"x_max":764,"o":"m 472 931 l 564 931 l 681 725 l 586 725 l 508 867 l 372 725 l 271 725 l 472 931 m 222 -244 q 135 -240 185 -244 q 60 -231 85 -236 l 81 -133 q 147 -146 106 -142 q 224 -150 189 -150 q 422 -116 347 -150 q 514 -3 497 -82 l 531 75 q 401 10 472 35 q 256 -14 329 -14 q 113 33 164 -14 q 63 167 63 81 q 71 242 63 203 l 160 658 l 274 658 l 185 238 q 178 176 178 208 q 210 100 178 122 q 318 78 243 78 q 438 100 379 78 q 544 161 497 122 l 650 658 l 764 658 l 626 13 q 499 -183 599 -121 q 222 -244 399 -244 z "},"ÿ":{"ha":811,"x_min":60,"x_max":764,"o":"m 336 871 l 443 871 l 421 767 l 314 767 l 336 871 m 579 871 l 688 871 l 665 767 l 557 767 l 579 871 m 222 -244 q 135 -240 185 -244 q 60 -231 85 -236 l 81 -133 q 147 -146 106 -142 q 224 -150 189 -150 q 422 -116 347 -150 q 514 -3 497 -82 l 531 75 q 401 10 472 35 q 256 -14 329 -14 q 113 33 164 -14 q 63 167 63 81 q 71 242 63 203 l 160 658 l 274 658 l 185 238 q 178 176 178 208 q 210 100 178 122 q 318 78 243 78 q 438 100 379 78 q 544 161 497 122 l 650 658 l 764 658 l 626 13 q 499 -183 599 -121 q 222 -244 399 -244 z "},"ẏ":{"ha":811,"x_min":60,"x_max":764,"o":"m 432 863 l 543 863 l 521 756 l 410 756 l 432 863 m 222 -244 q 135 -240 185 -244 q 60 -231 85 -236 l 81 -133 q 147 -146 106 -142 q 224 -150 189 -150 q 422 -116 347 -150 q 514 -3 497 -82 l 531 75 q 401 10 472 35 q 256 -14 329 -14 q 113 33 164 -14 q 63 167 63 81 q 71 242 63 203 l 160 658 l 274 658 l 185 238 q 178 176 178 208 q 210 100 178 122 q 318 78 243 78 q 438 100 379 78 q 544 161 497 122 l 650 658 l 764 658 l 626 13 q 499 -183 599 -121 q 222 -244 399 -244 z "},"ỵ":{"ha":811,"x_min":60,"x_max":764,"o":"m 222 -244 q 135 -240 185 -244 q 60 -231 85 -236 l 81 -133 q 147 -146 106 -142 q 224 -150 189 -150 q 422 -116 347 -150 q 514 -3 497 -82 l 531 75 q 401 10 472 35 q 256 -14 329 -14 q 113 33 164 -14 q 63 167 63 81 q 71 242 63 203 l 160 658 l 274 658 l 185 238 q 178 176 178 208 q 210 100 178 122 q 318 78 243 78 q 438 100 379 78 q 544 161 497 122 l 650 658 l 764 658 l 626 13 q 499 -183 599 -121 q 222 -244 399 -244 m 614 -100 l 725 -100 l 703 -207 l 592 -207 l 614 -100 z "},"ỳ":{"ha":811,"x_min":60,"x_max":764,"o":"m 406 958 l 508 958 l 557 725 l 465 725 l 406 958 m 222 -244 q 135 -240 185 -244 q 60 -231 85 -236 l 81 -133 q 147 -146 106 -142 q 224 -150 189 -150 q 422 -116 347 -150 q 514 -3 497 -82 l 531 75 q 401 10 472 35 q 256 -14 329 -14 q 113 33 164 -14 q 63 167 63 81 q 71 242 63 203 l 160 658 l 274 658 l 185 238 q 178 176 178 208 q 210 100 178 122 q 318 78 243 78 q 438 100 379 78 q 544 161 497 122 l 650 658 l 764 658 l 626 13 q 499 -183 599 -121 q 222 -244 399 -244 z "},"ỷ":{"ha":811,"x_min":60,"x_max":764,"o":"m 442 840 q 549 860 521 844 q 586 913 578 875 q 588 931 588 919 q 565 965 588 954 q 490 975 543 975 q 441 970 468 975 q 396 958 414 965 l 410 1029 q 467 1042 432 1038 q 532 1047 501 1047 q 638 1021 599 1047 q 676 947 676 994 q 674 921 676 938 q 626 832 661 863 q 522 792 592 801 l 508 725 l 417 725 l 442 840 m 222 -244 q 135 -240 185 -244 q 60 -231 85 -236 l 81 -133 q 147 -146 106 -142 q 224 -150 189 -150 q 422 -116 347 -150 q 514 -3 497 -82 l 531 75 q 401 10 472 35 q 256 -14 329 -14 q 113 33 164 -14 q 63 167 63 81 q 71 242 63 203 l 160 658 l 274 658 l 185 238 q 178 176 178 208 q 210 100 178 122 q 318 78 243 78 q 438 100 379 78 q 544 161 497 122 l 650 658 l 764 658 l 626 13 q 499 -183 599 -121 q 222 -244 399 -244 z "},"ỹ":{"ha":811,"x_min":60,"x_max":764,"o":"m 611 753 q 563 760 586 753 q 507 781 540 767 q 422 806 451 806 q 297 757 347 806 l 315 844 q 372 874 336 863 q 440 886 407 886 q 490 879 467 886 q 540 858 513 872 q 588 840 568 846 q 629 833 607 833 q 746 883 700 833 l 728 794 q 678 764 710 775 q 611 753 646 753 m 222 -244 q 135 -240 185 -244 q 60 -231 85 -236 l 81 -133 q 147 -146 106 -142 q 224 -150 189 -150 q 422 -116 347 -150 q 514 -3 497 -82 l 531 75 q 401 10 472 35 q 256 -14 329 -14 q 113 33 164 -14 q 63 167 63 81 q 71 242 63 203 l 160 658 l 274 658 l 185 238 q 178 176 178 208 q 210 100 178 122 q 318 78 243 78 q 438 100 379 78 q 544 161 497 122 l 650 658 l 764 658 l 626 13 q 499 -183 599 -121 q 222 -244 399 -244 z "},"z":{"ha":674,"x_min":0,"x_max":664,"o":"m 13 63 l 507 568 l 138 568 l 157 658 l 664 658 l 649 588 l 161 89 l 553 89 l 535 0 l 0 0 l 13 63 z "},"ź":{"ha":674,"x_min":0,"x_max":664,"o":"m 519 958 l 622 958 l 463 725 l 371 725 l 519 958 m 13 63 l 507 568 l 138 568 l 157 658 l 664 658 l 649 588 l 161 89 l 553 89 l 535 0 l 0 0 l 13 63 z "},"ž":{"ha":674,"x_min":0,"x_max":664,"o":"m 244 931 l 338 931 l 414 789 l 551 931 l 654 931 l 451 725 l 360 725 l 244 931 m 13 63 l 507 568 l 138 568 l 157 658 l 664 658 l 649 588 l 161 89 l 553 89 l 535 0 l 0 0 l 13 63 z "},"ż":{"ha":674,"x_min":0,"x_max":664,"o":"m 393 863 l 504 863 l 482 756 l 371 756 l 393 863 m 13 63 l 507 568 l 138 568 l 157 658 l 664 658 l 649 588 l 161 89 l 553 89 l 535 0 l 0 0 l 13 63 z "},"ẓ":{"ha":674,"x_min":0,"x_max":664,"o":"m 13 63 l 507 568 l 138 568 l 157 658 l 664 658 l 649 588 l 161 89 l 553 89 l 535 0 l 0 0 l 13 63 m 183 -121 l 294 -121 l 272 -228 l 161 -228 l 183 -121 z "},"ﬁ":{"ha":714,"x_min":71,"x_max":686,"o":"m 190 568 l 92 568 l 111 658 l 210 658 l 226 735 q 325 897 247 836 q 521 958 403 958 q 665 938 614 958 l 647 851 q 531 867 606 867 q 401 835 446 867 q 340 735 356 803 l 324 658 l 686 658 l 547 0 l 433 0 l 553 568 l 304 568 l 185 0 l 71 0 l 190 568 z "},"ﬂ":{"ha":714,"x_min":71,"x_max":746,"o":"m 190 568 l 92 568 l 111 658 l 210 658 l 226 735 q 324 897 247 836 q 521 958 401 958 q 665 938 607 958 l 746 938 l 547 0 l 433 0 l 553 568 l 304 568 l 185 0 l 71 0 l 190 568 m 572 658 l 614 853 q 531 867 569 867 q 400 835 444 867 q 340 735 356 803 l 324 658 l 572 658 z "},"ª":{"ha":482,"x_min":132,"x_max":511,"o":"m 243 528 q 163 549 194 528 q 132 611 132 569 q 135 636 132 617 q 189 726 147 696 q 306 756 231 756 l 426 756 l 431 772 q 433 799 433 782 q 413 835 433 825 q 342 846 393 846 q 222 826 283 846 l 235 888 q 372 908 294 908 q 474 883 438 908 q 511 807 511 857 q 507 774 511 793 l 457 536 l 389 536 l 392 576 q 324 540 360 551 q 243 528 289 528 m 276 585 q 344 597 314 585 q 401 638 374 610 l 415 700 l 306 700 q 238 687 260 700 q 208 639 215 674 q 207 624 207 633 q 224 594 207 603 q 276 585 240 585 z "},"º":{"ha":507,"x_min":144,"x_max":526,"o":"m 294 528 q 183 561 221 528 q 144 658 144 594 q 151 718 144 683 q 226 861 172 814 q 376 908 279 908 q 488 875 450 908 q 526 778 526 842 q 519 718 526 753 q 445 575 499 622 q 294 528 392 528 m 308 589 q 397 621 365 589 q 442 718 428 653 q 449 775 449 753 q 428 828 449 811 q 363 846 408 846 q 274 814 306 846 q 228 718 242 782 q 221 664 221 683 q 241 607 221 625 q 308 589 261 589 z "},"ⁿ":{"ha":503,"x_min":121,"x_max":532,"o":"m 197 900 l 269 900 l 264 860 q 338 895 301 883 q 419 907 374 907 q 502 881 472 907 q 532 808 532 856 q 528 776 532 793 l 478 536 l 401 536 l 449 760 q 453 797 453 783 q 438 835 453 824 q 386 846 422 846 q 316 832 351 846 q 254 797 281 818 l 199 536 l 121 536 l 197 900 z "},"Δ":{"ha":908,"x_min":0,"x_max":782,"o":"m 13 65 l 515 894 l 629 894 l 782 64 l 769 0 l 0 0 l 13 65 m 676 89 l 553 779 l 133 89 l 676 89 z "},"Ω":{"ha":1068,"x_min":10,"x_max":1049,"o":"m 28 89 l 249 89 q 136 222 176 140 q 96 401 96 303 q 107 504 96 449 q 208 743 135 639 q 399 906 282 847 q 669 965 515 965 q 876 922 790 965 q 1005 799 961 878 q 1049 618 1049 721 q 1036 504 1049 563 q 922 259 1006 364 q 718 89 839 154 l 938 89 l 919 0 l 554 0 l 572 90 q 922 504 864 232 q 935 615 935 565 q 865 801 935 735 q 649 868 794 868 q 451 822 540 868 q 303 694 363 776 q 221 504 244 613 q 210 403 210 449 q 394 90 210 203 l 376 0 l 10 0 l 28 89 z "},"μ":{"ha":799,"x_min":-15,"x_max":771,"o":"m 167 658 l 281 658 l 192 238 q 183 172 183 200 q 216 99 183 121 q 325 78 249 78 q 445 100 386 78 q 551 161 504 122 l 657 658 l 771 658 l 632 0 l 529 0 l 538 75 q 408 10 479 35 q 263 -14 336 -14 q 144 17 189 -14 l 99 -199 l -15 -199 l 167 658 z "},"π":{"ha":928,"x_min":81,"x_max":842,"o":"m 679 -14 q 568 26 608 -14 q 528 133 528 65 q 535 190 528 158 l 615 569 l 315 569 l 194 0 l 81 0 l 201 569 l 107 569 l 125 658 l 842 658 l 824 569 l 729 569 l 647 189 q 642 143 642 165 q 664 95 642 108 q 740 82 686 82 q 822 96 776 82 l 803 6 q 679 -14 744 -14 z "},"ก":{"ha":844,"x_min":44,"x_max":789,"o":"m 108 304 q 256 467 136 435 l 106 503 l 135 636 q 302 728 206 692 q 510 764 399 764 q 789 560 789 764 q 779 478 789 521 l 678 0 l 564 0 l 665 482 q 675 556 675 522 q 633 642 675 617 q 490 667 590 667 q 340 645 413 667 q 224 588 268 624 l 218 558 l 372 519 l 354 433 q 266 389 297 419 q 222 301 235 358 l 158 0 l 44 0 l 108 304 z "},"ถ":{"ha":844,"x_min":68,"x_max":789,"o":"m 172 0 q 95 26 122 0 q 68 97 68 53 q 72 133 68 115 l 108 304 q 256 467 136 435 l 106 503 l 135 636 q 302 728 206 692 q 510 764 399 764 q 717 713 646 764 q 789 558 789 663 q 779 478 789 529 l 678 0 l 564 0 l 665 482 q 675 556 675 533 q 633 642 675 618 q 490 667 592 667 q 340 645 413 667 q 224 588 268 624 l 218 558 l 372 519 l 354 433 q 266 389 297 419 q 222 301 235 358 l 192 161 q 188 128 188 143 q 199 101 188 108 q 240 93 211 93 l 322 93 l 303 0 l 172 0 z "},"ภ":{"ha":892,"x_min":0,"x_max":836,"o":"m 19 93 l 75 93 q 124 109 107 93 q 149 160 142 125 l 179 304 q 223 408 193 367 q 311 467 253 449 l 153 503 l 182 636 q 349 728 253 692 q 557 764 446 764 q 836 558 836 764 q 826 478 836 529 l 725 0 l 611 0 l 713 482 q 722 556 722 522 q 680 642 722 617 q 538 667 638 667 q 388 645 460 667 q 271 588 315 624 l 265 558 l 428 519 l 410 433 q 330 390 354 418 q 293 301 306 363 l 261 153 q 86 0 228 0 l 0 0 l 19 93 z "},"ฤ":{"ha":844,"x_min":68,"x_max":789,"o":"m 665 482 q 675 556 675 531 q 633 642 675 617 q 490 667 590 667 q 340 645 413 667 q 224 588 268 624 l 218 558 l 372 519 l 354 433 q 266 389 297 419 q 222 301 235 358 l 192 161 q 188 128 188 143 q 199 101 188 108 q 240 93 211 93 l 322 93 l 303 0 l 172 0 q 95 26 122 0 q 68 97 68 53 q 72 133 68 115 l 108 304 q 256 467 136 435 l 106 503 l 135 636 q 302 728 206 692 q 510 764 399 764 q 789 558 789 764 q 779 478 789 529 l 629 -222 l 515 -222 l 665 482 z "},"ฦ":{"ha":892,"x_min":0,"x_max":836,"o":"m 713 482 q 722 557 722 522 q 681 642 722 617 q 538 667 639 667 q 388 645 460 667 q 271 588 315 624 l 265 558 l 428 519 l 410 433 q 330 390 354 418 q 293 301 306 363 l 261 153 q 86 0 228 0 l 0 0 l 19 93 l 75 93 q 124 109 107 93 q 149 160 142 125 l 179 304 q 223 408 193 367 q 311 467 253 449 l 153 503 l 182 636 q 349 728 253 692 q 557 764 446 764 q 836 558 836 764 q 826 478 836 529 l 676 -222 l 563 -222 l 713 482 z "},"ฎ":{"ha":892,"x_min":0,"x_max":836,"o":"m 133 -175 q 379 -122 251 -122 q 492 -135 442 -122 q 575 -168 542 -147 l 713 482 q 722 554 722 531 q 680 642 722 617 q 538 667 638 667 q 388 645 460 667 q 271 588 315 624 l 265 558 l 428 519 l 410 433 q 330 390 354 418 q 293 301 306 363 l 261 153 q 86 0 228 0 l 0 0 l 19 93 l 75 93 q 124 109 107 93 q 149 160 142 125 l 179 304 q 223 408 193 367 q 311 467 253 449 l 153 503 l 182 636 q 349 728 253 692 q 557 764 446 764 q 765 713 693 764 q 836 558 836 663 q 826 478 836 529 l 667 -269 l 554 -269 q 464 -231 511 -243 q 351 -219 417 -219 q 113 -272 231 -219 l 133 -175 z "},"ฏ":{"ha":892,"x_min":0,"x_max":836,"o":"m 479 -271 q 349 -208 389 -271 q 290 -253 326 -236 q 206 -269 254 -269 l 81 -269 l 110 -169 l 206 -169 q 273 -156 246 -169 q 325 -110 300 -143 l 403 -110 q 431 -158 411 -142 q 489 -174 451 -174 q 560 -151 536 -174 q 594 -75 583 -128 l 713 482 q 722 554 722 531 q 680 642 722 617 q 538 667 638 667 q 388 645 460 667 q 271 588 315 624 l 265 558 l 428 519 l 410 433 q 330 390 354 418 q 293 301 306 363 l 261 153 q 86 0 228 0 l 0 0 l 19 93 l 75 93 q 124 109 107 93 q 149 160 142 125 l 179 304 q 223 408 193 367 q 311 467 253 449 l 153 503 l 182 636 q 349 728 253 692 q 557 764 446 764 q 765 713 693 764 q 836 558 836 663 q 826 478 836 529 l 706 -89 q 628 -224 688 -176 q 479 -271 568 -271 z "},"ญ":{"ha":1343,"x_min":68,"x_max":1335,"o":"m 847 -69 q 707 -53 781 -69 q 588 -11 633 -37 l 608 88 q 725 42 657 57 q 868 28 793 28 q 1029 52 972 28 q 1096 119 1086 76 q 1099 142 1099 136 q 1090 174 1099 160 q 888 125 1000 125 q 694 178 761 125 q 626 336 626 232 q 636 422 626 379 l 649 482 q 658 558 658 522 q 618 642 658 618 q 482 667 578 667 q 338 645 407 667 q 224 588 268 624 l 218 558 l 372 519 l 354 433 q 266 389 297 419 q 222 301 235 358 l 192 161 q 188 129 188 143 q 199 101 188 108 q 238 93 210 93 l 322 93 l 303 0 l 172 0 q 95 26 122 0 q 68 97 68 53 q 72 133 68 115 l 108 304 q 256 467 136 435 l 106 503 l 135 636 q 299 728 206 692 q 501 764 393 764 q 771 560 771 764 q 761 478 771 521 l 747 414 q 738 338 738 374 q 777 249 738 275 q 908 222 817 222 q 1070 267 1013 222 q 1150 414 1128 313 l 1221 750 l 1335 750 l 1265 422 q 1179 243 1242 311 q 1206 163 1206 211 q 1201 119 1206 143 q 1092 -22 1182 26 q 847 -69 1003 -69 z "},"ข":{"ha":793,"x_min":61,"x_max":785,"o":"m 315 -14 q 126 38 190 -14 q 61 186 61 90 q 69 257 61 219 l 90 358 q 127 438 99 399 q 203 525 156 476 q 257 585 240 564 q 278 625 274 606 q 279 640 279 631 q 270 657 279 653 q 240 661 261 661 l 140 661 l 168 750 l 322 750 q 403 685 403 750 q 399 656 403 672 q 363 573 389 610 q 293 489 338 536 q 233 418 254 447 q 204 354 211 389 l 181 244 q 174 190 174 213 q 213 109 174 135 q 336 83 253 83 q 489 122 432 83 q 564 247 546 161 l 671 750 l 785 750 l 681 258 q 315 -14 622 -14 z "},"ฃ":{"ha":782,"x_min":63,"x_max":774,"o":"m 311 -14 q 126 38 190 -14 q 63 185 63 90 q 69 251 63 213 l 86 332 q 129 415 96 374 q 221 515 163 457 q 285 584 264 558 q 311 629 307 610 l 313 639 q 285 664 313 664 q 222 638 253 664 l 211 583 l 124 583 l 158 750 l 246 750 l 238 711 q 346 750 289 750 q 406 731 385 750 q 428 678 428 713 q 425 651 428 671 q 386 568 415 607 q 306 479 357 529 q 232 397 257 429 q 200 329 207 365 l 182 244 q 175 188 175 210 q 212 108 175 132 q 332 83 249 83 q 477 124 419 83 q 553 247 535 164 l 660 750 l 774 750 l 669 258 q 551 53 640 121 q 311 -14 463 -14 z "},"ช":{"ha":792,"x_min":63,"x_max":788,"o":"m 315 -14 q 127 40 192 -14 q 63 189 63 93 q 69 257 63 218 l 90 358 q 128 442 100 404 q 206 529 157 481 q 257 585 240 564 q 278 625 274 606 q 279 640 279 631 q 270 657 279 653 q 240 661 261 661 l 140 661 l 168 750 l 322 750 q 401 683 401 750 q 399 656 401 675 q 363 571 389 607 q 292 486 338 535 q 231 416 251 443 q 204 354 211 389 l 181 244 q 175 193 175 218 q 215 110 175 136 q 336 83 254 83 q 564 247 529 83 l 585 343 q 593 406 593 381 q 571 462 593 446 q 497 478 549 478 l 458 478 l 482 568 l 513 568 q 615 599 585 568 q 661 703 646 629 l 674 764 l 788 764 l 775 704 q 728 585 758 629 q 632 519 697 540 q 688 474 671 501 q 704 408 704 447 q 696 336 704 376 l 681 258 q 560 52 650 118 q 315 -14 471 -14 z "},"ซ":{"ha":792,"x_min":63,"x_max":788,"o":"m 315 -14 q 127 40 192 -14 q 63 189 63 93 q 69 257 63 218 l 85 332 q 126 414 93 374 q 218 514 158 454 q 285 583 263 557 q 311 629 307 608 q 313 640 313 633 q 285 664 313 664 q 222 638 253 664 l 211 583 l 124 583 l 158 750 l 246 750 l 238 711 q 346 750 289 750 q 406 732 385 750 q 428 679 428 714 q 425 651 428 661 q 388 572 415 608 q 307 481 360 535 q 233 400 260 435 q 199 329 206 365 l 181 244 q 175 193 175 218 q 215 110 175 136 q 336 83 254 83 q 564 247 529 83 l 585 343 q 593 406 593 381 q 571 462 593 446 q 497 478 549 478 l 458 478 l 482 568 l 513 568 q 615 599 585 568 q 661 703 646 629 l 674 764 l 788 764 l 775 704 q 728 585 758 629 q 632 519 697 540 q 688 474 671 501 q 704 408 704 447 q 696 336 704 376 l 681 258 q 562 52 653 118 q 315 -14 471 -14 z "},"ค":{"ha":842,"x_min":28,"x_max":786,"o":"m 131 486 q 251 695 161 626 q 514 764 342 764 q 718 710 650 764 q 786 560 786 657 q 778 486 786 526 l 675 0 l 561 0 l 667 499 q 674 558 674 536 q 632 642 674 617 q 494 667 590 667 q 326 627 386 667 q 247 499 265 588 l 210 325 q 383 382 288 382 l 475 382 l 461 289 l 361 289 q 190 235 267 289 l 142 0 l 28 0 l 131 486 z "},"ฅ":{"ha":842,"x_min":28,"x_max":803,"o":"m 146 561 q 222 715 168 665 q 364 764 276 764 q 494 690 457 764 q 672 764 563 764 q 803 639 803 764 q 793 560 803 603 l 675 0 l 561 0 l 682 575 q 688 619 688 599 q 676 656 688 644 q 635 667 664 667 q 514 601 571 667 l 444 601 q 418 650 435 633 q 372 667 401 667 q 296 644 319 667 q 263 574 272 622 l 210 325 q 383 382 288 382 l 475 382 l 461 289 l 361 289 q 190 235 267 289 l 142 0 l 28 0 l 146 561 z "},"ศ":{"ha":864,"x_min":28,"x_max":903,"o":"m 131 486 q 251 695 161 626 q 514 764 342 764 q 633 750 578 764 l 903 750 l 878 657 l 764 657 q 786 558 786 617 q 778 486 786 526 l 675 0 l 561 0 l 667 499 q 674 558 674 536 q 632 642 674 617 q 494 667 590 667 q 326 627 386 667 q 247 499 265 588 l 210 325 q 383 382 288 382 l 475 382 l 461 289 l 361 289 q 190 235 267 289 l 142 0 l 28 0 l 131 486 z "},"ด":{"ha":885,"x_min":63,"x_max":824,"o":"m 296 -14 q 126 49 190 -14 q 63 239 63 113 q 78 368 63 294 q 536 764 161 764 q 751 699 679 764 q 824 532 824 635 q 817 465 824 503 l 718 0 l 604 0 l 701 464 q 710 529 710 500 q 664 632 710 597 q 514 667 618 667 q 299 592 374 667 q 192 368 224 518 q 175 232 175 288 q 213 117 175 151 q 336 83 251 83 q 435 94 400 83 l 415 0 q 296 -14 365 -14 z "},"ต":{"ha":885,"x_min":63,"x_max":847,"o":"m 296 -14 q 124 48 186 -14 q 63 233 63 110 q 78 368 63 300 q 394 764 163 764 q 475 746 446 764 q 526 690 504 728 q 714 764 607 764 q 813 731 779 764 q 847 636 847 697 q 840 578 847 613 l 718 0 l 604 0 l 724 563 q 729 613 729 589 q 714 654 729 642 q 663 667 699 667 q 550 601 590 667 l 474 601 q 443 652 461 638 q 389 667 425 667 q 269 589 317 667 q 192 368 221 511 q 175 236 175 292 q 214 119 175 154 q 336 83 253 83 q 435 94 400 83 l 415 0 q 296 -14 365 -14 z "},"ท":{"ha":829,"x_min":28,"x_max":775,"o":"m 186 750 l 289 750 l 276 660 q 415 737 343 710 q 574 764 488 764 q 722 712 668 764 q 775 569 775 660 q 767 496 775 536 l 663 0 l 549 0 l 653 494 q 661 564 661 535 q 628 643 661 619 q 519 667 594 667 q 261 563 382 667 l 142 0 l 28 0 l 186 750 z "},"ฑ":{"ha":826,"x_min":54,"x_max":778,"o":"m 121 319 q 159 410 131 367 q 236 511 188 453 q 290 579 272 554 q 313 628 308 604 l 314 639 q 286 664 314 664 q 222 638 253 664 l 211 583 l 124 583 l 158 750 l 246 750 l 238 711 q 346 750 289 750 q 417 708 403 750 q 600 764 504 764 q 734 724 690 764 q 778 601 778 683 q 767 506 778 564 l 660 0 l 546 0 l 653 507 q 663 585 663 551 q 638 649 663 631 q 554 667 614 667 q 480 653 519 667 q 411 618 440 640 q 385 554 404 586 q 328 476 365 522 q 265 389 288 425 q 233 313 243 353 l 168 0 l 54 0 l 121 319 z "},"น":{"ha":829,"x_min":72,"x_max":821,"o":"m 274 -14 q 125 35 178 -14 q 72 174 72 83 q 82 256 72 215 l 186 750 l 300 750 l 196 257 q 188 189 188 218 q 222 108 188 132 q 332 83 256 83 q 467 111 400 83 q 588 186 533 139 l 707 750 l 821 750 l 663 0 l 560 0 l 571 90 q 274 -14 435 -14 z "},"ม":{"ha":829,"x_min":28,"x_max":821,"o":"m 406 -14 q 260 13 319 -14 q 156 90 201 39 l 131 0 l 28 0 l 186 750 l 300 750 l 181 186 q 389 83 257 83 q 532 124 481 83 q 603 257 583 165 l 707 750 l 821 750 l 717 256 q 406 -14 658 -14 z "},"ฌ":{"ha":1331,"x_min":68,"x_max":1322,"o":"m 915 -14 q 776 13 832 -14 q 674 90 721 39 l 649 0 l 547 0 l 649 482 q 658 558 658 522 q 618 642 658 618 q 482 667 578 667 q 338 645 407 667 q 224 588 268 624 l 218 558 l 372 519 l 354 433 q 266 389 297 419 q 222 301 235 358 l 192 161 q 188 129 188 143 q 199 101 188 110 q 235 93 210 93 l 322 93 l 303 0 l 172 0 q 95 26 122 0 q 68 97 68 53 q 72 133 68 115 l 108 304 q 256 467 136 435 l 106 503 l 135 636 q 299 728 206 692 q 501 764 393 764 q 701 713 632 764 q 771 560 771 663 q 761 478 771 518 l 699 186 q 899 83 775 83 q 1037 126 988 83 q 1104 257 1086 169 l 1208 750 l 1322 750 l 1218 256 q 1115 54 1189 122 q 915 -14 1042 -14 z "},"ณ":{"ha":1331,"x_min":68,"x_max":1322,"o":"m 794 -14 q 649 33 704 -14 q 593 176 593 81 q 601 256 593 213 l 649 482 q 658 557 658 522 q 618 642 658 617 q 482 667 578 667 q 338 645 407 667 q 224 588 268 624 l 218 558 l 372 519 l 354 433 q 266 389 297 419 q 222 301 235 358 l 192 161 q 188 129 188 143 q 199 101 188 108 q 239 93 210 93 l 322 93 l 303 0 l 172 0 q 95 26 122 0 q 68 97 68 53 q 72 133 68 115 l 108 304 q 256 467 136 435 l 106 503 l 135 636 q 299 728 206 692 q 501 764 393 764 q 771 561 771 764 q 761 478 771 521 l 714 257 q 704 182 704 217 q 737 105 704 126 q 844 83 769 83 q 1089 186 969 83 l 1208 750 l 1322 750 l 1164 0 l 1061 0 l 1072 90 q 940 12 1004 38 q 794 -14 876 -14 z "},"ฒ":{"ha":1374,"x_min":63,"x_max":1365,"o":"m 296 -14 q 126 49 190 -14 q 63 238 63 113 q 78 368 63 292 q 194 664 119 564 q 389 764 269 764 q 468 746 440 764 q 518 690 496 728 q 601 745 553 726 q 703 764 650 764 q 799 730 765 764 q 832 635 832 696 q 825 578 832 613 l 742 186 q 942 83 818 83 q 1078 124 1029 83 q 1147 257 1128 164 l 1251 750 l 1365 750 l 1261 256 q 1156 55 1233 124 q 958 -14 1079 -14 q 819 13 875 -14 q 717 90 764 39 l 692 0 l 590 0 l 710 563 q 717 613 717 597 q 701 654 717 642 q 651 667 686 667 q 542 601 582 667 l 465 601 q 436 653 453 639 q 383 667 419 667 q 267 590 313 667 q 192 368 222 513 q 175 236 175 292 q 214 119 175 154 q 336 83 253 83 q 435 94 400 83 l 415 0 q 296 -14 365 -14 z "},"ฆ":{"ha":818,"x_min":17,"x_max":810,"o":"m 394 -14 q 249 13 308 -14 q 144 90 190 39 l 119 0 l 17 0 l 83 314 q 127 403 93 358 q 222 513 161 449 q 286 584 265 560 q 311 629 307 608 q 313 640 313 633 q 285 664 313 664 q 222 638 253 664 l 211 583 l 124 583 l 158 750 l 246 750 l 238 711 q 346 750 289 750 q 406 731 383 750 q 428 678 428 713 q 398 588 428 632 q 308 476 368 544 q 230 385 257 421 q 196 311 203 349 l 169 186 q 256 110 206 138 q 378 83 306 83 q 521 124 469 83 q 592 257 572 165 l 696 750 l 810 750 l 706 256 q 597 56 678 125 q 394 -14 515 -14 z "},"ธ":{"ha":738,"x_min":21,"x_max":715,"o":"m 300 -14 q 21 39 150 -14 l 82 324 l 188 324 l 143 113 q 313 83 215 83 q 462 113 410 83 q 529 215 514 142 q 535 263 535 239 q 514 322 535 300 q 455 355 493 343 q 335 385 417 367 q 176 441 233 407 q 119 544 119 475 q 122 578 119 567 q 226 719 140 675 q 471 764 311 764 q 608 753 539 764 q 715 728 676 743 l 694 628 q 589 656 651 644 q 467 667 526 667 q 301 650 360 667 q 231 581 242 633 q 229 564 229 575 q 263 511 229 528 q 376 476 297 494 l 447 458 q 558 420 517 439 q 625 368 600 401 q 650 281 650 335 q 643 215 650 244 q 531 43 618 100 q 300 -14 443 -14 z "},"ร":{"ha":701,"x_min":24,"x_max":665,"o":"m 261 -14 q 126 -4 189 -14 q 24 22 63 6 l 44 124 q 263 83 139 83 q 424 105 372 83 q 489 192 475 126 q 492 218 492 211 q 476 266 492 247 q 434 297 460 285 q 356 326 408 308 l 308 343 q 165 417 215 378 q 114 524 114 457 q 118 561 114 540 q 451 764 160 764 q 567 754 510 764 q 665 731 625 744 l 644 631 q 449 667 560 667 q 297 645 347 667 q 233 564 246 624 q 231 542 231 547 q 252 491 231 511 q 306 458 274 471 q 417 418 339 444 q 560 346 513 385 q 608 239 608 307 q 603 193 608 215 q 496 35 579 83 q 261 -14 413 -14 z "},"จ":{"ha":790,"x_min":65,"x_max":746,"o":"m 307 -14 q 251 -10 281 -14 q 206 1 221 -6 l 154 313 l 65 313 l 92 406 l 249 406 l 300 83 q 431 106 367 78 q 544 204 494 135 q 618 383 594 274 q 635 510 635 458 q 611 602 635 568 q 535 651 588 636 q 392 667 483 667 q 147 631 264 667 l 167 725 q 442 764 293 764 q 670 698 594 764 q 746 506 746 632 q 732 383 746 447 q 577 89 692 192 q 307 -14 463 -14 z "},"ว":{"ha":700,"x_min":4,"x_max":656,"o":"m 206 -14 q 4 25 89 -14 l 25 121 q 200 83 110 83 q 365 113 301 83 q 466 205 429 142 q 526 375 503 268 q 543 500 543 458 q 492 627 543 588 q 321 667 440 667 q 133 628 226 667 l 153 725 q 364 764 250 764 q 582 698 508 764 q 656 501 656 632 q 640 375 656 447 q 499 83 599 179 q 206 -14 400 -14 z "},"ง":{"ha":800,"x_min":108,"x_max":761,"o":"m 329 -14 q 211 1 249 -14 l 108 515 l 219 515 l 306 83 l 333 82 q 524 160 451 82 q 632 400 597 239 q 649 531 649 479 q 613 628 649 600 q 489 657 576 657 l 440 657 l 460 750 l 521 750 q 761 528 761 750 q 746 401 761 475 q 593 87 700 188 q 329 -14 486 -14 z "},"ฐ":{"ha":850,"x_min":-19,"x_max":869,"o":"m 307 -14 q 251 -10 281 -14 q 206 1 221 -6 l 154 313 l 65 313 l 92 406 l 249 406 l 300 83 q 431 106 367 78 q 544 204 494 135 q 618 383 594 274 q 635 510 635 458 q 611 602 635 568 q 535 651 588 636 q 392 667 483 667 q 147 631 264 667 l 167 725 q 442 764 293 764 q 565 750 506 764 l 869 750 l 844 657 l 699 657 q 744 497 744 599 q 732 383 744 444 q 577 89 692 192 q 307 -14 463 -14 m 382 -271 q 303 -254 338 -271 q 249 -208 268 -237 q 190 -253 226 -236 q 106 -269 154 -269 l -19 -269 l 10 -169 l 106 -169 q 175 -157 150 -169 q 225 -110 200 -144 l 303 -110 q 331 -158 311 -142 q 389 -174 351 -174 q 459 -153 435 -174 q 492 -89 483 -132 l 499 -56 l 613 -56 l 603 -103 q 528 -226 586 -181 q 382 -271 469 -271 z "},"ฉ":{"ha":799,"x_min":51,"x_max":742,"o":"m 244 -14 q 101 29 151 -14 q 51 161 51 72 q 61 247 51 203 l 97 417 l 211 417 l 175 247 q 164 167 164 196 q 192 101 164 119 q 293 83 221 83 q 433 110 365 83 q 557 186 501 138 l 618 475 q 628 551 628 515 q 607 619 628 594 q 539 656 586 644 q 410 667 492 667 q 271 655 350 667 q 132 625 192 643 l 153 719 q 298 751 215 739 q 458 764 381 764 q 671 713 600 764 q 742 558 742 663 q 732 474 742 517 l 632 0 l 529 0 l 540 90 q 406 13 475 39 q 244 -14 336 -14 z "},"ล":{"ha":814,"x_min":38,"x_max":760,"o":"m 246 -14 q 94 26 151 -14 q 38 150 38 67 q 44 210 38 172 q 144 380 68 321 q 368 439 221 439 l 626 439 l 639 497 q 649 567 649 543 q 608 645 649 624 q 464 667 567 667 q 215 631 333 667 l 235 725 q 363 753 292 743 q 504 764 435 764 q 696 717 632 764 q 760 572 760 669 q 750 489 760 532 l 647 0 l 533 0 l 606 344 l 367 344 q 220 313 271 344 q 156 210 169 281 q 149 160 149 178 q 181 101 149 118 q 297 83 214 83 q 394 94 353 83 l 375 0 q 246 -14 317 -14 z "},"ส":{"ha":849,"x_min":38,"x_max":868,"o":"m 246 -14 q 94 26 151 -14 q 38 150 38 67 q 44 210 38 172 q 144 380 68 321 q 368 439 221 439 l 626 439 l 639 497 q 649 567 649 543 q 608 645 649 624 q 464 667 567 667 q 215 631 333 667 l 235 725 q 363 753 292 743 q 504 764 435 764 q 624 750 568 764 l 868 750 l 843 657 l 743 657 q 760 572 760 622 q 750 489 760 543 l 647 0 l 533 0 l 606 344 l 367 344 q 220 313 271 344 q 156 210 169 281 q 149 160 149 178 q 181 101 149 118 q 297 83 214 83 q 394 94 353 83 l 375 0 q 246 -14 317 -14 z "},"บ":{"ha":853,"x_min":79,"x_max":844,"o":"m 353 -14 q 150 42 221 -14 q 79 204 79 97 q 88 283 79 242 l 186 750 l 300 750 l 200 275 q 192 204 192 236 q 234 111 192 139 q 374 83 276 83 q 547 126 486 83 q 631 275 608 169 l 731 750 l 844 750 l 746 283 q 618 57 713 128 q 353 -14 524 -14 z "},"ป":{"ha":853,"x_min":79,"x_max":892,"o":"m 353 -14 q 150 42 221 -14 q 79 204 79 97 q 88 283 79 242 l 186 750 l 300 750 l 200 275 q 192 204 192 236 q 234 111 192 139 q 374 83 276 83 q 547 126 486 83 q 631 275 608 169 l 778 972 l 892 972 l 746 283 q 618 57 713 128 q 353 -14 524 -14 z "},"ษ":{"ha":876,"x_min":79,"x_max":874,"o":"m 353 -14 q 150 42 221 -14 q 79 204 79 97 q 88 283 79 242 l 186 750 l 300 750 l 200 275 q 192 204 192 236 q 234 111 192 139 q 374 83 276 83 q 547 126 486 83 q 631 275 608 169 l 654 386 l 456 386 l 475 479 l 674 479 l 731 750 l 844 750 l 786 479 l 874 479 l 844 386 l 767 386 l 746 283 q 618 57 713 128 q 353 -14 524 -14 z "},"ย":{"ha":821,"x_min":39,"x_max":813,"o":"m 326 -14 q 115 31 192 -14 q 39 165 39 75 q 44 214 39 190 q 97 323 58 278 q 196 392 136 368 q 117 513 117 425 q 121 554 117 532 q 214 710 142 656 q 388 764 286 764 q 500 749 457 764 l 481 654 q 389 667 446 667 q 235 554 258 667 q 231 522 231 538 q 356 436 231 436 l 435 436 l 424 350 l 333 350 q 158 214 189 350 q 154 181 154 196 q 198 107 154 131 q 343 83 242 83 q 513 125 450 83 q 594 256 575 167 l 699 750 l 813 750 l 713 275 q 588 58 682 129 q 326 -14 493 -14 z "},"ผ":{"ha":892,"x_min":28,"x_max":883,"o":"m 157 613 q 212 712 171 674 q 318 750 253 750 l 438 750 l 422 656 l 349 656 q 290 640 307 656 q 264 582 272 624 l 174 158 l 460 521 l 514 521 l 647 158 l 772 750 l 883 750 l 725 0 l 615 0 l 469 404 l 151 0 l 28 0 l 157 613 z "}}}
